<svg id="Layer_1" data-name="Layer 1" xmlns="http://www.w3.org/2000/svg" xmlns:xlink="http://www.w3.org/1999/xlink" viewBox="0 0 1152 648"><defs><style>.cls-1,.cls-6,.cls-8{fill:none;}.cls-2{fill:#fff;}.cls-3{clip-path:url(#clip-path);}.cls-4{fill:#dcddde;}.cls-5{fill:#50535b;}.cls-6{stroke:#ededee;}.cls-6,.cls-7,.cls-8{stroke-width:3px;}.cls-10,.cls-7,.cls-9{fill:#414042;}.cls-7,.cls-8{stroke:#414042;}.cls-10{font-size:53.05px;font-family:Garamond, Garamond;}.cls-11{letter-spacing:0.02em;}</style><clipPath id="clip-path"><rect class="cls-1" x="515.27" y="29.35" width="656.07" height="570.21"/></clipPath></defs><title>before-after</title><rect class="cls-2" width="1152" height="648"/><g class="cls-3"><path class="cls-4" d="M1069.52,315.46l.18-.28-.11-.3c-.07-.19-7.16-18.95-28.81-36.63-1.86-1.52-3.87-3.06-6-4.6a196.42,196.42,0,0,0,17.47-45.14l.08-.32-.22-.25c-.13-.15-13.25-14.58-39.53-22.47-2.27-.68-4.67-1.32-7.22-1.91a239.5,239.5,0,0,0,.38-48.3l0-.42-.39-.13c-.2-.06-20.21-6.61-48.9-2.74-1.54.21-3.13.46-4.75.74a171.45,171.45,0,0,0-20.36-47.94l-.19-.32h-.38c-.21,0-21.21,1.18-46.22,15.55-1.67,1-3.4,2-5.15,3.13-16.74-22.92-34.52-35.37-34.71-35.5l-.31-.22-.34.18c-.21.11-20.77,11.21-38.94,37.56a200.07,200.07,0,0,0-48.23-23.28l-.47-.15-.26.42c-.14.21-13.12,21.22-19.45,52.4a195.69,195.69,0,0,0-53.14-.51l-.43.05-.11.41c-.05.19-5.05,19.66-.22,48q.57,3.36,1.36,7a219.86,219.86,0,0,0-50.37,18.27l-.44.22.1.48A183.05,183.05,0,0,0,655,278.78a179.91,179.91,0,0,0-37.8,35.27l-.29.36.25.38c.13.2,13.56,20,38.55,37.78.14.09.29.19.42.29A195.58,195.58,0,0,0,634.05,399l-.15.42.35.28c.18.13,18,13.93,47.1,21.29,1.16.29,2.35.58,3.57.85a200.06,200.06,0,0,0-2,51.76l0,.48.46.09a164.41,164.41,0,0,0,28,2.15,187.92,187.92,0,0,0,27-1.93,209,209,0,0,0,17.71,49l.2.41.46-.07c.23,0,23.51-4,49.66-19.8l.56-.35a204.1,204.1,0,0,0,36.44,37.61l.33.26.36-.2c.2-.1,19.74-10.69,37.4-34.25l1-1.43a178.77,178.77,0,0,0,46.11,19.44l.34.1.26-.24c.15-.14,15.45-14.58,23.31-41.79.69-2.38,1.34-4.91,1.91-7.59a162.42,162.42,0,0,0,24.16,1.81,178.81,178.81,0,0,0,25.28-1.83l.37-.06.13-.35c.07-.2,7.25-20.39,3.67-49.16-.13-1.06-.29-2.15-.46-3.25a139.63,139.63,0,0,0,46.12-20.33l.28-.19v-.35c0-.21-.49-21.31-14.51-46.43-.84-1.5-1.74-3-2.7-4.6a161.47,161.47,0,0,0,32.75-35.33M1012.1,206.65c24.1,7.22,37,20,38.81,21.88a195.07,195.07,0,0,1-17.2,44.39,139.83,139.83,0,0,0-42-19.51c5.95-12.62,11-28.62,13.45-48.59,2.44.56,4.75,1.18,6.92,1.83m-234.86,30a55.16,55.16,0,0,0-10.73.37l-.44.08-.07.45a71.42,71.42,0,0,0-.74,11.52,128.2,128.2,0,0,0-18.7-.42,157.43,157.43,0,0,1-10.91-41.56,143.64,143.64,0,0,1,17.13,2.57,132.25,132.25,0,0,1,24.3,7.67c-.18,5.93-.1,13.19.16,19.32m184.28,54.46a82.11,82.11,0,0,1-18.64,11.67,54.87,54.87,0,0,0-9.14-6.67,58.82,58.82,0,0,0,7.14-12.63l0,.08c7.08,2.26,14.47,4.93,20.66,7.55m-52.19,53c.59-1.31,1.15-2.64,1.66-4a63.23,63.23,0,0,0,21.79-7.32,51.29,51.29,0,0,1,10.13,23.07,62,62,0,0,1-23,8.4A57.44,57.44,0,0,0,909.33,344m9.3,20.3A61.73,61.73,0,0,1,897,362.92a72.48,72.48,0,0,0,11.74-17.58,56.14,56.14,0,0,1,9.89,19m-3-46.39A56.61,56.61,0,0,1,932,331.71a62,62,0,0,1-20.49,7A72.27,72.27,0,0,0,915.59,318m0-7.21A71.45,71.45,0,0,0,911.42,290a56.18,56.18,0,0,1,20.42,6.44,62.28,62.28,0,0,1-16.26,14.27m18.31,21.36a59.36,59.36,0,0,0,11.43-9c5.53,4.62,10.94,9.54,15.54,14.18A101.11,101.11,0,0,1,940,342.24a55.47,55.47,0,0,0-6.11-10.14m-.79-1a57.76,57.76,0,0,0-17.47-14.57c0-.69,0-1.37,0-2.06s0-1.51-.06-2.26a63.51,63.51,0,0,0,17.32-15.09,51.66,51.66,0,0,1,18.2,17.41,61.88,61.88,0,0,1-18,16.57m-.47-35.62a57.49,57.49,0,0,0-21.71-6.78c-.52-1.35-1.08-2.68-1.67-4a63.44,63.44,0,0,0,10.24-20.6A51.43,51.43,0,0,1,943,273.25a62.11,62.11,0,0,1-10.33,22.22m-24-12.1a72.63,72.63,0,0,0-11.79-17.54A56.21,56.21,0,0,1,918.22,264a62.05,62.05,0,0,1-9.57,19.42m11.18-20.49a59.38,59.38,0,0,0,1.77-14.95c6.58-.36,13.69-.49,19.69-.37a117.55,117.55,0,0,1-10.49,18,55.31,55.31,0,0,0-11-2.65m-1.27-.15a57.62,57.62,0,0,0-22.69,2.06q-1.47-1.56-3-3a63.47,63.47,0,0,0,1.59-23,51.31,51.31,0,0,1,25.18-.53,62.05,62.05,0,0,1-1,24.48m-26.79-2A72.67,72.67,0,0,0,874.19,249a56.23,56.23,0,0,1,19-9.89,62.21,62.21,0,0,1-1.42,21.63m14.51-25a55.09,55.09,0,0,0-12,1.78,58.66,58.66,0,0,0-3.9-14c5.53-2.6,12.49-5.63,17.68-7.68a176.93,176.93,0,0,1-1.77,19.9M893,237.86a57.56,57.56,0,0,0-20.15,10.57c-1.34-.6-2.69-1.17-4.08-1.69a71.7,71.7,0,0,0-7.94-21.21,51.51,51.51,0,0,1,23.76-10.68,62.13,62.13,0,0,1,8.41,23m-25.63,8.37a71.83,71.83,0,0,0-20.61-4,56.47,56.47,0,0,1,13.07-15.84,70.59,70.59,0,0,1,7.54,19.89m-22-4.09c-.69,0-1.37,0-2.06,0s-1.57,0-2.34.06A71.94,71.94,0,0,0,826,226a66.4,66.4,0,0,1,17.38-19.31,66.71,66.71,0,0,1,15.82,18.55,57.63,57.63,0,0,0-13.86,16.9m-5.91.05a72.12,72.12,0,0,0-20.59,4.15,54.36,54.36,0,0,1,6.53-19.24,70.62,70.62,0,0,1,14.06,15.09m-21.94,4.66c-1.37.52-2.72,1.09-4,1.69a71.94,71.94,0,0,0-20-9.2,66.33,66.33,0,0,1,8.66-24.49,66.94,66.94,0,0,1,22.23,11.48,55.68,55.68,0,0,0-6.87,20.52m-5.41,2.31a72.77,72.77,0,0,0-17.44,11.75,54.33,54.33,0,0,1-1.33-20.31,71.06,71.06,0,0,1,18.77,8.56m31.2-5.81a71.11,71.11,0,1,1-71.12,71.11,71.19,71.19,0,0,1,71.12-71.11M891.93,368a56.4,56.4,0,0,1,1.88,21.36,62.05,62.05,0,0,1-19.42-9.57A72.63,72.63,0,0,0,891.93,368m-79.51,11.88a54.41,54.41,0,0,1-18.22,9,70.43,70.43,0,0,1,.73-20.66,72.34,72.34,0,0,0,17.49,11.66M754.65,298.2A55.62,55.62,0,0,0,771,312.41c0,.68-.05,1.36-.05,2s0,1.56.06,2.34a71.62,71.62,0,0,0-16.14,14.93,66.28,66.28,0,0,1-19.31-17.38,66.91,66.91,0,0,1,19.11-16.15m-12.15,7.11q-6.87-6.53-12.73-13a114.12,114.12,0,0,1,17.47-6,64.74,64.74,0,0,0,6.62,10.93,73,73,0,0,0-11.36,8.13M771,311a54.27,54.27,0,0,1-15.27-13.39,70.83,70.83,0,0,1,19.32-7.22A71.89,71.89,0,0,0,771,311m0,7.34a71.44,71.44,0,0,0,4.15,20.59A54.36,54.36,0,0,1,756,332.36,70.39,70.39,0,0,1,771,318.3m-17,14.42a73.09,73.09,0,0,0-7.38,11.83,128,128,0,0,1-19.49-5.76,115.44,115.44,0,0,1,16-14.15,64.9,64.9,0,0,0,10.89,8.08m1.11.65a55.74,55.74,0,0,0,20.52,6.87c.53,1.37,1.1,2.72,1.7,4.05a72.07,72.07,0,0,0-9.2,20,66.27,66.27,0,0,1-24.49-8.66,66.83,66.83,0,0,1,11.47-22.23M778,345.66a72.58,72.58,0,0,0,11.74,17.43,54.47,54.47,0,0,1-20.3,1.34A70.92,70.92,0,0,1,778,345.66m-.14-62.08a54.34,54.34,0,0,1-9-18.23,70.36,70.36,0,0,1,20.65.73,72.59,72.59,0,0,0-11.66,17.5m-.6,1.31c-.6,1.33-1.16,2.68-1.69,4.06A72.13,72.13,0,0,0,755,296.56a66.23,66.23,0,0,1-11.19-23.44,66.7,66.7,0,0,1,23.84-7.6,55.59,55.59,0,0,0,9.65,19.37m-21.83-18c-3-5.34-6.18-11.8-8.38-17a127.4,127.4,0,0,1,18.22.45,64.66,64.66,0,0,0,2,13.95,72.23,72.23,0,0,0-11.85,2.59m-1.24.39a56.76,56.76,0,0,0-11.48,5l-.38.24.11.44a71,71,0,0,0,4.23,12.11,114,114,0,0,0-17.85,6.14,203.52,203.52,0,0,1-24.9-34.34,175.78,175.78,0,0,1,41.79-7,192.82,192.82,0,0,0,8.48,17.33m-12.65,38.89a54.49,54.49,0,0,0-7.31,7.85l-.26.37.27.37a70.71,70.71,0,0,0,8,9,117.59,117.59,0,0,0-16.31,14.54A133.86,133.86,0,0,1,689.65,317a160.74,160.74,0,0,1,38.9-24.17q6,6.68,13,13.35m-15.29,33.64a124.82,124.82,0,0,0,19.85,5.94,54.3,54.3,0,0,0-3.75,10l-.1.45.39.23a70.34,70.34,0,0,0,10.74,5.22,108.23,108.23,0,0,0-8.8,18,144.22,144.22,0,0,1-42.37-5.76,153.5,153.5,0,0,1,8.59-14.62,149,149,0,0,1,15.45-19.47m28.32,22.36a65.48,65.48,0,0,0,13.26,3.36,73.87,73.87,0,0,0-2.18,12.37A154.27,154.27,0,0,1,746,379.6a108.18,108.18,0,0,1,8.63-17.46m14.55,3.5a60.35,60.35,0,0,0,7.07.46,54,54,0,0,0,14.55-2c1,1.05,2,2.08,3.08,3.07a71.87,71.87,0,0,0-.86,22A66.2,66.2,0,0,1,767,390.58a66.83,66.83,0,0,1,2.1-24.94m24,24.82a72.81,72.81,0,0,0,3.07,13.38,172,172,0,0,1-18.72,8.72,97.17,97.17,0,0,1,2.17-20.14,64.37,64.37,0,0,0,13.48-2m1.24-.35a55.62,55.62,0,0,0,19.37-9.62c1.31.58,2.64,1.14,4,1.65a63.5,63.5,0,0,0,7,21.19A66.34,66.34,0,0,1,802,414a67.09,67.09,0,0,1-7.6-23.87m24.74-7.46a72.2,72.2,0,0,0,20.71,4.09,54.45,54.45,0,0,1-14.1,15.81,62.47,62.47,0,0,1-6.61-19.9m22.15,4.13c.69,0,1.37.05,2.06.05s1.5,0,2.25-.06a63.71,63.71,0,0,0,15.09,17.33,51.66,51.66,0,0,1-17.41,18.2,61.8,61.8,0,0,1-16.9-18.64,55.81,55.81,0,0,0,14.91-16.88m5.77,0a71.59,71.59,0,0,0,20.72-4.16A56.69,56.69,0,0,1,861.3,403,62.16,62.16,0,0,1,847,386.73m22.05-4.66c1.35-.52,2.68-1.07,4-1.67a63.38,63.38,0,0,0,20.6,10.22,51.2,51.2,0,0,1-9.15,23.49,61.64,61.64,0,0,1-22.21-10.33,57.61,57.61,0,0,0,6.77-21.71M894.88,391a58.35,58.35,0,0,0,12.88,1.72,190.23,190.23,0,0,1,1.39,19.65,147,147,0,0,1-17.7-8.34,55.25,55.25,0,0,0,3.43-13m.16-1.27A57.45,57.45,0,0,0,893,367c1-1,2-2,3-3a67.1,67.1,0,0,0,16,2,57.92,57.92,0,0,0,7-.46,51.39,51.39,0,0,1,.53,25.2A61.81,61.81,0,0,1,895,389.71m25.2-24.29a57.76,57.76,0,0,0,10.43-2.57c3.25,5.87,6.1,11.58,8.63,17.13A128.25,128.25,0,0,1,922,377.72a55.62,55.62,0,0,0-1.8-12.3m11.64-3a70.61,70.61,0,0,0,12-5.79l.34-.21,0-.39a46.18,46.18,0,0,0-3.66-12.62,99.37,99.37,0,0,0,21.28-5.11,175.72,175.72,0,0,1,27.35,35.91,138.12,138.12,0,0,1-14.69,3.56,146.7,146.7,0,0,1-33.77,2.26c-2.57-5.7-5.5-11.57-8.84-17.61m14.36-40.22A74.44,74.44,0,0,0,952.4,315l.23-.32-.18-.35a46.55,46.55,0,0,0-8.59-10.62,80.41,80.41,0,0,0,18.94-12,181.5,181.5,0,0,1,38.42,22.22,126.69,126.69,0,0,1-15.54,11.52,122.86,122.86,0,0,1-23.51,11.47c-4.74-4.81-10.22-9.86-15.93-14.64m16.36-32c-6.33-2.71-14-5.53-21.25-7.86a74.53,74.53,0,0,0,2.93-9.17l.1-.38-.31-.25A46,46,0,0,0,932,266a114.68,114.68,0,0,0,10.67-18.38,195.45,195.45,0,0,1,47.27,6.63,117.91,117.91,0,0,1-11.72,19.34,102.43,102.43,0,0,1-15.62,16.63m-19.34-43.85a142.23,142.23,0,0,0,9.28-27.47,137.52,137.52,0,0,0,2.63-15.74c19.73-2.7,36-1.39,48.77,1.42-2.43,20-7.5,35.95-13.43,48.51a196.34,196.34,0,0,0-47.25-6.72m8.07-27.8a140.67,140.67,0,0,1-9.45,27.77c-6.21-.14-13.49.05-20.31.42a73.42,73.42,0,0,0-.78-9.06l0-.4-.38-.11a45.52,45.52,0,0,0-12.75-1.46,173.46,173.46,0,0,0,1.71-20.35,204.78,204.78,0,0,1,44.56-12,137.51,137.51,0,0,1-2.55,15.23m-61.42,3.86a73.79,73.79,0,0,0-4.41-8.54l-.2-.34-.39,0A45.4,45.4,0,0,0,872.84,217a122.68,122.68,0,0,0-6.1-17.54,184.65,184.65,0,0,1,35.56-27.2,141.94,141.94,0,0,1,5.79,42.24c-5.36,2.1-12.46,5.23-18.18,7.92m-18.24-4.91a55.76,55.76,0,0,0-11.44,6.94,72.23,72.23,0,0,0-7.39-10.32h0c4.07-4.69,8.83-9.72,12.92-13.73a119.77,119.77,0,0,1,5.89,17.1m-19.61-4.29a55.1,55.1,0,0,0-8.29-7.81l-.37-.26-.36.27a70.32,70.32,0,0,0-9.93,8.94,112,112,0,0,0-12.88-16.47,184.42,184.42,0,0,1,21.46-37.59,168.25,168.25,0,0,1,23.56,38.86c-4.17,4.07-9,9.27-13.19,14.06m-19.82,2.13a64.58,64.58,0,0,0-7.2,9.89,73,73,0,0,0-12.24-7.59c2.05-6.22,4.57-13,6.9-18.49a111.87,111.87,0,0,1,12.54,16.19m-20.58,1.76a54.18,54.18,0,0,0-9.66-3.58l-.44-.09-.24.39a70.37,70.37,0,0,0-5.73,12,98.21,98.21,0,0,0-17.22-9.32c.56-16.3,2.72-31.7,6.35-44.68a135.78,135.78,0,0,1,34,26.32c-2.42,5.68-5,12.53-7.1,19m-16.5,10A65.68,65.68,0,0,0,792.27,239a73.68,73.68,0,0,0-13.77-2.3c-.24-5.91-.34-13.17-.17-18.86a97.4,97.4,0,0,1,16.83,9.22m-3,13.22a55.49,55.49,0,0,0,1.51,21.62c-1,1-2.08,2-3.07,3.09a71.53,71.53,0,0,0-22-.87,66.2,66.2,0,0,1-1.37-25.94,66.78,66.78,0,0,1,24.93,2.1m-46.9,8.41a176.13,176.13,0,0,0-41.91,7.06,168.47,168.47,0,0,1-17.71-45.26A167,167,0,0,1,734.37,207a158.85,158.85,0,0,0,10.84,41.73m-17.6,43.05a156.48,156.48,0,0,0-24,13.05,160.57,160.57,0,0,0-15,11.28A157,157,0,0,1,657,279.56l-.25-.41a168.33,168.33,0,0,1,46-21.9,205,205,0,0,0,24.92,34.49m-38.93,26.05A135.14,135.14,0,0,0,725,339.28,151.57,151.57,0,0,0,709.8,358.5a156.51,156.51,0,0,0-8.81,15,154.35,154.35,0,0,1-43.13-21,168.52,168.52,0,0,1,30.82-34.74m13,57.2a144.69,144.69,0,0,0,41,5.92c.49,0,1,0,1.46,0a148.59,148.59,0,0,0-7.16,25,154.22,154.22,0,0,0-2.36,17.5,149.47,149.47,0,0,1-48.21-2.5A167.5,167.5,0,0,1,701.64,375m36.53,31.21a147.56,147.56,0,0,1,7.29-25.35,154.68,154.68,0,0,0,20.1-1.69,55.92,55.92,0,0,0,.29,12.08l.08.46.45.06a70.43,70.43,0,0,0,10.38.77c.52,0,1,0,1.58-.06a101.33,101.33,0,0,0-2.14,20.59,163.11,163.11,0,0,1-40.35,10.2,152.35,152.35,0,0,1,2.32-17.06m58.43-1.15a55.1,55.1,0,0,0,4.53,10l.25.39.44-.12a70.33,70.33,0,0,0,11-3.77,122,122,0,0,0,6.7,21.12,125.51,125.51,0,0,1-34.84,26,143.41,143.41,0,0,1-4.81-18.27,136.26,136.26,0,0,1-2.46-26.52,171,171,0,0,0,19.15-8.87M814,411a65.94,65.94,0,0,0,11.29-6.59,57.7,57.7,0,0,0,8,10.69,112.17,112.17,0,0,1-12.79,16.52A119.23,119.23,0,0,1,814,411m20.16,5a72.86,72.86,0,0,0,8.61,7.49l.32.23.35-.17a46,46,0,0,0,9.89-7.85,123,123,0,0,0,13.86,16,150.18,150.18,0,0,1-23.59,38.8A149.93,149.93,0,0,1,821,432.93a113.67,113.67,0,0,0,13.17-16.87m20.07-1.23a55.23,55.23,0,0,0,7.4-9.94,58.48,58.48,0,0,0,12.39,7,158.63,158.63,0,0,1-6.32,18.54,126.57,126.57,0,0,1-13.47-15.64m21-2.4a71.83,71.83,0,0,0,9.37,3l.38.1.26-.31a44.55,44.55,0,0,0,5.73-10,149,149,0,0,0,18.19,8.53,162.59,162.59,0,0,1-5.24,43.72c-4.54-2.45-8.68-5-12.4-7.46a159.8,159.8,0,0,1-22.8-18.54,162.11,162.11,0,0,0,6.51-19M909,392.74l.4,0a73.13,73.13,0,0,0,10.66-.82l.39-.05.12-.38A45.78,45.78,0,0,0,922.06,379a125.3,125.3,0,0,0,17.83,2.26A185.24,185.24,0,0,1,953.46,424c-3.67-.47-7.18-1-10.5-1.68a185.58,185.58,0,0,1-32.54-9.48A196.52,196.52,0,0,0,909,392.74m32.27-11.4q3.06.15,6.52.15a148.11,148.11,0,0,0,26.83-2.44,139.46,139.46,0,0,0,15.17-3.69,140.52,140.52,0,0,1,16.33,46.36,150.25,150.25,0,0,1-51.39,2.46,186.63,186.63,0,0,0-13.46-42.84m21.81-43.48a123.82,123.82,0,0,0,23.17-11.35,128.94,128.94,0,0,0,16-11.84,139.18,139.18,0,0,1,32.85,35.83,140,140,0,0,1-44.67,23.37,176.11,176.11,0,0,0-27.3-36M1002.19,313a182.4,182.4,0,0,0-38.3-22.27,104.48,104.48,0,0,0,15.28-16.37,118.6,118.6,0,0,0,12-19.82A138.15,138.15,0,0,1,1033.09,274a145.61,145.61,0,0,1-30.9,39m-45.71-159.8c26.22-3.56,45.09,1.67,48,2.55a237.48,237.48,0,0,1-.4,47.51c-12.8-2.8-29.09-4.11-48.78-1.45a144.4,144.4,0,0,0-3.37-47.91c1.55-.26,3.07-.5,4.54-.7M954,202a205.4,205.4,0,0,0-44.68,12,144.67,144.67,0,0,0-5.88-42.41,148.71,148.71,0,0,1,47.23-17.43A142.57,142.57,0,0,1,954,202m-69-80.88C908,107.94,927.5,106,930.39,105.75a169.76,169.76,0,0,1,20,47.18,149.55,149.55,0,0,0-47.28,17.41A157.89,157.89,0,0,0,881.34,126c-.42-.61-.85-1.2-1.27-1.79,1.69-1.08,3.36-2.09,5-3M901.93,171a184.92,184.92,0,0,0-35.72,27.2,169,169,0,0,0-23.75-39,145.42,145.42,0,0,1,36.42-34.31,157.93,157.93,0,0,1,23,46.07M844.22,88.9c2.46,1.79,18.52,13.88,33.92,35a146.62,146.62,0,0,0-36.5,34.35,169.11,169.11,0,0,0-35.56-32.38c16.71-24.23,35.41-35.42,38.14-37m-38.85,38a167.88,167.88,0,0,1,35.49,32.37,185.22,185.22,0,0,0-21.57,37.58,137.11,137.11,0,0,0-34.22-26.3,154.75,154.75,0,0,1,20.3-43.65m-48.49-23.67a198.28,198.28,0,0,1,47.44,23A155.74,155.74,0,0,0,783.93,170a154.33,154.33,0,0,0-46.06-15.24,175.22,175.22,0,0,1,19-51.47M737.61,156h0a152.87,152.87,0,0,1,46,15.24c-3.67,13-5.87,28.42-6.46,44.77a133.53,133.53,0,0,0-24-7.55,144.72,144.72,0,0,0-17.62-2.63A165,165,0,0,1,737.61,156M684,202.4c-4.41-25.86-.59-44.22.09-47.17a194.78,194.78,0,0,1,52.31.56,166.08,166.08,0,0,0-2.15,49.89,168,168,0,0,0-48.91,3.58c-.51-2.37-1-4.67-1.34-6.86m-49.25,26.3a218.27,218.27,0,0,1,49.64-17.95,169.84,169.84,0,0,0,17.7,45.37,169.73,169.73,0,0,0-46,22,183,183,0,0,1-21.32-49.38m-16.25,85.77a178.24,178.24,0,0,1,37.19-34.61l.21.33a158.48,158.48,0,0,0,31.72,36.71,170.68,170.68,0,0,0-30.76,34.91l-.35-.24a166.75,166.75,0,0,1-38-37.1m63.25,105.34C655.13,413.09,638,400.94,635.38,399a193.82,193.82,0,0,1,21.8-45.42,155.42,155.42,0,0,0,43.24,21,168.27,168.27,0,0,0-15.28,46c-1.16-.26-2.31-.54-3.42-.82M684.14,473a198.8,198.8,0,0,1,2-50.9,149.47,149.47,0,0,0,31.91,3.43,154.27,154.27,0,0,0,16.42-.9,173,173,0,0,0,3.58,48.52,183.2,183.2,0,0,1-53.92-.15m51.61-48.5a164.69,164.69,0,0,0,40.44-10.12,138,138,0,0,0,2.47,26.19,143.88,143.88,0,0,0,4.92,18.66,150.57,150.57,0,0,1-43.19,13.57l-1.08.16a171.88,171.88,0,0,1-3.56-48.46m70,78.32c-23.94,14.49-45.44,18.95-48.8,19.58a208.28,208.28,0,0,1-17.38-48.2l1-.15A152.29,152.29,0,0,0,784,460.48a161.27,161.27,0,0,0,22.18,42.11l-.43.27m-20.62-42.95a126.51,126.51,0,0,0,35-26,153.22,153.22,0,0,0,12.52,23.65,150.87,150.87,0,0,0,10.2,13.9,153,153,0,0,1-35.55,30.44,160,160,0,0,1-22.13-42m95.35,46.33c-16.17,21.59-33.92,32.19-36.66,33.74A202.25,202.25,0,0,1,808,503a154.27,154.27,0,0,0,35.63-30.48,155.4,155.4,0,0,0,37.8,32.47l-.95,1.3m1.69-2.31a154.39,154.39,0,0,1-37.71-32.43,151.4,151.4,0,0,0,23.74-38.81A160.67,160.67,0,0,0,890.78,451c3.83,2.56,8.12,5.16,12.81,7.69a141.88,141.88,0,0,1-21.42,45.25m69.17-21.23c-7.21,25-20.74,39.07-22.74,41a177.92,177.92,0,0,1-45.36-19.15,143.1,143.1,0,0,0,21.49-45.31,155.34,155.34,0,0,0,48.45,16.06c-.56,2.59-1.18,5.05-1.84,7.36m2.09-8.58A154.2,154.2,0,0,1,905.06,458a163.63,163.63,0,0,0,5.37-43.83,186.64,186.64,0,0,0,32.25,9.36c3.47.67,7.16,1.27,11,1.75,3.36,19.44,2.38,35.8-.27,48.8m49.88.19a168.89,168.89,0,0,1-48.63,0c2.65-13.05,3.64-29.42.33-48.85a160.22,160.22,0,0,0,18.72,1.12,146.27,146.27,0,0,0,32.62-3.63c.16,1,.3,2.06.43,3.06,3.3,26.42-2.54,45.5-3.47,48.29m35-118.37c12.92,23.12,14.25,42.78,14.37,45.57a138.25,138.25,0,0,1-45.31,19.93A141.77,141.77,0,0,0,991.06,375a141.48,141.48,0,0,0,44.71-23.42q1.37,2.22,2.56,4.37m-2.24-6.22a140.52,140.52,0,0,0-32.89-35.9,146.67,146.67,0,0,0,30.93-39.07q3.11,2.24,5.79,4.43c19.92,16.24,27.37,33.37,28.37,35.84a160,160,0,0,1-32.2,34.7"/><path class="cls-5" d="M624.87,413.45v.69h-8v-.69c2.33,0,2.74-.6,2.74-4.07v-5.57c0-3.48-.41-4-2.74-4v-.7H629.5l.28,4.18h-.73l-.17-.7c-.42-1.6-.84-2.22-4-2.22h-2.71v5.18h.2c3.49,0,3.76-.42,3.76-2.74h.7v6.78h-.7c0-2.3-.27-2.75-3.76-2.75h-.2v2.58c0,3.47.41,4.07,2.74,4.07"/><path class="cls-5" d="M639.68,399.77v-.7h8v.7c-2.33,0-2.74.56-2.74,4v5c0,3.48.41,4,2.74,4h1.22c3.2,0,3.62-.59,4-2.22l.17-.7h.73l-.24,4.21H639.68v-.7c2.34,0,2.75-.59,2.75-4.06v-5.57c0-3.48-.41-4-2.75-4"/><path class="cls-5" d="M671.77,414.73a8.13,8.13,0,1,1,8.5-8.14,8.33,8.33,0,0,1-8.5,8.14m0-14.93c-4.1,0-5.63,3.8-5.63,6.79s1.53,6.79,5.63,6.79,5.64-3.76,5.64-6.79-1.53-6.79-5.64-6.79"/><path class="cls-5" d="M700.89,410.21c1.39,1.63,3,3,4.66,3.23v.7H701.1l-4.74-6.47h-1v1.71c0,3.47.42,4.06,2.75,4.06v.7h-8v-.7c2.33,0,2.75-.59,2.75-4.06v-5.57c0-3.48-.42-4-2.75-4v-.7h7.2c3.59,0,5.57,1.85,5.57,4.32,0,2.12-1.6,3.86-4.21,4.21Zm-3.52-9.88h-2v6.05h2a2.72,2.72,0,0,0,2.86-3,2.76,2.76,0,0,0-2.86-3.06"/><path class="cls-5" d="M719.14,410.77c-.87,2.05-.87,2.64,1.88,2.64v.73h-6.58v-.73c2.12,0,2.44-.41,3.59-3l5.11-11.91h.49l5.11,11.91c1.15,2.61,1.57,3,3.42,3v.73h-7.8v-.73c2.51,0,2.75-.59,1.88-2.64l-.7-1.6h-5.7Zm3.55-8.22-2.3,5.33H725Z"/><path class="cls-5" d="M741.87,399.77v-.7h8v.7c-2.33,0-2.75.56-2.75,4v5c0,3.48.42,4,2.75,4h1.22c3.2,0,3.62-.59,4-2.22l.18-.7H756l-.24,4.21H741.87v-.7c2.33,0,2.75-.59,2.75-4.06v-5.57c0-3.48-.42-4-2.75-4"/><path class="cls-5" d="M779.32,413.44c2.33,0,2.75-.59,2.75-4.06v-5.57c0-3.48-.42-4-2.75-4v-.7h7.38c5.92,0,8.49,3.41,8.49,7.52s-2.57,7.55-8.49,7.55h-7.38Zm7.48-13.11h-2.26v9.88c0,2.26.25,2.64,2,2.64h.28c4.6,0,5.5-3.47,5.5-6.26s-.9-6.26-5.5-6.26"/><path class="cls-5" d="M817.5,410.63l.18-.7h.69l-.28,4.21h-13v-.69c2.33,0,2.74-.6,2.74-4.08v-5.56c0-3.48-.41-4-2.74-4v-.7h12.18l.28,4.18h-.74l-.17-.7c-.38-1.6-.84-2.22-4-2.22h-2.34v5.18h.21c3.49,0,3.76-.42,3.76-2.74h.7v6.78h-.7c0-2.3-.27-2.75-3.76-2.75h-.21v2c0,3.48.42,4,2.75,4h.42c3.17,0,3.62-.59,4-2.22"/><path class="cls-5" d="M834.68,414.73a7.25,7.25,0,0,1-3.89-1.28,2.68,2.68,0,0,0-.66,1.28h-.63v-6h.69c.28,2.95,2.16,4.63,4.77,4.63a2.39,2.39,0,0,0,2.68-2.33c0-1.22-1-2.16-2.85-3.1l-2.37-1.22a4.8,4.8,0,0,1-2.89-4.24,4.11,4.11,0,0,1,4.35-4,5.67,5.67,0,0,1,3.31,1,2,2,0,0,0,.52-1.08h.7v5.88h-.7c-.21-2.08-1.15-4.56-3.65-4.56-1.36,0-2.51.74-2.51,2s.91,1.88,3,3l2.33,1.21a4.44,4.44,0,0,1,2.72,3.94,4.75,4.75,0,0,1-5,4.76"/><path class="cls-5" d="M849.61,414.14v-.7c2.33,0,2.75-.58,2.75-4.06v-5.57c0-3.48-.42-4-2.75-4v-.7h8v.7c-2.34,0-2.75.56-2.75,4v5.57c0,3.48.41,4.06,2.75,4.06v.7Z"/><path class="cls-5" d="M875.32,414.73a8.13,8.13,0,0,1,0-16.25,6.3,6.3,0,0,1,4.6,2.3,5.57,5.57,0,0,0,.62-1.7h.67v6h-.7c-.66-3.23-2.51-5.29-5.19-5.29-3.89,0-5.11,3.87-5.11,6.79s1.22,6.79,5.11,6.79c1.74,0,4.43-1.08,4.43-3,0-1.39-1.29-2.12-3-2.12v-.7h7.69v.7c-2.33,0-2.75.59-2.75,4.07v1c-2.19,0-4.35,1.32-6.37,1.32"/><path class="cls-5" d="M893.13,399.77v-.7h4.27l9.26,11v-6.26c0-3.48-.41-4-2.75-4v-.7h6.79v.7c-2.33,0-2.75.56-2.75,4V414.7h-.66l-10.13-12.14v6.82c0,3.47.42,4.06,2.75,4.06v.7h-6.78v-.7c2.33,0,2.75-.59,2.75-4.06v-5.57c0-3.48-.42-4-2.75-4"/><path class="cls-5" d="M941.68,414.73a7.29,7.29,0,0,1-3.9-1.28,2.68,2.68,0,0,0-.66,1.28h-.63v-6h.7c.28,2.95,2.15,4.63,4.77,4.63a2.38,2.38,0,0,0,2.67-2.33c0-1.22-1-2.16-2.85-3.1l-2.37-1.22a4.79,4.79,0,0,1-2.88-4.24,4.1,4.1,0,0,1,4.35-4,5.64,5.64,0,0,1,3.3,1,1.9,1.9,0,0,0,.52-1.08h.7v5.88h-.7c-.21-2.08-1.15-4.56-3.65-4.56-1.36,0-2.51.74-2.51,2s.91,1.88,3,3L943.9,406a4.44,4.44,0,0,1,2.72,3.94,4.74,4.74,0,0,1-4.94,4.76"/><path class="cls-5" d="M960.47,400.43c-3.2,0-3.48.59-3.9,2.23l-.18.69h-.69l.21-4.28h15.52l.24,4.28h-.73l-.17-.69c-.42-1.64-.84-2.23-4-2.23h-1.81v8.95c0,3.47.45,4.07,2.79,4.07v.69h-8v-.69c2.34,0,2.79-.6,2.79-4.07v-8.95Z"/><path class="cls-5" d="M990.33,413.17c2.44,0,4.25-1.4,4.25-4.42v-4.94c0-3.48-.42-4-2.75-4v-.7h7.1v.7c-2.3,0-2.75.56-2.75,4v4.69c0,4.08-2.82,6.2-6.23,6.2a5.82,5.82,0,0,1-6.19-6.2v-4.69c0-3.48-.42-4-2.75-4v-.7h8v.7c-2.3,0-2.75.56-2.75,4v4.94c0,3,1.67,4.42,4.1,4.42"/><path class="cls-5" d="M1009.11,413.44c2.33,0,2.75-.59,2.75-4.06v-5.57c0-3.48-.42-4-2.75-4v-.7h7.38c5.92,0,8.49,3.41,8.49,7.52s-2.57,7.55-8.49,7.55h-7.38Zm7.49-13.11h-2.27v9.88c0,2.26.25,2.64,2,2.64h.28c4.59,0,5.49-3.47,5.49-6.26s-.9-6.26-5.49-6.26"/><path class="cls-5" d="M1034.87,414.14v-.7c2.33,0,2.75-.58,2.75-4.06v-5.57c0-3.48-.42-4-2.75-4v-.7h8v.7c-2.33,0-2.75.56-2.75,4v5.57c0,3.48.42,4.06,2.75,4.06v.7Z"/><path class="cls-5" d="M1061.21,414.73a8.13,8.13,0,1,1,8.49-8.14,8.34,8.34,0,0,1-8.49,8.14m0-14.93c-4.1,0-5.64,3.8-5.64,6.79s1.54,6.79,5.64,6.79,5.64-3.76,5.64-6.79-1.53-6.79-5.64-6.79"/><path class="cls-5" d="M605.46,288.37a24.61,24.61,0,0,0-8.92,8.51c-1-7-3-9.74-3.26-10.11l-4.61,3.62s2.61,4.05,2.61,15.66c0,18.35.21,34.49.22,34.66l5.86-.08c0-.15-.19-13.83-.21-30.3,2.2-8.32,5.91-14,11-16.76a18.17,18.17,0,0,1,13.14-1.35l1.87-5.55a23.81,23.81,0,0,0-17.73,1.7"/><path class="cls-5" d="M653.43,284.35c-10.47.33-28.08,7-27.64,30.16.17,9.28,3,16.57,8.28,21.66,7,6.67,16.16,7.54,20.49,7.54h.76c9.17-.22,22.28-4.49,22.84-4.67l-1.83-5.57c-.13,0-12.84,4.18-21.15,4.38-3.2.09-11.25-.34-17-5.9-3.64-3.49-5.77-8.45-6.34-14.78l52.27-.44v-2.91c0-9-2.69-16.22-8-21.36-8.36-8.12-20.31-8.17-22.62-8.1m-21.71,26.94c1.37-19.84,19.71-21,21.89-21.08h.63c2.87,0,11.62.52,17.73,6.46,3.57,3.46,5.62,8.24,6.11,14.25Z"/><path class="cls-5" d="M724.05,285c-9.81,0-17.72,3.27-22.95,9.24V263.13h-5.86v74.22l1.54.83c.41.22,10.11,5.31,26.19,5.31,18,0,28.38-10.35,28.38-28.38,0-18.57-10.46-30.11-27.3-30.11M723,337.62a58.54,58.54,0,0,1-21.87-3.91V306.44c2.88-10.05,11-15.58,22.95-15.58,13.42,0,21.44,9.07,21.44,24.25,0,18.61-12.25,22.51-22.52,22.51"/><path class="cls-5" d="M882.78,284.57A33.25,33.25,0,0,0,859,294.91a34.5,34.5,0,0,0-2.76-8.36l-5.18,2.75c0,.06,3.11,6.06,3.11,15.67,0,10.43-.43,60.29-.43,60.79l5.86.05c0-.25.11-13.5.22-27.75a41,41,0,0,0,21,5.64c18.45,0,29-10.42,29-28.59,0-21-14-30.54-27.09-30.54m-1.94,53.27A34.24,34.24,0,0,1,859.9,331c.08-11.2.15-21.82.15-26,0-.32,0-.63,0-1,2.2-6.49,11.94-13.59,22.75-13.59,10.23,0,21.23,7.72,21.23,24.68,0,18.78-12.6,22.73-23.17,22.73"/><path class="cls-5" d="M1014.57,335.83a30.38,30.38,0,0,1-8,1.58,10.91,10.91,0,0,1-8.24-2.77c-1.94-1.63-2.65-9.05-2.41-13.93V291.94h20.79v-5.87H995.93V275h-5.87v11.08h-4.83v5.87h4.84v28.62c-.12,2.37-.47,14.39,4.49,18.57a16.66,16.66,0,0,0,12,4.14c1.67,0,9.76-1,11.78-3l-4.14-4.15a1.24,1.24,0,0,1,.35-.28"/><path class="cls-5" d="M1052.52,285.43a55.72,55.72,0,0,0-22.63,4.61l2.56,5.27a50.84,50.84,0,0,1,20.07-4c11,0,20.27,1.6,21.14,20H1047c-.47,0-11.77-.12-18,6a13.44,13.44,0,0,0-4.07,10,13.6,13.6,0,0,0,4.06,10c5.93,5.9,16.44,6.19,17.84,6.2,1,.07,2.08.12,3.23.12,7.83,0,18.62-2.07,24.91-9,.61,3.85,1.52,6.82,2.86,8l3.82-4.44s-2-5.47-2-23.88c0-25.32-13-28.81-27.09-28.81m-5.37,52.2h-.25c-2.58,0-10.07-.76-13.82-4.49a7.82,7.82,0,0,1-2.32-5.84,7.71,7.71,0,0,1,2.3-5.79c4.47-4.4,13.73-4.32,13.86-4.32h26.85c0,2.08.07,4.22.16,6.33-2.5,15.87-26.53,14.14-26.78,14.12"/><path class="cls-5" d="M788.87,284.57c-10.47.33-28.07,7.05-27.64,30.16.18,9.27,3,16.56,8.29,21.66,7,6.66,16.16,7.53,20.48,7.53h.76c9.17-.22,22.29-4.49,22.84-4.68l-1.82-5.57c-.13,0-12.86,4.19-21.16,4.38-3.2.09-11.25-.33-17-5.89-3.64-3.49-5.77-8.45-6.33-14.79l52.26-.44V314c0-9-2.69-16.22-8-21.37-8.37-8.11-20.32-8.17-22.63-8.09m-21.7,26.94c1.36-19.84,19.7-21,21.89-21.08h.62c2.87,0,11.62.52,17.74,6.45,3.57,3.46,5.62,8.25,6.1,14.25Z"/><path class="cls-5" d="M947.39,284.78c-10.47.33-28.07,7.05-27.64,30.16.18,9.28,3,16.57,8.28,21.66,7,6.67,16.16,7.54,20.49,7.54h.76c9.17-.22,22.29-4.49,22.84-4.67l-1.83-5.57c-.12,0-12.84,4.18-21.15,4.38-3.21.08-11.24-.34-17-5.9-3.64-3.49-5.77-8.45-6.33-14.79l52.26-.43v-2.91c0-9-2.69-16.22-8-21.36-8.38-8.12-20.31-8.16-22.63-8.1m-21.71,26.94c1.37-19.84,19.71-21,21.89-21.07h.64c2.87,0,11.61.52,17.72,6.45,3.57,3.46,5.62,8.24,6.11,14.25Z"/><rect class="cls-5" x="831.12" y="263.13" width="5.86" height="77.64"/><rect class="cls-5" x="1092.08" y="263.99" width="5.86" height="77.64"/></g><g id="flower"><g id="inside_petals" data-name="inside petals"><path class="cls-6" d="M300.93,386.19c-7.54,13.5-21.77,24.05-39.16,28.41,0,0-12.77-20-7.14-47.9"/><path class="cls-6" d="M305.9,242.46c14.33-26.37,39.23-28.55,39.23-28.55,9.78,16.34,11.21,31.72,7.16,47.93"/><path class="cls-6" d="M273.61,379.76c-12.14,9.59-29.32,13.89-47.06,11.26,0,0-4.13-23.38,11.74-47"/><path class="cls-6" d="M333.2,248.88c23.33-18.89,47.17-11.37,47.17-11.37,2.79,18.84-1.78,33.59-11.72,47"/><path class="cls-6" d="M250.83,363.37c-14.89,4.21-32.41,1.61-47.79-7.61,0,0,5.13-23.18,28.82-38.91"/><path class="cls-6" d="M356,265.25c28.78-8.52,47.93,7.55,47.93,7.55-4.64,18.47-14.51,30.35-28.83,38.95"/><path class="cls-6" d="M236.05,339.5c-15.36-1.8-30.55-10.91-41.24-25.31,0,0,13.62-19.46,41.52-24.92"/><path class="cls-6" d="M370.73,289.09c29.86,3.15,41.4,25.32,41.4,25.32-11.35,15.29-25,22.49-41.54,24.95"/><path class="cls-6" d="M231.53,311.8c-13.5-7.55-24.05-21.77-28.41-39.17,0,0,20-12.76,47.9-7.13"/><path class="cls-6" d="M375.26,316.77C401.63,331.1,403.81,356,403.81,356c-16.34,9.78-31.72,11.2-47.92,7.16"/><path class="cls-6" d="M238,284.48c-9.58-12.14-13.89-29.32-11.26-47.06,0,0,23.39-4.13,47,11.74"/><path class="cls-6" d="M368.84,344.07c18.89,23.33,11.37,47.17,11.37,47.17-18.84,2.78-33.59-1.79-47-11.72"/><path class="cls-6" d="M254.35,261.69c-4.2-14.88-1.61-32.4,7.61-47.78,0,0,23.19,5.13,38.92,28.82"/><path class="cls-6" d="M352.47,366.83c8.52,28.79-7.55,47.94-7.55,47.94-18.47-4.64-30.35-14.51-38.95-28.83"/><path class="cls-6" d="M278.22,246.92c1.81-15.36,10.91-30.55,25.31-41.24,0,0,19.46,13.62,24.93,41.52"/><path class="cls-6" d="M328.63,381.6c-3.15,29.86-25.32,41.4-25.32,41.4-15.29-11.36-22.49-25-24.95-41.54"/></g><g id="outside_petals" data-name="outside petals"><path class="cls-6" d="M242.08,171.3c-5.06,17.6-7.57,40.51-6.54,64.92"/><path class="cls-6" d="M365,235C378.65,141.63,302,88.6,302,88.6s-20.7,11-39.09,37.89"/><path class="cls-6" d="M194.82,155.61c-6,30-5.53,70.4,17.28,111.28"/><path class="cls-6" d="M330.21,218.39s-11.63-54.48-67.38-92"/><path class="cls-6" d="M195.41,155.84a193.52,193.52,0,0,0-54.22-.69S120.86,232,200.49,307.09"/><path class="cls-6" d="M291.1,216.49s-15-26.92-49.06-45.12"/><path class="cls-6" d="M254.38,227.93s-62.27-49.28-162.79,1c0,0,21.7,98.36,114.39,117.29"/><path class="cls-6" d="M225.53,250.58s-86.95-13.84-150.26,64.49c0,0,52.85,79,148.8,64"/><path class="cls-6" d="M206.46,285.87s-81.58,15.5-114.22,114.06c0,0,70.47,55.12,163.81,4.21"/><path class="cls-6" d="M201.63,324s-69.57,44.62-60.44,150.36c0,0,101.32,19.69,151.58-59.95"/><path class="cls-6" d="M212.42,361.46S166,428,214.3,524c0,0,92.42-15.16,118.53-112.42"/><path class="cls-6" d="M236.79,392.8s-21,79.56,64.74,148.76c0,0,77.72-41.46,64.67-148.51"/><path class="cls-6" d="M271.07,411.29s14.38,86.55,115.56,114c0,0,61-56.63,2.26-162.37"/><path class="cls-6" d="M311.59,416s49.58,74,150.1,59.66c0,0,29-79.71-57.84-152.16"/><path class="cls-6" d="M348.77,405.15s84.2,50.26,162.53-2.61c0,0-1.31-83.55-111.62-118.8"/><path class="cls-6" d="M381.47,379.34s87.4,20.59,145.5-63.62c0,0-27.42-74.41-146.87-67.88"/><path class="cls-6" d="M402.29,303.32S473.44,275.91,463,155.8c0,0-79.05-26.47-152.16,57.73"/><path class="cls-6" d="M389.89,265.47s53.52-69.85-1.3-159.93c0,0-83.14,4-118.39,111.73"/><path class="cls-6" d="M399,343.36s82.68-6.53,110.53-114.45c0,0-51.35-57.44-160.14-6.09"/><path class="cls-7" d="M194.8,155.72c6.35-31.77,19.5-52.79,19.5-52.79A198.88,198.88,0,0,1,263,126.49h0A155.15,155.15,0,0,0,242,171.37h0a152.8,152.8,0,0,0-47.24-15.65Z"/></g><path class="cls-6" d="M374.22,313.77A71.8,71.8,0,1,1,302.42,242,71.8,71.8,0,0,1,374.22,313.77Z"/></g><g id="rebel_petal" data-name="rebel petal"><path class="cls-8" d="M55.12,284.33s3.16,4,3.16,17.06c0,18.1.21,33.79.21,33.79"/><path class="cls-8" d="M85.64,285.18s-20.42-6.95-27.36,20"/><path class="cls-8" d="M139.33,330.86s-12.85,4.21-21.48,4.42S92.38,331.91,92,309.6s17.47-26.32,24.21-26.53,27,2.32,27,25.9l-50.32.42"/><path class="cls-8" d="M159.75,259.49v70.74s9.05,4.84,24.21,4.84,24.84-8.21,24.84-24.84S199.54,283.7,185,283.7s-22.53,7.58-25.26,17.69"/><path class="cls-9" d="M315.92,359.71l-2.87,0c0-.35.22-24.92.34-42.82l2.88-2.7C316.15,332.19,315.92,359.35,315.92,359.71Z"/><path class="cls-9" d="M338.07,336.71c-14.71,0-23.3-7.73-23.66-8.06l1.93-2.11-1,1.06,1-1.06c.08.08,8.19,7.31,21.73,7.31,9,0,24-3.07,24-23.62,0-14.07-7.4-22-15.83-24.57l2.27-2.27c8.9,3.3,16.42,12,16.42,26.84C365,327.06,355.16,336.71,338.07,336.71Z"/><path class="cls-8" d="M447.54,271.07V315.7s-.63,12.42,3.37,15.79a13.53,13.53,0,0,0,9.89,3.37c2.53,0,8.63-1.27,9.48-2.11"/><line class="cls-8" x1="439.96" y1="284.75" x2="470.7" y2="284.75"/><path class="cls-8" d="M484.8,288.33a51.88,51.88,0,0,1,20.85-4.21c12.21,0,23.57,2.32,23.57,25.26s2.95,25.48,2.95,25.48"/><path class="cls-8" d="M528,309.39H500.17s-18.63-.32-18.63,12.73,18.63,12.95,18.63,12.95,26.66,2.2,29.26-16.53"/><path class="cls-9" d="M249.39,336.93c-4,0-12.58-.8-19-7-4.91-4.7-7.48-11.48-7.64-20.13-.41-21.45,15.9-27.69,25.59-28,2.16-.06,13.29,0,21,7.5,4.89,4.74,7.38,11.42,7.38,19.83v1.42l-51.12.42c.36,7.27,2.61,13,6.72,16.88,6.06,5.8,14.37,6.24,17.67,6.16a48.93,48.93,0,0,0,7.53-.89L254,336.62c-1.35.16-2.66.27-3.9.3Zm-.32-52.23h-.65c-2.32.07-22.3,1.35-22.82,23.45l48.27-.4c-.26-6.94-2.44-12.43-6.48-16.36C261,285.24,252,284.7,249.07,284.7Z"/><path class="cls-8" d="M426.27,331.28s-12.84,4.21-21.47,4.42-25.48-3.37-25.9-25.68,17.48-26.32,24.21-26.53,26.95,2.32,26.95,25.9l-50.31.42"/><polygon class="cls-9" points="290.95 301.29 290.95 259.49 293.82 259.49 293.82 298.59 290.95 301.29"/><line class="cls-8" x1="547.12" y1="260.33" x2="547.12" y2="336.12"/></g><text class="cls-10" transform="translate(95.06 399.99)"><tspan class="cls-11">f</tspan><tspan x="18.13" y="0">loral design studios</tspan></text></svg>