<svg xmlns="http://www.w3.org/2000/svg"><symbol id="icons-insta" viewBox="0 0 360 360"><defs><style>.cls-1{fill:#58595b}</style></defs><path d="M257.06 156.31c-.09-5.62-.46-11.23-.71-16.85-.93-21.39-13.74-35.14-35-35.63q-41.41-1-82.87 0c-20.91.5-34.25 13.94-34.71 34.81q-.92 41.42 0 82.87c.48 20.85 14 34.26 34.82 34.71q41.43.9 82.87 0c19.41-.41 31.72-11.34 34.09-30.68 1.84-14.96 1.63-61.27 1.51-69.23zm-77.13 72a48.32 48.32 0 1 1 48.36-48.15 48.4 48.4 0 0 1-48.36 48.18zm50.23-87.2a11.28 11.28 0 1 1 0-22.55 11.25 11.25 0 0 1 11.24 11.24 11.37 11.37 0 0 1-11.24 11.34zm-50.27 7.49a31.39 31.39 0 1 0 31.48 31.2 31.65 31.65 0 0 0-31.48-31.17z" class="cls-1"/><path d="M307.28 52.72A180 180 0 1 0 360 180a179.47 179.47 0 0 0-52.72-127.28zm-34.16 168.59c-.89 31-21.47 51.23-52.56 51.93q-40.5.9-81 0c-31.45-.67-52.06-21.27-52.75-52.75q-.89-40.5 0-81c.7-31.43 21.36-51.73 52.86-52.69 13.41-.4 71.62-1 87.07.81 28.52 3.37 45.69 22.38 46.43 51.3.67 27.42.73 54.93-.05 82.4z" class="cls-1"/></symbol><symbol id="icons-linkedin" viewBox="0 0 360 360"><defs><style>.cls-1{fill:#58595b}</style></defs><path d="M307.28 52.72A180 180 0 1 0 360 180a179.47 179.47 0 0 0-52.72-127.28zm-179 216.94H89V149.18h39.31zM108.92 132c-13.2.08-22.52-8.43-22.6-20.63-.08-12 9.41-20.9 22.45-21 12.89-.16 22.42 8.66 22.53 20.86S122.2 132 108.92 132zm164.72 133.78c0 1.15-.16 2.3-.27 3.83H233.5v-20.82c0-14.65.07-29.31 0-44a56.31 56.31 0 0 0-1.1-10.59c-2.18-10.85-9.21-16.87-19.14-16.71-10.24.17-19.44 7.5-21.31 17.38a61.93 61.93 0 0 0-.85 11.23c-.08 21 0 41.95 0 63.32h-39.55V149.08h39.24v16.06a24.73 24.73 0 0 0 2.59-2.29c11.89-16.09 28.22-19.52 46.53-15.33 17.94 4.11 27.65 16.74 31.58 34.06a84.48 84.48 0 0 1 2 17.64c.29 22.19.16 44.37.15 66.56z" class="cls-1"/></symbol><symbol id="icons-society6" viewBox="0 0 360 360"><defs><style>.cls-1{fill:#58595b}</style></defs><path d="M163.25 172.87c-.82 8-1.6 15.83-2.3 22.62-12.31-6.08-25.36-12-37.84-18.85-10-5.53-11.11-17.09-2.56-23.4 3.67-2.72 8.6-3.73 13.7-5.82 2.75 24.13 10.75 30.78 29 25.45zm75.39 10.34c4.45 19.24-.58 36.7-13.55 51.36-8.63 9.78-18.47 8.32-24.37-3.5-3.49-7-5-14.89-7.39-22.39 1.71-13.35 5.17-25 14.66-34.09 11.73-11.25 27.01-7.16 30.65 8.62z" class="cls-1"/><path d="M307.28 52.72A180 180 0 1 0 360 180a179.47 179.47 0 0 0-52.72-127.28zM193.1 244.06c-12.95-4.35-21.91-12.94-28.1-26.06-3.95 20-18.07 26.67-34.55 28.17-13.43 1.19-27.24.3-40.67-1.37-5.94-.73-12-4.9-16.85-9-4.54-3.84-5.18-10-1.68-15.37 3.4-5.19 8.72-6.73 14.72-5.62 7.74 1.42 13.21 6 16.58 13 1.9 3.89 3.14 8.12 4.68 12.22 9 .9 17.42-4 20.14-11.82 2.92-8.31.81-14-8-19.58-7.36-4.68-15.23-8.59-22.55-13.35-9.53-6.23-15.72-14.76-14.18-26.79C84.26 156 92.73 149 103.89 146c22.84-6.09 45.19-6.37 65.41 9.68 15.64-31.1 42.59-47.47 74.88-56.26 9.08-2.48 18.62-5.55 28.8-1.46-2 7.38-7.19 9.17-13.18 10.09-27.56 4.26-42.13 22.85-51.62 47a8.07 8.07 0 0 0-.36 2.34c10.31-2.72 20.52-6.19 31-7.85 6.76-1.06 14.15-.33 20.9 1.17 12.13 2.73 18.88 12.47 19.86 26.55 3.02 42.86-45.78 80.48-86.48 66.8z" class="cls-1"/></symbol></svg>