<svg id="Layer_1" data-name="Layer 1" xmlns="http://www.w3.org/2000/svg" viewBox="0 0 360 360"><defs><style>.cls-1{fill:#fff;}</style></defs><title>icons</title><path class="cls-1" d="M257.06,156.31c-.09-5.62-.46-11.23-.71-16.85-.93-21.39-13.74-35.14-35-35.63q-41.41-1-82.87,0c-20.91.5-34.25,13.94-34.71,34.81q-.92,41.42,0,82.87c.48,20.85,14,34.26,34.82,34.71q41.43.9,82.87,0c19.41-.41,31.72-11.34,34.09-30.68C257.39,210.58,257.18,164.27,257.06,156.31Zm-77.13,72a48.32,48.32,0,1,1,48.36-48.15A48.4,48.4,0,0,1,179.93,228.34Zm50.23-87.2a11.28,11.28,0,1,1,0-22.55,11.25,11.25,0,0,1,11.24,11.24A11.37,11.37,0,0,1,230.16,141.14Zm-50.27,7.49a31.39,31.39,0,1,0,31.48,31.2A31.65,31.65,0,0,0,179.89,148.63Z"/><path class="cls-1" d="M307.28,52.72A180,180,0,1,0,360,180,179.47,179.47,0,0,0,307.28,52.72ZM273.12,221.31c-.89,31-21.47,51.23-52.56,51.93q-40.5.9-81,0c-31.45-.67-52.06-21.27-52.75-52.75q-.89-40.5,0-81c.7-31.43,21.36-51.73,52.86-52.69,13.41-.4,71.62-1,87.07.81,28.52,3.37,45.69,22.38,46.43,51.3C273.84,166.33,273.9,193.84,273.12,221.31Z"/></svg>