<svg id="Layer_1" data-name="Layer 1" xmlns="http://www.w3.org/2000/svg" viewBox="0 0 360 360"><defs><style>.cls-1{fill:#fff;}</style></defs><title>icons</title><path class="cls-1" d="M163.25,172.87c-.82,8-1.6,15.83-2.3,22.62-12.31-6.08-25.36-12-37.84-18.85-10-5.53-11.11-17.09-2.56-23.4,3.67-2.72,8.6-3.73,13.7-5.82C137,171.55,145,178.2,163.25,172.87Z"/><path class="cls-1" d="M238.64,183.21c4.45,19.24-.58,36.7-13.55,51.36-8.63,9.78-18.47,8.32-24.37-3.5-3.49-7-5-14.89-7.39-22.39,1.71-13.35,5.17-25,14.66-34.09C219.72,163.34,235,167.43,238.64,183.21Z"/><path class="cls-1" d="M307.28,52.72A180,180,0,1,0,360,180,179.47,179.47,0,0,0,307.28,52.72ZM193.1,244.06C180.15,239.71,171.19,231.12,165,218c-3.95,20-18.07,26.67-34.55,28.17-13.43,1.19-27.24.3-40.67-1.37-5.94-.73-12-4.9-16.85-9-4.54-3.84-5.18-10-1.68-15.37,3.4-5.19,8.72-6.73,14.72-5.62,7.74,1.42,13.21,6,16.58,13,1.9,3.89,3.14,8.12,4.68,12.22,9,.9,17.42-4,20.14-11.82,2.92-8.31.81-14-8-19.58-7.36-4.68-15.23-8.59-22.55-13.35-9.53-6.23-15.72-14.76-14.18-26.79C84.26,156,92.73,149,103.89,146c22.84-6.09,45.19-6.37,65.41,9.68,15.64-31.1,42.59-47.47,74.88-56.26,9.08-2.48,18.62-5.55,28.8-1.46-2,7.38-7.19,9.17-13.18,10.09-27.56,4.26-42.13,22.85-51.62,47a8.07,8.07,0,0,0-.36,2.34c10.31-2.72,20.52-6.19,31-7.85,6.76-1.06,14.15-.33,20.9,1.17,12.13,2.73,18.88,12.47,19.86,26.55C282.6,220.12,233.8,257.74,193.1,244.06Z"/></svg>