<svg id="Layer_1" data-name="Layer 1" xmlns="http://www.w3.org/2000/svg" viewBox="0 0 360 360"><defs><style>.cls-1{fill:#fff;}</style></defs><title>icons</title><path class="cls-1" d="M307.28,52.72A180,180,0,1,0,360,180,179.47,179.47,0,0,0,307.28,52.72Zm-179,216.94H89V149.18h39.31ZM108.92,132c-13.2.08-22.52-8.43-22.6-20.63-.08-12,9.41-20.9,22.45-21,12.89-.16,22.42,8.66,22.53,20.86S122.2,132,108.92,132ZM273.64,265.78c0,1.15-.16,2.3-.27,3.83H233.5V248.79c0-14.65.07-29.31,0-44a56.31,56.31,0,0,0-1.1-10.59c-2.18-10.85-9.21-16.87-19.14-16.71-10.24.17-19.44,7.5-21.31,17.38a61.93,61.93,0,0,0-.85,11.23c-.08,21,0,41.95,0,63.32H151.55V149.08h39.24v16.06a24.73,24.73,0,0,0,2.59-2.29c11.89-16.09,28.22-19.52,46.53-15.33,17.94,4.11,27.65,16.74,31.58,34.06a84.48,84.48,0,0,1,2,17.64C273.78,221.41,273.65,243.59,273.64,265.78Z"/></svg>