<?xml version="1.0" encoding="utf-8"?>
<!-- Generator: Adobe Illustrator 22.0.1, SVG Export Plug-In . SVG Version: 6.00 Build 0)  -->
<svg version="1.1" id="Layer_1" xmlns="http://www.w3.org/2000/svg" xmlns:xlink="http://www.w3.org/1999/xlink" x="0px" y="0px"
	 viewBox="0 0 360 360" style="enable-background:new 0 0 360 360;" xml:space="preserve">
<style type="text/css">
	.st0{fill:#FFFFFF;}
</style>
<title>icons</title>
<g>
	<g>
		<path class="st0" d="M169.1,0c7.3,0,14.6,0,21.9,0c0.8,0.2,1.7,0.4,2.5,0.5c9,1.4,18,2.3,26.9,4.2c19,4,36.7,11.4,53.3,21.5
			c21,12.8,38.7,29.3,53,49.4c17.1,24.1,27.7,50.8,31.7,80.1c0.6,4.4,1.2,8.9,1.7,13.3c0,7.3,0,14.6,0,21.9
			c-0.2,0.8-0.4,1.7-0.5,2.5c-1.4,9-2.4,18-4.2,26.9c-2.9,14.4-8.1,28.1-14.8,41.2c-13.4,26.1-32,47.8-55.9,64.8
			c-24.2,17.3-51.1,28-80.6,31.9c-4.3,0.6-8.7,1.1-13,1.7c-7.3,0-14.6,0-21.9,0c-4.3-0.6-8.7-1.2-13-1.7c-20.4-2.5-39.6-8.6-57.9-18
			c-26-13.4-47.6-31.9-64.6-55.7c-17.3-24.2-28-51.1-31.9-80.6c-0.6-4.4-1.1-8.7-1.7-13.1c0-7.3,0-14.6,0-21.9
			c0.2-0.8,0.4-1.7,0.5-2.5c1.4-8.9,2.2-17.9,4.1-26.6c6.5-30,20.4-56.4,40.7-79.4c11.4-12.9,24.5-23.9,39.1-33.1
			c22-13.7,45.8-22.4,71.6-25.8C160.4,1.2,164.7,0.6,169.1,0z M81.3,170.7c5.8-2.7,10.9-5.7,16.3-7.6c5.4-1.9,8-0.3,10,5
			c2.3,6.2,4.6,12.4,6.6,18.7c7.4,23.3,14.7,46.6,22,69.8c3.4,10.7,7.2,21.2,15.7,29.3c10.9,10.3,23.3,13.7,36.8,4.2
			c12.6-8.8,24-19.1,34.8-29.9c12.3-12.3,23.8-25.5,33.3-40.2c6.2-9.7,12.1-19.8,17.3-30.1c5.5-11,9.4-22.7,11.4-34.8
			c1-6.4,1.5-13.2,0.7-19.7c-1.7-13.8-10.4-22.4-23.8-25.3c-10.8-2.4-21.1-0.2-30.8,4.2c-17.3,7.8-29.1,20.8-34.6,39.1
			c-0.5,1.7-0.7,3.4-1.1,5.6c3.1-1.3,5.5-2.4,8-3.3c11.6-4.1,21.3,2.3,21.3,14.6c0,4.9-1,10.2-3,14.7c-5,11.2-11.3,21.7-18.8,31.5
			c-2.6,3.4-5.7,6.4-9,9.2c-2.9,2.4-4.8,2.2-7.1-0.8c-1.9-2.6-3.4-5.5-4.5-8.6c-7.6-21.2-11.7-43.2-15.5-65.3
			c-1.8-10.4-3.9-20.7-9.4-30c-4.2-6.9-9.9-11-18.4-10.2c-7,0.7-13.3,3.6-19.2,7.2C102.6,129,88,143.3,74.4,158.7
			c-0.4,0.5-0.8,1.7-0.5,2.2C76.4,164.3,79,167.7,81.3,170.7z"/>
	</g>
</g>
</svg>
