<svg id="Layer_1" data-name="Layer 1" xmlns="http://www.w3.org/2000/svg" viewBox="0 0 1603.53 427.7"><defs><style>.cls-1{fill:#ed2a91;}</style></defs><title>new_logo</title><path class="cls-1" d="M492.35,212.82c0,.33,0,.65,0,1s0,.46,0,.7v.43l0,1.58a215.7,215.7,0,0,1-368.18,148A214.29,214.29,0,0,1,61,212a8.5,8.5,0,0,1,17,0c0,109.56,89.14,198.7,198.71,198.7,78.46,0,146.44-45.71,178.71-111.91a117.9,117.9,0,0,1-198.94-85.7,8.5,8.5,0,1,1,17,0,101,101,0,0,0,201.88,3.23c0-.58,0-1.17,0-1.76,0-.24,0-.48,0-.73s0-.5,0-.74a8.5,8.5,0,0,1,17-.27Z"/><path class="cls-1" d="M492.36,213.09c0,.24,0,.47,0,.7,0-.32,0-.64,0-1A2.44,2.44,0,0,1,492.36,213.09Z"/><path class="cls-1" d="M789.48,134.28c0-41.87-13.21-76.55-38.21-100.3C729.09,12.9,698.28,1.3,664.51,1.3a117.8,117.8,0,0,0-108.7,72.05A8.5,8.5,0,0,0,571.47,80a100.84,100.84,0,0,1,93-61.68c29.39,0,56,9.94,75,28,21.54,20.46,32.92,50.89,32.92,88l.13,58.1a118,118,0,0,0-101.09-57.23,115.71,115.71,0,0,0-83,34.59,119.2,119.2,0,0,0,0,166.75,115.71,115.71,0,0,0,83,34.59,118,118,0,0,0,101.36-57.67l.23,105.29a8.5,8.5,0,0,0,8.5,8.48h0a8.5,8.5,0,0,0,8.49-8.52Zm-118,219.81a98.85,98.85,0,0,1-70.86-29.53,102.2,102.2,0,0,1,0-142.87,98.85,98.85,0,0,1,70.86-29.53,101,101,0,0,1,0,201.93Z"/><path class="cls-1" d="M360.48,360.75a8.49,8.49,0,0,1-8.48,8.09h-.41c-46.68-2.21-81.4-16.93-106.16-45-21.5-24.38-32.29-54.67-42.73-84C194,215.53,185.84,192.54,172.31,176c-14.52-17.73-33.89-26-61-26-28.25,0-52.14,10.25-69.09,29.65-16,18.36-24.87,44-24.87,72.31,0,.88-.38,165.68-.38,165.68a8.5,8.5,0,0,1-17,0V8.5a8.5,8.5,0,0,1,17,0V169.56L183.59,3a8.5,8.5,0,1,1,12,12l-125,125.05a116.56,116.56,0,0,1,40.78-7c71.34,0,89.66,51.4,107.37,101.11,9.9,27.78,20.14,56.5,39.47,78.42,21.56,24.45,52.37,37.29,94.21,39.27A8.51,8.51,0,0,1,360.48,360.75Z"/><path class="cls-1" d="M738.74,114.33a8.5,8.5,0,0,1-11,4.86c-67-26-117.22-2.34-141.15,14.06-32.45,22.23-55.11,57.53-55.11,85.85,0,.88-.38,198.59-.38,198.59a8.5,8.5,0,0,1-17,0V144.82a8.5,8.5,0,0,1,17,0V167A161.29,161.29,0,0,1,577,119.23c26.7-18.29,82.59-44.68,156.9-15.89A8.5,8.5,0,0,1,738.74,114.33Z"/><path class="cls-1" d="M1324.05,134.53c0-41.86-13.22-76.55-38.21-100.3-22.18-21.07-53-32.68-86.76-32.68a117.8,117.8,0,0,0-108.7,72.06A8.5,8.5,0,0,0,1106,80.23a100.82,100.82,0,0,1,93-61.68c29.39,0,56,10,75.05,28,21.53,20.46,32.92,50.88,32.92,88l.13,58.06a118.08,118.08,0,0,0-101.1-57.2A115.71,115.71,0,0,0,1123.13,170a119.21,119.21,0,0,0,0,166.76,115.71,115.71,0,0,0,82.95,34.59,118,118,0,0,0,101.36-57.67l.23,105.28a8.5,8.5,0,0,0,8.5,8.49h0a8.51,8.51,0,0,0,8.48-8.52Zm-118,219.82a98.78,98.78,0,0,1-70.85-29.54,102.19,102.19,0,0,1,0-142.86,98.78,98.78,0,0,1,70.85-29.54,101,101,0,1,1,0,201.94Z"/><path class="cls-1" d="M1572.54,114.59a8.5,8.5,0,0,1-11,4.86c-67-26-117.21-2.34-141.15,14.06-32.45,22.23-55.11,57.53-55.11,85.84,0,.87-.37,198.6-.37,198.6a8.5,8.5,0,1,1-17,0V144.07a8.5,8.5,0,1,1,17,0v23.12a161.19,161.19,0,0,1,45.87-47.71c26.7-18.29,82.59-44.67,156.9-15.89A8.5,8.5,0,0,1,1572.54,114.59Z"/><path class="cls-1" d="M1572.27,143.75V416.94a8.5,8.5,0,1,1-17,0V143.75a8.5,8.5,0,0,1,17,0Z"/><path class="cls-1" d="M1563.77,2.66a39.76,39.76,0,1,0,39.76,39.76A39.8,39.8,0,0,0,1563.77,2.66Zm0,62.52a22.76,22.76,0,1,1,22.76-22.76A22.78,22.78,0,0,1,1563.77,65.18Z"/><path class="cls-1" d="M1206.31,403.93a8.49,8.49,0,0,1-8.93,8.05c-42-2.16-78-16.32-104.36-41-20.69-19.35-35.33-45.48-40.16-71.69-8-43.45-3.34-201.59-1.1-264.28L959.34,149.12a8.48,8.48,0,0,1-6.59,3.15h0a8.49,8.49,0,0,1-6.58-3.12L850.81,32.57V418a8.5,8.5,0,1,1-17,0V8.75a8.5,8.5,0,0,1,15.08-5.38L952.7,130.31,1054.62,4.52a8.5,8.5,0,0,1,15.09,5.71c-.09,2.34-9.63,234.47-.13,286,4.19,22.71,17,45.44,35.05,62.35,23.69,22.17,55.19,34.41,93.62,36.39A8.51,8.51,0,0,1,1206.31,403.93Z"/></svg>