<svg id="Layer_1" data-name="Layer 1" xmlns="http://www.w3.org/2000/svg" viewBox="0 0 360 360"><defs><style>.cls-1{fill:#515360;}.cls-2{fill:#6d6e71;}.cls-3{fill:#bcbec0;}.cls-4{fill:#fff;}</style></defs><title>rebel-petal-main</title><rect class="cls-1" width="360" height="360"/><path class="cls-2" d="M279.39,180.44l.08-.12,0-.13c0-.08-3.14-8.33-12.66-16.09-.82-.67-1.7-1.35-2.65-2a86.26,86.26,0,0,0,7.67-19.83l0-.14-.1-.11c-.06-.06-5.82-6.4-17.37-9.87-1-.3-2.05-.58-3.17-.84a105.26,105.26,0,0,0,.17-21.22l0-.18-.17-.06c-.09,0-8.88-2.91-21.49-1.2-.68.09-1.37.2-2.09.32a75.29,75.29,0,0,0-8.94-21.06l-.08-.14h-.17c-.09,0-9.32.52-20.31,6.83-.74.42-1.49.88-2.27,1.38a73,73,0,0,0-15.25-15.6l-.14-.09-.15.08c-.09,0-9.12,4.92-17.11,16.5A87.88,87.88,0,0,0,142,86.6l-.21-.07-.12.18a76.62,76.62,0,0,0-8.54,23,86,86,0,0,0-23.35-.23l-.19,0,0,.18c0,.08-2.22,8.64-.1,21.11.17,1,.37,2,.6,3.07a96.63,96.63,0,0,0-22.13,8l-.19.1,0,.21a80.23,80.23,0,0,0,9.5,22.1,78.89,78.89,0,0,0-16.61,15.49l-.13.16.11.17a72.73,72.73,0,0,0,16.94,16.6l.19.13a86.07,86.07,0,0,0-9.71,20.29l-.06.19.15.12a60.93,60.93,0,0,0,20.69,9.36l1.57.37a87.92,87.92,0,0,0-.87,22.74l0,.21.2,0a72.1,72.1,0,0,0,12.28.95,82.62,82.62,0,0,0,11.84-.85,91.94,91.94,0,0,0,7.78,21.53l.09.18.2,0a68.85,68.85,0,0,0,21.82-8.7l.25-.15a89.63,89.63,0,0,0,16,16.53l.14.12.16-.09a56.74,56.74,0,0,0,16.43-15.05l.46-.63a78.75,78.75,0,0,0,20.26,8.54l.15,0,.11-.1c.07-.06,6.79-6.41,10.24-18.36.3-1,.59-2.16.84-3.34a71.61,71.61,0,0,0,10.62.79,78.52,78.52,0,0,0,11.11-.8l.16,0,.06-.16c0-.09,3.18-9,1.61-21.6-.06-.47-.12-.94-.2-1.43a61.34,61.34,0,0,0,20.26-8.93l.13-.08v-.15c0-.09-.22-9.37-6.37-20.4q-.55-1-1.18-2A71,71,0,0,0,279.39,180.44Zm-25.23-47.81c10.59,3.17,16.25,8.77,17,9.62a85.64,85.64,0,0,1-7.56,19.5,61.43,61.43,0,0,0-18.44-8.57,69.63,69.63,0,0,0,5.91-21.35C252.19,132.08,253.21,132.35,254.16,132.63ZM151,145.8a23.77,23.77,0,0,0-4.71.17l-.2,0,0,.2a31.08,31.08,0,0,0-.33,5.06,55.84,55.84,0,0,0-8.22-.18,69.14,69.14,0,0,1-4.79-18.26,62.67,62.67,0,0,1,7.53,1.13,58.24,58.24,0,0,1,10.68,3.37C150.82,139.92,150.86,143.11,151,145.8Zm81,23.93a36.22,36.22,0,0,1-8.19,5.13,24.22,24.22,0,0,0-4-2.93,25.88,25.88,0,0,0,3.14-5.55v0C226,167.41,229.22,168.58,231.94,169.73ZM209,193q.39-.87.73-1.76a27.87,27.87,0,0,0,9.57-3.22,22.54,22.54,0,0,1,4.45,10.13,27.23,27.23,0,0,1-10.11,3.69A25.29,25.29,0,0,0,209,193Zm4.09,8.92a27.24,27.24,0,0,1-9.5-.62,31.89,31.89,0,0,0,5.16-7.72A24.76,24.76,0,0,1,213.1,201.92Zm-1.34-20.38a24.76,24.76,0,0,1,7.2,6,27.22,27.22,0,0,1-9,3.06A31.63,31.63,0,0,0,211.76,181.54Zm0-3.17a31.57,31.57,0,0,0-1.83-9.1,24.77,24.77,0,0,1,9,2.83A27.25,27.25,0,0,1,211.76,178.36Zm8,9.39a25.84,25.84,0,0,0,5-3.93c2.43,2,4.81,4.19,6.83,6.23a44.25,44.25,0,0,1-9.17,2.15A24.28,24.28,0,0,0,219.8,187.75Zm-.35-.44a25.32,25.32,0,0,0-7.67-6.4c0-.3,0-.6,0-.91s0-.66,0-1a27.91,27.91,0,0,0,7.61-6.63,22.65,22.65,0,0,1,8,7.65A27.23,27.23,0,0,1,219.45,187.31Zm-.21-15.65a25.29,25.29,0,0,0-9.54-3q-.34-.89-.73-1.75a27.9,27.9,0,0,0,4.5-9,22.54,22.54,0,0,1,10.31,4A27.24,27.24,0,0,1,219.25,171.66Zm-10.54-5.31a32,32,0,0,0-5.18-7.71,24.78,24.78,0,0,1,9.38-.83A27.26,27.26,0,0,1,208.71,166.34Zm4.91-9a25.91,25.91,0,0,0,.78-6.57c2.89-.16,6-.21,8.65-.16a51.76,51.76,0,0,1-4.61,7.9A24.28,24.28,0,0,0,213.62,157.34Zm-.56-.07a25.31,25.31,0,0,0-10,.91q-.65-.69-1.33-1.33a27.9,27.9,0,0,0,.7-10.1,22.55,22.55,0,0,1,11.07-.23A27.25,27.25,0,0,1,213.06,157.27Zm-11.77-.86a31.88,31.88,0,0,0-7.73-5.16,24.77,24.77,0,0,1,8.35-4.35A27.24,27.24,0,0,1,201.29,156.41Zm6.37-11a24.28,24.28,0,0,0-5.28.78,25.86,25.86,0,0,0-1.71-6.15c2.43-1.14,5.49-2.48,7.77-3.38A78.35,78.35,0,0,1,207.67,145.41Zm-5.82.93A25.29,25.29,0,0,0,193,151c-.59-.26-1.18-.51-1.79-.74a31.57,31.57,0,0,0-3.49-9.32,22.64,22.64,0,0,1,10.44-4.69A27.25,27.25,0,0,1,201.85,146.35ZM190.59,150a31.6,31.6,0,0,0-9.06-1.78,24.83,24.83,0,0,1,5.74-7A31,31,0,0,1,190.59,150Zm-9.69-1.8-.91,0-1,0a31.57,31.57,0,0,0-6.56-7.09,29.12,29.12,0,0,1,7.64-8.48A29.32,29.32,0,0,1,187,140.8,25.39,25.39,0,0,0,180.91,148.23Zm-2.59,0a31.61,31.61,0,0,0-9,1.82,23.93,23.93,0,0,1,2.87-8.45A31,31,0,0,1,178.31,148.25Zm-9.64,2c-.6.23-1.2.48-1.78.75a31.56,31.56,0,0,0-8.78-4,29.12,29.12,0,0,1,3.81-10.76,29.36,29.36,0,0,1,9.77,5A24.39,24.39,0,0,0,168.67,150.29Zm-2.38,1a31.9,31.9,0,0,0-7.66,5.16,24,24,0,0,1-.59-8.92A31.08,31.08,0,0,1,166.29,151.31ZM180,148.76A31.24,31.24,0,1,1,148.75,180,31.28,31.28,0,0,1,180,148.76Zm21.36,54.77a24.77,24.77,0,0,1,.83,9.38,27.25,27.25,0,0,1-8.53-4.21A31.94,31.94,0,0,0,201.37,203.53Zm-34.93,5.22a23.94,23.94,0,0,1-8,4,31,31,0,0,1,.32-9.08A31.88,31.88,0,0,0,166.43,208.75ZM141,172.86a24.42,24.42,0,0,0,7.18,6.24c0,.3,0,.6,0,.9s0,.69,0,1a31.59,31.59,0,0,0-7.09,6.56,29.12,29.12,0,0,1-8.48-7.63A29.34,29.34,0,0,1,141,172.86ZM135.71,176q-3-2.87-5.59-5.73a50,50,0,0,1,7.67-2.65,28.56,28.56,0,0,0,2.91,4.8A32.05,32.05,0,0,0,135.71,176Zm12.53,2.49a23.92,23.92,0,0,1-6.71-5.89,31.07,31.07,0,0,1,8.49-3.17A31.58,31.58,0,0,0,148.24,178.46Zm0,3.22a31.56,31.56,0,0,0,1.82,9,23.91,23.91,0,0,1-8.45-2.87A31,31,0,0,1,148.25,181.69ZM140.79,188a32,32,0,0,0-3.24,5.2,56.41,56.41,0,0,1-8.56-2.53,50.22,50.22,0,0,1,7-6.22A28.54,28.54,0,0,0,140.79,188Zm.49.28a24.44,24.44,0,0,0,9,3q.35.9.75,1.78a31.56,31.56,0,0,0-4,8.78,29.11,29.11,0,0,1-10.76-3.81A29.38,29.38,0,0,1,141.28,188.31Zm10,5.4a31.9,31.9,0,0,0,5.16,7.66,23.94,23.94,0,0,1-8.92.59A31,31,0,0,1,151.31,193.71Zm-.06-27.28a23.92,23.92,0,0,1-4-8,31,31,0,0,1,9.07.32A31.87,31.87,0,0,0,151.25,166.43ZM151,167q-.4.88-.74,1.78a31.59,31.59,0,0,0-9.06,3.34,29.12,29.12,0,0,1-4.92-10.3,29.41,29.41,0,0,1,10.47-3.34A24.42,24.42,0,0,0,151,167Zm-9.59-7.92c-1.3-2.34-2.72-5.18-3.68-7.46a55.73,55.73,0,0,1,8,.2,28.53,28.53,0,0,0,.88,6.13A32,32,0,0,0,141.4,159.09Zm-.55.17a24.93,24.93,0,0,0-5,2.21l-.17.11,0,.19a31.05,31.05,0,0,0,1.86,5.32,50.24,50.24,0,0,0-7.85,2.7,89.49,89.49,0,0,1-10.94-15.09,77,77,0,0,1,18.36-3.05A84.26,84.26,0,0,0,140.85,159.26Zm-5.56,17.09a23.81,23.81,0,0,0-3.21,3.45L132,180l.12.16a30.94,30.94,0,0,0,3.51,4,51.12,51.12,0,0,0-7.17,6.39,58.85,58.85,0,0,1-15.94-9.37,70.58,70.58,0,0,1,17.09-10.62Q132.21,173.41,135.29,176.35Zm-6.72,14.78a54.94,54.94,0,0,0,8.72,2.61,23.68,23.68,0,0,0-1.65,4.41l0,.19.17.1a30.91,30.91,0,0,0,4.72,2.3,47.21,47.21,0,0,0-3.87,7.89A63.19,63.19,0,0,1,118,206.1a67.1,67.1,0,0,1,3.78-6.42A65.54,65.54,0,0,1,128.57,191.13ZM141,200.95a28.56,28.56,0,0,0,5.83,1.48,32.15,32.15,0,0,0-1,5.44,67.49,67.49,0,0,1-8.66.76A47.39,47.39,0,0,1,141,200.95Zm6.39,1.54a26,26,0,0,0,3.11.2,23.68,23.68,0,0,0,6.39-.86q.66.7,1.36,1.35a31.55,31.55,0,0,0-.38,9.67,29.06,29.06,0,0,1-11.4.6A29.4,29.4,0,0,1,147.41,202.49Zm10.54,10.91a32,32,0,0,0,1.35,5.88,74.53,74.53,0,0,1-8.23,3.83,43,43,0,0,1,1-8.84A28.54,28.54,0,0,0,157.95,213.39Zm.55-.15A24.42,24.42,0,0,0,167,209c.58.26,1.16.5,1.75.73a28,28,0,0,0,3.07,9.31,29.2,29.2,0,0,1-10,4.68A29.43,29.43,0,0,1,158.5,213.24ZM169.37,210a31.66,31.66,0,0,0,9.1,1.8,24,24,0,0,1-6.19,6.95A27.37,27.37,0,0,1,169.37,210Zm9.73,1.81.9,0,1,0a27.89,27.89,0,0,0,6.63,7.61,22.65,22.65,0,0,1-7.65,8,27.14,27.14,0,0,1-7.43-8.19A24.51,24.51,0,0,0,179.1,211.77Zm2.54,0a31.54,31.54,0,0,0,9.1-1.83,24.77,24.77,0,0,1-2.83,9A27.27,27.27,0,0,1,181.63,211.75Zm9.69-2c.59-.23,1.18-.47,1.75-.73a27.88,27.88,0,0,0,9,4.49,22.55,22.55,0,0,1-4,10.32,27.22,27.22,0,0,1-9.76-4.54A25.24,25.24,0,0,0,191.32,209.71Zm11.34,3.92a25.79,25.79,0,0,0,5.66.75,85.29,85.29,0,0,1,.61,8.64,64.38,64.38,0,0,1-7.78-3.67A24.21,24.21,0,0,0,202.66,213.62Zm.07-.56a25.28,25.28,0,0,0-.91-10q.69-.65,1.33-1.33a29.6,29.6,0,0,0,7,.89,25.21,25.21,0,0,0,3.07-.2,22.55,22.55,0,0,1,.23,11.07A27.24,27.24,0,0,1,202.73,213.06Zm11.07-10.67a25.32,25.32,0,0,0,4.58-1.13c1.43,2.58,2.68,5.09,3.79,7.53a57.38,57.38,0,0,1-7.59-1A24.24,24.24,0,0,0,213.8,202.39Zm5.12-1.3a31,31,0,0,0,5.28-2.55l.15-.09v-.17a20.22,20.22,0,0,0-1.61-5.54,43.57,43.57,0,0,0,9.35-2.25,77.3,77.3,0,0,1,12,15.78,61.43,61.43,0,0,1-6.46,1.57,64.47,64.47,0,0,1-14.83,1C221.67,206.32,220.38,203.74,218.92,201.09Zm6.31-17.67a32.16,32.16,0,0,0,2.71-3.2l.1-.14-.08-.15a20.31,20.31,0,0,0-3.77-4.67A35.37,35.37,0,0,0,232.5,170a79.78,79.78,0,0,1,16.88,9.76,55.64,55.64,0,0,1-6.83,5.06,53.86,53.86,0,0,1-10.33,5C230.14,187.73,227.74,185.52,225.23,183.42Zm7.19-14.08c-2.78-1.19-6.14-2.43-9.33-3.46a32.63,32.63,0,0,0,1.29-4l0-.17-.13-.11a20.26,20.26,0,0,0-5.3-2.88,50.7,50.7,0,0,0,4.69-8.08,86.17,86.17,0,0,1,20.77,2.91,51.43,51.43,0,0,1-5.15,8.5A45.13,45.13,0,0,1,232.41,169.34Zm-8.5-19.27A62.46,62.46,0,0,0,228,138a61.16,61.16,0,0,0,1.15-6.92,60.94,60.94,0,0,1,21.43.62,69,69,0,0,1-5.9,21.31A86.4,86.4,0,0,0,223.92,150.07Zm3.54-12.21a61.76,61.76,0,0,1-4.15,12.2c-2.73-.06-5.93,0-8.92.19a32.65,32.65,0,0,0-.34-4l0-.17-.17-.05a20,20,0,0,0-5.6-.64,76.77,76.77,0,0,0,.75-8.94,89.76,89.76,0,0,1,19.58-5.29A60.52,60.52,0,0,1,227.46,137.86Zm-27,1.7a32.34,32.34,0,0,0-1.94-3.75l-.09-.15-.17,0a19.92,19.92,0,0,0-5.3,1.5,54.3,54.3,0,0,0-2.68-7.71,81,81,0,0,1,15.62-12,62.42,62.42,0,0,1,2.54,18.56C206.11,137,203,138.37,200.48,139.55Zm-8-2.16a24.34,24.34,0,0,0-5,3.05,32,32,0,0,0-3.24-4.54h0c1.79-2.06,3.88-4.27,5.67-6A52.55,52.55,0,0,1,192.46,137.39Zm-8.62-1.88a24.25,24.25,0,0,0-3.64-3.43L180,132l-.16.12a30.9,30.9,0,0,0-4.36,3.93,49.39,49.39,0,0,0-5.66-7.24,81,81,0,0,1,9.43-16.51,73.85,73.85,0,0,1,10.35,17.07C187.81,131.12,185.68,133.41,183.85,135.51Zm-8.71.94a28.38,28.38,0,0,0-3.16,4.34,32,32,0,0,0-5.37-3.33c.9-2.73,2-5.7,3-8.12A49.14,49.14,0,0,1,175.14,136.45Zm-9,.77a23.43,23.43,0,0,0-4.25-1.57l-.2,0-.1.17a30.86,30.86,0,0,0-2.52,5.28,43,43,0,0,0-7.56-4.1,84.93,84.93,0,0,1,2.79-19.63,59.55,59.55,0,0,1,15,11.56C168.15,131.38,167,134.39,166.1,137.22Zm-7.25,4.38a28.44,28.44,0,0,0-1.27,5.25,32.17,32.17,0,0,0-6.05-1c-.11-2.6-.15-5.79-.08-8.29A42.47,42.47,0,0,1,158.85,141.6Zm-1.34,5.8a24.41,24.41,0,0,0,.67,9.5q-.69.66-1.35,1.35a31.54,31.54,0,0,0-9.67-.38,29.13,29.13,0,0,1-.6-11.4A29.36,29.36,0,0,1,157.51,147.41Zm-20.6,3.7a77.59,77.59,0,0,0-18.42,3.1,74.07,74.07,0,0,1-7.78-19.89,73.24,73.24,0,0,1,21.43-1.55A69.68,69.68,0,0,0,136.9,151.1ZM129.17,170a68.89,68.89,0,0,0-10.56,5.74,70.53,70.53,0,0,0-6.6,5,69,69,0,0,1-13.89-16l-.11-.18a74,74,0,0,1,20.2-9.62A89.8,89.8,0,0,0,129.17,170Zm-17.11,11.45a59.45,59.45,0,0,0,16,9.44,66.26,66.26,0,0,0-6.67,8.44,67.89,67.89,0,0,0-3.87,6.59,67.73,67.73,0,0,1-18.95-9.21A73.84,73.84,0,0,1,112.06,181.46Zm5.7,25.13a63.56,63.56,0,0,0,18,2.6h.64a65.4,65.4,0,0,0-3.15,11,68.69,68.69,0,0,0-1,7.69,65.71,65.71,0,0,1-21.18-1.1A73.45,73.45,0,0,1,117.76,206.6Zm16,13.71A64.73,64.73,0,0,1,137,209.17a67.77,67.77,0,0,0,8.83-.75,24.62,24.62,0,0,0,.13,5.31l0,.2.2,0a31.17,31.17,0,0,0,4.56.34l.69,0a44.81,44.81,0,0,0-.94,9,71.74,71.74,0,0,1-17.73,4.48A68.06,68.06,0,0,1,133.81,220.31Zm25.67-.51a23.82,23.82,0,0,0,2,4.39l.11.17.19,0a31.11,31.11,0,0,0,4.85-1.66,53.51,53.51,0,0,0,2.94,9.28,55.11,55.11,0,0,1-15.31,11.44,62.4,62.4,0,0,1-2.11-8,59.83,59.83,0,0,1-1.08-11.65A74.71,74.71,0,0,0,159.48,219.8Zm7.66,2.63a28.73,28.73,0,0,0,5-2.9,25.5,25.5,0,0,0,3.5,4.7,49.29,49.29,0,0,1-5.62,7.25A52,52,0,0,1,167.14,222.43Zm8.86,2.21a31.83,31.83,0,0,0,3.79,3.29l.14.1.15-.08a20.06,20.06,0,0,0,4.35-3.45,54.21,54.21,0,0,0,6.09,7,66,66,0,0,1-10.36,17,65.09,65.09,0,0,1-4.37-6,66.34,66.34,0,0,1-5.57-10.56A50,50,0,0,0,176,224.64Zm8.82-.54a24.3,24.3,0,0,0,3.25-4.36,25.88,25.88,0,0,0,5.45,3.09,70.61,70.61,0,0,1-2.78,8.14A54.88,54.88,0,0,1,184.82,224.1ZM194,223a32.4,32.4,0,0,0,4.12,1.32l.17,0,.11-.13a19.55,19.55,0,0,0,2.52-4.41,66.27,66.27,0,0,0,8,3.75,71.5,71.5,0,0,1-2.3,19.21c-2-1.08-3.81-2.19-5.45-3.28a70,70,0,0,1-10-8.15A70.87,70.87,0,0,0,194,223Zm14.85-8.65h.18a32,32,0,0,0,4.68-.36l.17,0,.05-.17a20,20,0,0,0,.64-5.49,55.23,55.23,0,0,0,7.84,1,81.67,81.67,0,0,1,6,18.78c-1.62-.21-3.16-.46-4.61-.74a81.7,81.7,0,0,1-14.3-4.17A86.18,86.18,0,0,0,208.88,214.4Zm14.18-5c.9,0,1.85.07,2.87.07a65,65,0,0,0,11.79-1.07,62.25,62.25,0,0,0,6.66-1.62,61.71,61.71,0,0,1,7.18,20.37A66.06,66.06,0,0,1,229,228.21,81.87,81.87,0,0,0,223.06,209.39Zm9.59-19.1a54.43,54.43,0,0,0,10.18-5,56.28,56.28,0,0,0,7-5.2,61.24,61.24,0,0,1,14.44,15.74,61.57,61.57,0,0,1-19.63,10.27A77.57,77.57,0,0,0,232.64,190.28Zm17.16-10.91A80.08,80.08,0,0,0,233,169.59a46,46,0,0,0,6.71-7.19,52.15,52.15,0,0,0,5.27-8.71,60.87,60.87,0,0,1,18.42,8.55A64,64,0,0,1,249.81,179.37Zm-20.08-70.21a52.61,52.61,0,0,1,21.09,1.12,104.49,104.49,0,0,1-.17,20.87,61.47,61.47,0,0,0-21.44-.64,63.28,63.28,0,0,0-1.48-21C228.41,109.35,229.08,109.25,229.72,109.16Zm-1.08,21.44A90,90,0,0,0,209,135.86a63.57,63.57,0,0,0-2.58-18.63,65.28,65.28,0,0,1,20.75-7.66A62.67,62.67,0,0,1,228.64,130.6Zm-30.3-35.54a50.55,50.55,0,0,1,19.92-6.76A74.61,74.61,0,0,1,227,109a65.79,65.79,0,0,0-20.78,7.65,69.31,69.31,0,0,0-9.56-19.5l-.56-.79C196.9,95.92,197.63,95.47,198.34,95.06ZM205.76,117a81.24,81.24,0,0,0-15.7,12,74.46,74.46,0,0,0-10.43-17.12,63.93,63.93,0,0,1,16-15.08A69.53,69.53,0,0,1,205.76,117ZM180.4,80.9a73.6,73.6,0,0,1,14.9,15.38,64.45,64.45,0,0,0-16,15.09,74.25,74.25,0,0,0-15.62-14.22C171,86.5,179.2,81.58,180.4,80.9ZM163.33,97.6a73.79,73.79,0,0,1,15.6,14.22,81.29,81.29,0,0,0-9.48,16.51,60,60,0,0,0-15-11.56A68.05,68.05,0,0,1,163.33,97.6ZM142,87.2a87.24,87.24,0,0,1,20.85,10.08,68.56,68.56,0,0,0-9,19.23,67.69,67.69,0,0,0-20.24-6.69A77,77,0,0,1,142,87.2Zm-8.46,23.17h0a67.07,67.07,0,0,1,20.19,6.7,85.1,85.1,0,0,0-2.84,19.67,58.74,58.74,0,0,0-10.55-3.32,63.21,63.21,0,0,0-7.74-1.15A72.4,72.4,0,0,1,133.56,110.37ZM110,130.77c-1.94-11.36-.26-19.43,0-20.72a85.38,85.38,0,0,1,23,.25,73,73,0,0,0-.94,21.92,73.81,73.81,0,0,0-21.49,1.57C110.36,132.74,110.16,131.73,110,130.77ZM88.35,142.32a95.88,95.88,0,0,1,21.81-7.88,74.62,74.62,0,0,0,7.78,19.93A74.59,74.59,0,0,0,97.72,164,80.56,80.56,0,0,1,88.35,142.32ZM81.22,180A78.3,78.3,0,0,1,97.56,164.8l.09.15a69.54,69.54,0,0,0,13.94,16.13,75,75,0,0,0-13.52,15.34l-.15-.11A73.07,73.07,0,0,1,81.22,180ZM109,226.29a61.25,61.25,0,0,1-20.36-9.14,85.06,85.06,0,0,1,9.58-20,68.3,68.3,0,0,0,19,9.25,74,74,0,0,0-6.71,20.21Zm1.07,23.39a87.21,87.21,0,0,1,.88-22.37,65.7,65.7,0,0,0,14,1.51,67.41,67.41,0,0,0,7.21-.4,76,76,0,0,0,1.57,21.32A80.59,80.59,0,0,1,110.07,249.68Zm22.68-21.31a72.29,72.29,0,0,0,17.77-4.45,60.36,60.36,0,0,0,1.09,11.51,62.91,62.91,0,0,0,2.16,8.2,66.22,66.22,0,0,1-19,6l-.47.07A75.44,75.44,0,0,1,132.75,228.37Zm30.75,34.41a69.13,69.13,0,0,1-21.44,8.6,91.4,91.4,0,0,1-7.63-21.18l.43-.06a66.86,66.86,0,0,0,19.09-6,70.86,70.86,0,0,0,9.75,18.5Zm-9.06-18.87A55.65,55.65,0,0,0,169.8,232.5a67,67,0,0,0,5.5,10.39,66,66,0,0,0,4.48,6.11,67.19,67.19,0,0,1-15.62,13.37A70.35,70.35,0,0,1,154.44,243.91Zm41.89,20.35a57,57,0,0,1-16.11,14.83,89.06,89.06,0,0,1-15.74-16.27,67.79,67.79,0,0,0,15.66-13.39,68.27,68.27,0,0,0,16.61,14.27Zm.74-1A67.78,67.78,0,0,1,180.51,249a66.55,66.55,0,0,0,10.43-17.05,70.55,70.55,0,0,0,9.92,8c1.69,1.13,3.57,2.27,5.63,3.38A62.31,62.31,0,0,1,197.08,263.25Zm30.39-9.33a43.13,43.13,0,0,1-10,18,78.11,78.11,0,0,1-19.93-8.42A62.87,62.87,0,0,0,207,243.63a68.28,68.28,0,0,0,21.29,7.06C228,251.83,227.76,252.9,227.46,253.92Zm.92-3.77a67.79,67.79,0,0,1-21.25-7.06,71.94,71.94,0,0,0,2.36-19.26,82.24,82.24,0,0,0,14.17,4.11c1.53.29,3.14.56,4.84.77A57.59,57.59,0,0,1,228.38,250.15Zm21.92.09a74.23,74.23,0,0,1-21.37,0,58.09,58.09,0,0,0,.15-21.46,70.3,70.3,0,0,0,8.22.49,64.39,64.39,0,0,0,14.33-1.59c.07.46.13.91.19,1.35A51.19,51.19,0,0,1,250.3,250.24Zm15.39-52a48.28,48.28,0,0,1,6.32,20A60.79,60.79,0,0,1,252.09,227a62.26,62.26,0,0,0-7.18-20.41,62.11,62.11,0,0,0,19.64-10.29Q265.16,197.28,265.69,198.22Zm-1-2.73a61.77,61.77,0,0,0-14.45-15.77,64.49,64.49,0,0,0,13.59-17.16c.91.65,1.76,1.3,2.54,1.94,8.75,7.14,12,14.66,12.46,15.75A70.29,70.29,0,0,1,264.7,195.49Z"/><path class="cls-3" d="M84,223.49v.31h-3.5v-.31c1,0,1.21-.26,1.21-1.79v-2.45c0-1.53-.18-1.77-1.21-1.77v-.31h5.53l.12,1.84h-.32l-.08-.31c-.18-.7-.37-1-1.77-1H82.82V220h.09c1.53,0,1.65-.18,1.65-1.21h.31v3h-.31c0-1-.12-1.21-1.65-1.21h-.09v1.13C82.82,223.23,83,223.49,84,223.49Z"/><path class="cls-3" d="M90.54,217.48v-.31H94v.31c-1,0-1.21.25-1.21,1.77v2.2c0,1.53.18,1.77,1.21,1.77h.54c1.41,0,1.59-.26,1.77-1l.08-.31h.32l-.11,1.85h-6.1v-.31c1,0,1.21-.26,1.21-1.79v-2.45C91.74,217.73,91.56,217.48,90.54,217.48Z"/><path class="cls-3" d="M104.63,224.06a3.57,3.57,0,1,1,3.73-3.58A3.67,3.67,0,0,1,104.63,224.06Zm0-6.56c-1.8,0-2.48,1.67-2.48,3s.67,3,2.48,3,2.48-1.65,2.48-3S106.44,217.5,104.63,217.5Z"/><path class="cls-3" d="M117.43,222.07a3.7,3.7,0,0,0,2,1.42v.31h-2L115.44,221H115v.75c0,1.53.18,1.79,1.21,1.79v.31h-3.5v-.31c1,0,1.21-.26,1.21-1.79v-2.45c0-1.53-.18-1.77-1.21-1.77v-.31h3.16c1.57,0,2.45.81,2.45,1.9a1.92,1.92,0,0,1-1.85,1.85Zm-1.54-4.34H115v2.66h.87a1.2,1.2,0,0,0,1.25-1.32A1.21,1.21,0,0,0,115.88,217.73Z"/><path class="cls-3" d="M125.45,222.31c-.38.9-.38,1.16.83,1.16v.32h-2.89v-.32c.93,0,1.07-.18,1.58-1.33l2.25-5.23h.21l2.25,5.23c.5,1.15.69,1.33,1.5,1.33v.32h-3.43v-.32c1.1,0,1.21-.26.83-1.16l-.3-.7h-2.51Zm1.56-3.61L126,221h2Z"/><path class="cls-3" d="M135.43,217.48v-.31h3.5v.31c-1,0-1.21.25-1.21,1.77v2.2c0,1.53.18,1.77,1.21,1.77h.54c1.41,0,1.59-.26,1.77-1l.08-.31h.32l-.11,1.85h-6.1v-.31c1,0,1.21-.26,1.21-1.79v-2.45C136.64,217.73,136.46,217.48,135.43,217.48Z"/><path class="cls-3" d="M151.89,223.49c1,0,1.21-.26,1.21-1.79v-2.45c0-1.53-.18-1.77-1.21-1.77v-.31h3.24c2.6,0,3.73,1.5,3.73,3.3s-1.13,3.32-3.73,3.32h-3.24Zm3.29-5.76h-1v4.34c0,1,.11,1.16.87,1.16h.12c2,0,2.42-1.53,2.42-2.75S157.19,217.73,155.17,217.73Z"/><path class="cls-3" d="M168.66,222.25l.08-.31H169l-.12,1.85H163.2v-.31c1,0,1.21-.26,1.21-1.79v-2.45c0-1.53-.18-1.77-1.21-1.77v-.31h5.35l.12,1.84h-.32l-.08-.31c-.17-.7-.37-1-1.76-1h-1V220h.09c1.53,0,1.65-.18,1.65-1.21h.31v3h-.31c0-1-.12-1.21-1.65-1.21h-.09v.89c0,1.53.18,1.77,1.21,1.77h.18C168.28,223.23,168.48,223,168.66,222.25Z"/><path class="cls-3" d="M176.21,224.06a3.17,3.17,0,0,1-1.71-.57,1.21,1.21,0,0,0-.29.57h-.28v-2.63h.3a2,2,0,0,0,2.1,2,1,1,0,0,0,1.18-1c0-.54-.43-.95-1.25-1.36l-1-.54a2.11,2.11,0,0,1-1.27-1.87,1.8,1.8,0,0,1,1.91-1.74,2.48,2.48,0,0,1,1.45.46.86.86,0,0,0,.23-.47h.31v2.58h-.31c-.09-.92-.5-2-1.6-2-.6,0-1.1.32-1.1.89s.4.83,1.33,1.32l1,.53a2,2,0,0,1,1.19,1.73A2.09,2.09,0,0,1,176.21,224.06Z"/><path class="cls-3" d="M182.77,223.8v-.31c1,0,1.21-.26,1.21-1.79v-2.45c0-1.53-.18-1.77-1.21-1.77v-.31h3.5v.31c-1,0-1.21.25-1.21,1.77v2.45c0,1.53.18,1.79,1.21,1.79v.31Z"/><path class="cls-3" d="M194.07,224.06a3.57,3.57,0,0,1,0-7.14,2.77,2.77,0,0,1,2,1,2.49,2.49,0,0,0,.27-.75h.29v2.65h-.31c-.29-1.42-1.1-2.32-2.28-2.32-1.71,0-2.25,1.7-2.25,3s.54,3,2.25,3c.76,0,1.94-.47,1.94-1.3,0-.61-.57-.93-1.32-.93v-.31h3.38v.31c-1,0-1.21.26-1.21,1.79v.46C195.9,223.48,195,224.06,194.07,224.06Z"/><path class="cls-3" d="M201.89,217.48v-.31h1.88l4.07,4.83v-2.75c0-1.53-.18-1.77-1.21-1.77v-.31h3v.31c-1,0-1.21.25-1.21,1.77V224h-.29l-4.45-5.34v3c0,1.53.18,1.79,1.21,1.79v.31h-3v-.31c1,0,1.21-.26,1.21-1.79v-2.45C203.1,217.73,202.91,217.48,201.89,217.48Z"/><path class="cls-3" d="M223.22,224.06a3.17,3.17,0,0,1-1.71-.57,1.21,1.21,0,0,0-.29.57h-.28v-2.63h.31a2,2,0,0,0,2.1,2,1,1,0,0,0,1.18-1c0-.54-.43-.95-1.25-1.36l-1-.54a2.1,2.1,0,0,1-1.27-1.87,1.8,1.8,0,0,1,1.91-1.74,2.49,2.49,0,0,1,1.45.46.86.86,0,0,0,.23-.47h.31v2.58h-.31c-.09-.92-.5-2-1.61-2-.6,0-1.1.32-1.1.89s.4.83,1.33,1.32l1,.53a2,2,0,0,1,1.19,1.73A2.09,2.09,0,0,1,223.22,224.06Z"/><path class="cls-3" d="M231.48,217.77c-1.41,0-1.53.26-1.71,1l-.08.31h-.3l.09-1.88h6.82l.11,1.88h-.32l-.08-.31c-.18-.72-.37-1-1.77-1h-.79v3.93c0,1.53.2,1.79,1.22,1.79v.31h-3.52v-.31c1,0,1.22-.26,1.22-1.79v-3.93Z"/><path class="cls-3" d="M244.6,223.37a1.74,1.74,0,0,0,1.87-1.94v-2.17c0-1.53-.18-1.77-1.21-1.77v-.31h3.12v.31c-1,0-1.21.25-1.21,1.77v2.06a2.73,2.73,0,0,1-5.46,0v-2.06c0-1.53-.18-1.77-1.21-1.77v-.31H244v.31c-1,0-1.21.25-1.21,1.77v2.17A1.7,1.7,0,0,0,244.6,223.37Z"/><path class="cls-3" d="M252.85,223.49c1,0,1.21-.26,1.21-1.79v-2.45c0-1.53-.18-1.77-1.21-1.77v-.31h3.24c2.6,0,3.73,1.5,3.73,3.3s-1.13,3.32-3.73,3.32h-3.24Zm3.29-5.76h-1v4.34c0,1,.11,1.16.87,1.16h.12c2,0,2.41-1.53,2.41-2.75S258.16,217.73,256.14,217.73Z"/><path class="cls-3" d="M264.17,223.8v-.31c1,0,1.21-.26,1.21-1.79v-2.45c0-1.53-.18-1.77-1.21-1.77v-.31h3.5v.31c-1,0-1.21.25-1.21,1.77v2.45c0,1.53.18,1.79,1.21,1.79v.31Z"/><path class="cls-3" d="M275.74,224.06a3.57,3.57,0,1,1,3.73-3.58A3.67,3.67,0,0,1,275.74,224.06Zm0-6.56c-1.8,0-2.48,1.67-2.48,3s.67,3,2.48,3,2.48-1.65,2.48-3S277.54,217.5,275.74,217.5Z"/><path class="cls-4" d="M75.5,168.54a10.78,10.78,0,0,0-3.92,3.74c-.44-3.08-1.3-4.28-1.43-4.45l-2,1.59s1.15,1.78,1.15,6.88c0,8.07.09,15.16.09,15.23l2.58,0c0-.06-.08-6.08-.09-13.31,1-3.65,2.6-6.13,4.85-7.36a8,8,0,0,1,5.77-.59l.82-2.44A10.48,10.48,0,0,0,75.5,168.54Z"/><path class="cls-4" d="M96.58,166.77c-4.6.14-12.34,3.1-12.14,13.25.08,4.08,1.3,7.28,3.64,9.52a13.17,13.17,0,0,0,9,3.31h.33c4-.1,9.79-2,10-2.05l-.8-2.45c-.06,0-5.64,1.84-9.29,1.93a10.67,10.67,0,0,1-7.49-2.59,9.89,9.89,0,0,1-2.78-6.49l23-.19v-1.28c0-4-1.18-7.12-3.52-9.39C102.84,166.76,97.59,166.74,96.58,166.77ZM87,178.61c.6-8.72,8.66-9.23,9.62-9.26h.28c1.26,0,5.1.23,7.79,2.83a9.47,9.47,0,0,1,2.68,6.26Z"/><path class="cls-4" d="M127.6,167.06c-4.31,0-7.79,1.44-10.08,4.06V157.45h-2.58v32.61l.68.36a26,26,0,0,0,11.5,2.33c7.92,0,12.47-4.55,12.47-12.47C139.6,172.13,135,167.06,127.6,167.06Zm-.47,23.12a25.72,25.72,0,0,1-9.61-1.72v-12c1.27-4.42,4.84-6.84,10.08-6.84,5.9,0,9.42,4,9.42,10.65C137,188.46,131.64,190.18,127.13,190.18Z"/><path class="cls-4" d="M197.35,166.87a14.62,14.62,0,0,0-10.44,4.55,15,15,0,0,0-1.21-3.67l-2.28,1.21a16.17,16.17,0,0,1,1.37,6.88c0,4.58-.19,26.49-.19,26.71l2.58,0c0-.11.05-5.93.1-12.19a18,18,0,0,0,9.23,2.48c8.11,0,12.75-4.58,12.75-12.56C209.25,171.07,203.08,166.87,197.35,166.87Zm-.85,23.41a15,15,0,0,1-9.2-3c0-4.92.07-9.59.07-11.44,0-.14,0-.28,0-.41,1-2.85,5.25-6,10-6,4.49,0,9.32,3.39,9.32,10.84C206.67,188.54,201.14,190.27,196.49,190.27Z"/><path class="cls-4" d="M255.25,189.39a13.23,13.23,0,0,1-3.51.69,4.81,4.81,0,0,1-3.62-1.21c-.85-.72-1.16-4-1.06-6.12V170.11h9.14v-2.58h-9.14v-4.87h-2.58v4.87h-2.12v2.58h2.12v12.58c-.05,1-.21,6.32,2,8.16a7.32,7.32,0,0,0,5.28,1.82c.73,0,4.29-.44,5.17-1.32l-1.82-1.82A.81.81,0,0,1,255.25,189.39Z"/><path class="cls-4" d="M271.92,167.25a24.53,24.53,0,0,0-9.95,2l1.13,2.32a22.34,22.34,0,0,1,8.82-1.77c4.85,0,8.9.7,9.29,8.8H269.48c-.21,0-5.17-.06-7.91,2.64a6.29,6.29,0,0,0,0,8.78c2.61,2.59,7.23,2.72,7.84,2.72.44,0,.91.05,1.42.05,3.44,0,8.18-.91,10.94-4,.27,1.69.67,3,1.26,3.5l1.68-2s-.88-2.4-.88-10.49C283.82,168.78,278.1,167.25,271.92,167.25Zm-2.36,22.94h-.11c-1.13,0-4.42-.34-6.07-2a3.44,3.44,0,0,1-1-2.57,3.39,3.39,0,0,1,1-2.54c2-1.94,6-1.9,6.09-1.9h11.8c0,.92,0,1.86.07,2.78C280.23,191,269.67,190.19,269.56,190.18Z"/><path class="cls-4" d="M156.08,166.87c-4.6.14-12.34,3.1-12.14,13.25.08,4.08,1.3,7.28,3.64,9.52a13.17,13.17,0,0,0,9,3.31h.33c4-.1,9.79-2,10-2.05l-.8-2.45c-.06,0-5.65,1.84-9.3,1.93a10.69,10.69,0,0,1-7.49-2.59,9.88,9.88,0,0,1-2.78-6.5l23-.19v-1.28c0-4-1.18-7.12-3.52-9.39C162.35,166.86,157.1,166.83,156.08,166.87Zm-9.54,11.84c.6-8.72,8.66-9.23,9.62-9.26h.28c1.26,0,5.1.23,7.79,2.84a9.47,9.47,0,0,1,2.68,6.26Z"/><path class="cls-4" d="M225.73,167c-4.6.14-12.34,3.1-12.15,13.25.08,4.08,1.3,7.28,3.64,9.52a13.17,13.17,0,0,0,9,3.31h.33c4-.1,9.79-2,10-2.05l-.8-2.45c-.06,0-5.64,1.84-9.3,1.93a10.68,10.68,0,0,1-7.49-2.59,9.88,9.88,0,0,1-2.78-6.5l23-.19V179.9c0-4-1.18-7.12-3.52-9.39C232,167,226.75,166.93,225.73,167Zm-9.54,11.84c.6-8.72,8.66-9.23,9.62-9.26h.28c1.26,0,5.1.23,7.79,2.83a9.47,9.47,0,0,1,2.68,6.26Z"/><rect class="cls-4" x="174.65" y="157.45" width="2.58" height="34.11"/><rect class="cls-4" x="289.3" y="157.83" width="2.58" height="34.11"/></svg>