<svg xmlns="http://www.w3.org/2000/svg" viewBox="0 0 1152 648"><defs><style>.cls-1,.cls-12{fill:#bdbec1;}.cls-1,.cls-12,.cls-13,.cls-19,.cls-2{stroke:#fff;}.cls-1,.cls-2,.cls-20,.cls-5{stroke-width:1.5px;}.cls-13,.cls-2{fill:#818385;}.cls-3{font-size:40.3px;}.cls-18,.cls-28,.cls-3,.cls-31,.cls-34,.cls-44{fill:#231f20;}.cls-10,.cls-3{font-family:Avenir-Light, Avenir;}.cls-4{font-size:16.12px;}.cls-11,.cls-18,.cls-28,.cls-31,.cls-4,.cls-9{font-family:Garamond, Garamond;}.cls-16,.cls-23,.cls-5{fill:#a7aaac;}.cls-24,.cls-5{stroke:#6d6f71;}.cls-6{fill:#d1d3d4;}.cls-7{fill:#939598;}.cls-8{font-size:42.67px;font-family:CenturyGothic, Century Gothic;letter-spacing:-0.04em;}.cls-10,.cls-15,.cls-8,.cls-9{fill:#414142;}.cls-9{font-size:15.6px;letter-spacing:-0.03em;}.cls-10{font-size:51.24px;}.cls-11{font-size:20.5px;}.cls-12,.cls-13,.cls-29{stroke-width:0.5px;}.cls-14,.cls-21,.cls-25,.cls-33{fill:#fff;}.cls-14,.cls-15,.cls-16,.cls-17,.cls-20,.cls-27,.cls-29,.cls-30{stroke:#231f20;}.cls-14,.cls-15,.cls-16,.cls-17,.cls-21,.cls-22,.cls-23,.cls-24,.cls-62{stroke-miterlimit:10;}.cls-14,.cls-15,.cls-16,.cls-17{stroke-width:0.25px;}.cls-17{fill:#dfe0e1;}.cls-18{font-size:11.53px;letter-spacing:-0.03em;}.cls-19,.cls-20,.cls-26,.cls-27,.cls-29,.cls-30,.cls-61,.cls-62{fill:none;}.cls-19{stroke-width:10px;}.cls-21,.cls-22,.cls-23{stroke:#e7e8e9;}.cls-22{fill:#f2f2f3;}.cls-24{fill:#6d6f71;}.cls-27{stroke-width:0.75px;}.cls-28{font-size:18.45px;letter-spacing:-0.03em;}.cls-31{font-size:21.67px;}.cls-32{letter-spacing:0.02em;}.cls-33{stroke:#a7a9ac;stroke-width:3.5px;}.cls-34{font-size:30.83px;}.cls-34,.cls-44,.cls-48,.cls-52,.cls-55,.cls-58{font-family:MyriadPro-Regular, Myriad Pro;}.cls-35{letter-spacing:0em;}.cls-36{letter-spacing:-0.03em;}.cls-37{letter-spacing:0em;}.cls-38{letter-spacing:0em;}.cls-39{fill:#a7a9ac;}.cls-40{fill:#e6e7e8;}.cls-41{fill:#6d6e71;}.cls-42{fill:#58595b;}.cls-43{fill:#f1f2f2;}.cls-44{font-size:32.79px;}.cls-45{letter-spacing:0em;}.cls-46{letter-spacing:-0.03em;}.cls-47,.cls-48,.cls-52,.cls-55,.cls-58{fill:#808285;}.cls-48{font-size:57.75px;}.cls-49{letter-spacing:0em;}.cls-50{letter-spacing:-0.02em;}.cls-51{opacity:0.89;}.cls-52{font-size:35.51px;}.cls-53{letter-spacing:0em;}.cls-54{letter-spacing:-0.02em;}.cls-55{font-size:27.92px;letter-spacing:0em;}.cls-56{letter-spacing:0em;}.cls-57{letter-spacing:-0.03em;}.cls-58{font-size:44.25px;}.cls-59{letter-spacing:0em;}.cls-60{letter-spacing:-0.03em;}.cls-61,.cls-62{stroke:#414042;}.cls-61{stroke-width:3px;}.cls-62{stroke-width:2px;}</style></defs><title>rebel-petal-dif-concepts</title><g id="Layer_1" data-name="Layer 1"><g id="inside_the_lines_design" data-name="inside the lines design"><path class="cls-1" d="M168.41,53c6-8.06,22.74-6.33,22.74-6.33,1.15,12.67-7,26-7,26l-15.3-.14-3.84-3.07Z"/><path class="cls-2" d="M123.89,71.88s-8-12.57-6.88-25.24c0,0,18.16-1.15,24.21,6.91l1,15.69Z"/><text class="cls-3" transform="translate(54.41 116.97)">Rebel Petal<tspan class="cls-4"><tspan x="34.02" y="19.34">Floral Design Studios</tspan></tspan></text><path class="cls-1" d="M142.22,70c-9.07-26.19,13.1-41.16,13.1-41.16,22.88,18.28,10.22,43.46,10.22,43.46l-7,1.44-3.6,2.49-7.32-2.06Z"/><path class="cls-1" d="M154.79,76.29s-24.18-24.46-54.41,0"/><path class="cls-1" d="M154.79,76.29s24.71-24.56,54.93-.09"/><line class="cls-5" x1="59.89" y1="76.39" x2="249.49" y2="76.39"/><path class="cls-1" d="M168.41,172.1c6,8.06,22.74,6.33,22.74,6.33,1.15-12.67-7-26.05-7-26.05l-15.3.14-3.84,3.07Z"/><path class="cls-1" d="M123.89,153.2s-8,12.57-6.88,25.24c0,0,18.16,1.15,24.21-6.91l1-15.69Z"/><path class="cls-1" d="M142.22,155.12c-9.07,26.19,13.1,41.16,13.1,41.16,22.88-18.28,10.22-43.46,10.22-43.46l-7-1.44-3.6-2.49-7.32,2.06Z"/><path class="cls-1" d="M154.79,148.79s-24.18,24.46-54.41,0"/><path class="cls-1" d="M154.79,148.79s24.71,24.56,54.93.1"/><line class="cls-5" x1="59.89" y1="148.69" x2="249.49" y2="148.69"/></g><g id="_3_petals_design_2" data-name="3 petals design 2"><path class="cls-6" d="M428.11,92s8.08,14.64,28.8,28.18c19.87,13,46.38,10,47.72-6.65C507.68,76,428.11,92,428.11,92Z"/><path class="cls-7" d="M469.85,48.52C458.38,35.17,444,46.14,435.06,60.77c-8,13.06-11.27,29.33-11.27,29.33s63.68-9.8,46.07-41.57"/><path class="cls-6" d="M408.09,45.15c-14,1.79-11.23,14.81-4.53,26,6.05,10.09,15.49,18.54,15.49,18.54s15.89-44.19-11-44.53"/><text class="cls-8" transform="translate(326.98 115.14)">Rebel Petal</text></g><text class="cls-9" transform="translate(329 132.9) scale(1.04 1)">Floral Design Studios</text><text class="cls-10" transform="translate(822.28 570.37)"><tspan xml:space="preserve">Rebel   Petal</tspan><tspan class="cls-11"><tspan x="56.58" y="24.6">Floral Design Studios</tspan></tspan></text><path class="cls-12" d="M977.31,546.22c1.9-2.53,7.15-2,7.15-2,.36,4-2.19,8.19-2.19,8.19l-4.81,0-1.21-1Z"/><path class="cls-13" d="M963.31,552.17s-2.53-4-2.17-7.93c0,0,5.71-.36,7.61,2.17l.32,4.94Z"/><path class="cls-12" d="M969.07,551.56c-2.85-8.24,4.12-12.94,4.12-12.94,7.2,5.75,3.21,13.67,3.21,13.67l-2.2.45-1.13.78-2.3-.65Z"/><path class="cls-12" d="M977.31,560.79c1.9,2.54,7.15,2,7.15,2,.36-4-2.19-8.19-2.19-8.19l-4.81,0-1.21,1Z"/><path class="cls-12" d="M963.31,554.85s-2.53,4-2.17,7.93c0,0,5.71.36,7.61-2.17l.32-4.94Z"/><path class="cls-12" d="M969.07,555.45c-2.85,8.24,4.12,12.94,4.12,12.94,7.2-5.75,3.21-13.67,3.21-13.67l-2.2-.45-1.13-.78-2.3.65Z"/><path class="cls-12" d="M955.91,553.46c9.5,7.7,17.11,0,17.11,0h0s-7.61-7.6-17.11.09"/><path class="cls-12" d="M973,553.46s7.77,7.72,17.28,0v0c-9.51-7.69-17.28,0-17.28,0"/></g><g id="Layer_8" data-name="Layer 8"><g id="petals"><circle class="cls-14" cx="721.7" cy="503.65" r="17.1"/><circle class="cls-14" cx="721.7" cy="503.65" r="13.37"/><circle class="cls-14" cx="721.7" cy="503.65" r="7.81"/><circle class="cls-14" cx="721.36" cy="520.96" r="17.1"/><circle class="cls-14" cx="721.36" cy="520.96" r="13.37"/><circle class="cls-14" cx="721.36" cy="520.96" r="7.81"/><circle class="cls-14" cx="692.18" cy="569.22" r="17.1"/><circle class="cls-14" cx="692.18" cy="569.22" r="13.37"/><circle class="cls-14" cx="692.18" cy="569.22" r="7.81"/><circle class="cls-14" cx="675" cy="569.36" r="17.1"/><circle class="cls-14" cx="675" cy="569.36" r="13.37"/><circle class="cls-14" cx="675" cy="569.36" r="7.81"/><circle class="cls-14" cx="626.75" cy="540.48" r="17.1"/><circle class="cls-14" cx="626.75" cy="540.48" r="13.37"/><circle class="cls-14" cx="626.75" cy="540.48" r="7.81"/><circle class="cls-14" cx="627.17" cy="522.38" r="17.1"/><circle class="cls-14" cx="627.17" cy="522.38" r="13.37"/><circle class="cls-14" cx="627.17" cy="522.38" r="7.81"/><circle class="cls-14" cx="655.84" cy="475.26" r="17.1"/><circle class="cls-14" cx="655.84" cy="475.26" r="13.37"/><circle class="cls-14" cx="655.84" cy="475.26" r="7.81"/><circle class="cls-14" cx="673.16" cy="474.41" r="17.1"/><circle class="cls-14" cx="673.16" cy="474.41" r="13.37"/><circle class="cls-14" cx="673.16" cy="474.41" r="7.81"/><circle class="cls-14" cx="697.29" cy="481.22" r="17.1"/><circle class="cls-14" cx="697.29" cy="481.22" r="13.37"/><circle class="cls-14" cx="697.29" cy="481.22" r="7.81"/><circle class="cls-14" cx="706.37" cy="495.7" r="17.1"/><circle class="cls-14" cx="706.37" cy="495.7" r="13.37"/><circle class="cls-14" cx="706.37" cy="495.7" r="7.81"/><circle class="cls-14" cx="715.74" cy="545.37" r="17.1"/><circle class="cls-14" cx="715.74" cy="545.37" r="13.37"/><circle class="cls-14" cx="715.74" cy="545.37" r="7.81"/><circle class="cls-14" cx="699.98" cy="553.46" r="17.1"/><circle class="cls-14" cx="699.98" cy="553.46" r="13.37"/><circle class="cls-14" cx="699.98" cy="553.46" r="7.81"/><circle class="cls-14" cx="650.45" cy="562.97" r="17.1"/><circle class="cls-14" cx="650.45" cy="562.97" r="13.37"/><circle class="cls-14" cx="650.45" cy="562.97" r="7.81"/><circle class="cls-14" cx="641.08" cy="548.21" r="17.1"/><circle class="cls-14" cx="641.08" cy="548.21" r="13.37"/><circle class="cls-14" cx="641.08" cy="548.21" r="7.81"/><circle class="cls-14" cx="632.85" cy="499.11" r="17.1"/><circle class="cls-14" cx="632.85" cy="499.11" r="13.37"/><circle class="cls-14" cx="632.85" cy="499.11" r="7.81"/><circle class="cls-14" cx="647.61" cy="490.02" r="17.1"/><circle class="cls-14" cx="647.61" cy="490.02" r="13.37"/><circle class="cls-14" cx="647.61" cy="490.02" r="7.81"/><circle class="cls-14" cx="705.8" cy="513.01" r="17.1"/><circle class="cls-14" cx="705.8" cy="513.01" r="13.37"/><circle class="cls-14" cx="705.8" cy="513.01" r="7.81"/><circle class="cls-14" cx="706.37" cy="530.33" r="17.1"/><circle class="cls-14" cx="706.37" cy="530.33" r="13.37"/><circle class="cls-14" cx="706.37" cy="530.33" r="7.81"/><circle class="cls-14" cx="683.09" cy="554.17" r="17.1"/><circle class="cls-14" cx="683.09" cy="554.17" r="13.37"/><circle class="cls-14" cx="683.09" cy="554.17" r="7.81"/><circle class="cls-14" cx="665.5" cy="554.68" r="17.1"/><circle class="cls-14" cx="665.5" cy="554.68" r="13.37"/><circle class="cls-14" cx="665.5" cy="554.68" r="7.81"/><circle class="cls-14" cx="641.65" cy="530.9" r="17.1"/><circle class="cls-14" cx="641.65" cy="530.9" r="13.37"/><circle class="cls-14" cx="641.65" cy="530.9" r="7.81"/><circle class="cls-14" cx="641.65" cy="513.58" r="17.1"/><circle class="cls-14" cx="641.65" cy="513.58" r="13.37"/><circle class="cls-14" cx="641.65" cy="513.58" r="7.81"/><circle class="cls-14" cx="664.93" cy="489.45" r="17.1"/><circle class="cls-14" cx="664.93" cy="489.45" r="13.37"/><circle class="cls-14" cx="664.93" cy="489.45" r="7.81"/><circle class="cls-14" cx="681.96" cy="489.17" r="17.1"/><circle class="cls-14" cx="681.96" cy="489.17" r="13.37"/><circle class="cls-14" cx="681.96" cy="489.17" r="7.81"/><circle class="cls-14" cx="656.13" cy="539.7" r="17.1"/><circle class="cls-14" cx="656.13" cy="539.7" r="13.37"/><circle class="cls-14" cx="656.13" cy="539.7" r="7.81"/><circle class="cls-15" cx="656.41" cy="504.5" r="17.1"/><circle class="cls-16" cx="656.41" cy="504.5" r="13.37"/><circle class="cls-17" cx="656.41" cy="504.5" r="7.81"/><circle class="cls-14" cx="690.97" cy="538.7" r="17.1"/><circle class="cls-14" cx="690.97" cy="538.7" r="13.37"/><circle class="cls-14" cx="690.97" cy="538.7" r="7.81"/><circle class="cls-14" cx="690.76" cy="503.65" r="17.1"/><circle class="cls-14" cx="690.76" cy="503.65" r="13.37"/><circle class="cls-14" cx="690.76" cy="503.65" r="7.81"/><circle class="cls-14" cx="673.44" cy="539.13" r="17.1"/><circle class="cls-14" cx="673.44" cy="539.13" r="13.37"/><circle class="cls-14" cx="673.44" cy="539.13" r="7.81"/><circle class="cls-14" cx="673.44" cy="504.21" r="17.1"/><circle class="cls-14" cx="673.44" cy="504.21" r="13.37"/><circle class="cls-14" cx="673.44" cy="504.22" r="7.81"/><circle class="cls-14" cx="656.69" cy="521.53" r="17.1"/><circle class="cls-14" cx="656.69" cy="521.53" r="13.37"/><circle class="cls-14" cx="656.69" cy="521.53" r="7.81"/><circle class="cls-14" cx="690.9" cy="521.25" r="17.1"/><circle class="cls-14" cx="690.9" cy="521.25" r="13.37"/><circle class="cls-14" cx="690.9" cy="521.25" r="7.81"/><circle class="cls-14" cx="673.58" cy="521.39" r="17.1"/><circle class="cls-14" cx="673.58" cy="521.39" r="13.37"/><circle class="cls-14" cx="673.58" cy="521.39" r="7.81"/></g><text class="cls-18" transform="translate(627.56 607.09) scale(1.04 1)">Floral Design Studios</text><line id="white_line" data-name="white line" class="cls-19" x1="690.11" y1="571.09" x2="663.93" y2="600.54"/><g id="rebel_petal" data-name="rebel petal"><path class="cls-20" d="M607,594.71V573.9s10.37-1.62,10.37,5.49a5.89,5.89,0,0,1-4.56,5.92l-5.57,0"/><path class="cls-20" d="M612.42,585.43a70.14,70.14,0,0,0,5.07,6c1.46,1.36,3.44,2.74,4.18,2.78"/><path class="cls-20" d="M635.9,593.78a7.33,7.33,0,0,1-4.41,1.24c-2.71-.08-7.19-1.47-7-8.9.15-5,3.25-6.11,5.88-6.19,2.24-.07,5,1.55,5.49,6.11l-11.37.08"/><path class="cls-20" d="M667.77,593.78a7.34,7.34,0,0,1-4.41,1.24c-2.71-.08-7.19-1.47-7-8.9.16-5,3.25-6.11,5.88-6.19,2.24-.07,5,1.55,5.49,6.11l-11.37.08"/><path class="cls-20" d="M709.39,593.78A7.34,7.34,0,0,1,705,595c-2.71-.08-7.19-1.47-7-8.9.15-5,3.25-6.11,5.88-6.19,2.24-.07,5,1.55,5.49,6.11l-11.37.08"/><path class="cls-20" d="M640.93,572.12v22.2a23.59,23.59,0,0,0,3.71.7c.85,0,7.15.28,7.35-8.2.16-6.58-4.53-6.88-5.8-6.88,0,0-3.52-.08-5.23,2.73"/><line class="cls-20" x1="672.8" y1="571.96" x2="672.8" y2="594.79"/><line class="cls-20" x1="739.49" y1="571.96" x2="739.49" y2="594.79"/><path class="cls-20" d="M684.48,594.79v-21c3.25.08,9.52-.85,10.06,6,.53,6.72-8.43,5.88-8.43,5.88"/><path class="cls-20" d="M714.65,577.3s0,13.23,0,14.47c0,.85.63,3.23,3,3.2a9.4,9.4,0,0,0,3.44-.57"/><line class="cls-20" x1="711.79" y1="580.63" x2="720.38" y2="580.63"/><path class="cls-20" d="M724.32,581.25a7.38,7.38,0,0,1,4.41-1.39c2.55.08,3.77,1.66,3.87,2.71.07.77,0,10.37,0,10.37a2.86,2.86,0,0,0,3.09,2"/><path class="cls-20" d="M732.43,587.28s-8.41-.47-8.65,4.24,7.6,3.79,8.82,1.41"/></g></g><g id="Layer_7" data-name="Layer 7"><g id="petals-2" data-name="petals"><circle class="cls-21" cx="1064.8" cy="343.97" r="33.77"/><circle class="cls-21" cx="1064.8" cy="343.97" r="26.4"/><circle class="cls-21" cx="1064.8" cy="343.97" r="15.41"/><circle class="cls-21" cx="1064.13" cy="378.16" r="33.77"/><circle class="cls-21" cx="1064.13" cy="378.16" r="26.41"/><circle class="cls-21" cx="1064.13" cy="378.16" r="15.41"/><circle class="cls-21" cx="1006.51" cy="473.44" r="33.77"/><circle class="cls-21" cx="1006.51" cy="473.44" r="26.41"/><circle class="cls-21" cx="1006.51" cy="473.44" r="15.41"/><circle class="cls-21" cx="972.61" cy="473.72" r="33.77"/><circle class="cls-21" cx="972.61" cy="473.72" r="26.41"/><circle class="cls-21" cx="972.61" cy="473.72" r="15.41"/><circle class="cls-21" cx="877.32" cy="416.69" r="33.77"/><circle class="cls-21" cx="877.32" cy="416.69" r="26.41"/><circle class="cls-21" cx="877.32" cy="416.69" r="15.41"/><circle class="cls-21" cx="878.17" cy="380.96" r="33.77"/><circle class="cls-21" cx="878.17" cy="380.96" r="26.41"/><circle class="cls-21" cx="878.17" cy="380.96" r="15.41"/><circle class="cls-21" cx="934.77" cy="287.92" r="33.77"/><circle class="cls-21" cx="934.77" cy="287.92" r="26.41"/><circle class="cls-21" cx="934.77" cy="287.92" r="15.41"/><circle class="cls-21" cx="968.96" cy="286.24" r="33.77"/><circle class="cls-21" cx="968.96" cy="286.24" r="26.4"/><circle class="cls-21" cx="968.96" cy="286.24" r="15.41"/><circle class="cls-21" cx="1016.6" cy="299.69" r="33.77"/><circle class="cls-21" cx="1016.6" cy="299.69" r="26.41"/><circle class="cls-21" cx="1016.6" cy="299.69" r="15.41"/><circle class="cls-21" cx="1034.54" cy="328.28" r="33.77"/><circle class="cls-21" cx="1034.54" cy="328.28" r="26.41"/><circle class="cls-21" cx="1034.54" cy="328.28" r="15.41"/><circle class="cls-21" cx="1053.03" cy="426.36" r="33.77"/><circle class="cls-21" cx="1053.03" cy="426.36" r="26.41"/><circle class="cls-21" cx="1053.03" cy="426.36" r="15.41"/><circle class="cls-21" cx="1021.93" cy="442.33" r="33.77"/><circle class="cls-21" cx="1021.93" cy="442.33" r="26.41"/><circle class="cls-21" cx="1021.93" cy="442.33" r="15.41"/><circle class="cls-21" cx="924.12" cy="461.11" r="33.77"/><circle class="cls-21" cx="924.12" cy="461.11" r="26.41"/><circle class="cls-21" cx="924.12" cy="461.11" r="15.41"/><circle class="cls-21" cx="905.63" cy="431.96" r="33.77"/><circle class="cls-21" cx="905.63" cy="431.96" r="26.4"/><circle class="cls-21" cx="905.63" cy="431.96" r="15.41"/><circle class="cls-21" cx="889.38" cy="335" r="33.77"/><circle class="cls-21" cx="889.38" cy="335" r="26.41"/><circle class="cls-21" cx="889.38" cy="335" r="15.41"/><circle class="cls-21" cx="918.52" cy="317.06" r="33.77"/><circle class="cls-21" cx="918.52" cy="317.06" r="26.4"/><circle class="cls-21" cx="918.52" cy="317.06" r="15.41"/><circle class="cls-21" cx="1033.42" cy="362.46" r="33.77"/><circle class="cls-21" cx="1033.42" cy="362.46" r="26.4"/><circle class="cls-21" cx="1033.42" cy="362.46" r="15.41"/><circle class="cls-21" cx="1034.54" cy="396.65" r="33.77"/><circle class="cls-21" cx="1034.54" cy="396.65" r="26.4"/><circle class="cls-21" cx="1034.54" cy="396.65" r="15.41"/><circle class="cls-21" cx="988.58" cy="443.73" r="33.77"/><circle class="cls-21" cx="988.58" cy="443.73" r="26.41"/><circle class="cls-21" cx="988.58" cy="443.73" r="15.41"/><circle class="cls-21" cx="953.83" cy="444.74" r="33.77"/><circle class="cls-21" cx="953.83" cy="444.74" r="26.4"/><circle class="cls-21" cx="953.83" cy="444.74" r="15.41"/><circle class="cls-21" cx="906.75" cy="397.77" r="33.77"/><circle class="cls-21" cx="906.75" cy="397.77" r="26.41"/><circle class="cls-21" cx="906.75" cy="397.77" r="15.41"/><circle class="cls-21" cx="906.75" cy="363.59" r="33.77"/><circle class="cls-21" cx="906.75" cy="363.58" r="26.41"/><circle class="cls-21" cx="906.75" cy="363.59" r="15.41"/><circle class="cls-21" cx="952.71" cy="315.94" r="33.77"/><circle class="cls-21" cx="952.71" cy="315.94" r="26.4"/><circle class="cls-21" cx="952.71" cy="315.94" r="15.41"/><circle class="cls-21" cx="986.34" cy="315.38" r="33.77"/><circle class="cls-21" cx="986.34" cy="315.38" r="26.41"/><circle class="cls-21" cx="986.34" cy="315.38" r="15.41"/><circle class="cls-21" cx="935.33" cy="415.15" r="33.77"/><circle class="cls-21" cx="935.33" cy="415.15" r="26.41"/><circle class="cls-21" cx="935.33" cy="415.15" r="15.41"/><circle class="cls-22" cx="935.89" cy="345.65" r="33.77"/><circle class="cls-23" cx="935.89" cy="345.65" r="26.4"/><circle class="cls-24" cx="935.89" cy="345.65" r="15.41"/><circle class="cls-21" cx="1004.13" cy="413.19" r="33.77"/><circle class="cls-21" cx="1004.13" cy="413.19" r="26.41"/><circle class="cls-21" cx="1004.13" cy="413.19" r="15.41"/><circle class="cls-21" cx="1003.71" cy="343.97" r="33.77"/><circle class="cls-21" cx="1003.71" cy="343.97" r="26.4"/><circle class="cls-21" cx="1003.71" cy="343.97" r="15.41"/><circle class="cls-21" cx="969.52" cy="414.03" r="33.77"/><circle class="cls-21" cx="969.52" cy="414.03" r="26.4"/><circle class="cls-21" cx="969.52" cy="414.03" r="15.41"/><circle class="cls-21" cx="969.52" cy="345.09" r="33.77"/><circle class="cls-21" cx="969.52" cy="345.09" r="26.4"/><circle class="cls-21" cx="969.52" cy="345.09" r="15.41"/><circle class="cls-21" cx="936.45" cy="379.28" r="33.77"/><circle class="cls-21" cx="936.45" cy="379.28" r="26.41"/><circle class="cls-21" cx="936.45" cy="379.28" r="15.41"/><circle class="cls-21" cx="1003.99" cy="378.72" r="33.77"/><circle class="cls-21" cx="1003.99" cy="378.72" r="26.41"/><circle class="cls-21" cx="1003.99" cy="378.72" r="15.41"/><circle class="cls-21" cx="969.8" cy="379" r="33.77"/><circle class="cls-21" cx="969.8" cy="379" r="26.4"/><circle class="cls-21" cx="969.8" cy="379" r="15.41"/></g><g id="mask"><path class="cls-25" d="M968,238c83.81,0,151.75,63.8,151.75,142.5S1051.79,523,968,523s-151.75-63.8-151.75-142.5S884.17,238,968,238Zm111.39,141A109.57,109.57,0,1,0,969.8,488.57,109.58,109.58,0,0,0,1079.37,379Z"/><circle class="cls-26" cx="969.8" cy="379" r="109.57"/></g><g id="words"><g id="rebel_petal-2" data-name="rebel petal"><path class="cls-27" d="M881.91,384.38V356.59s13.84-2.17,13.84,7.33a7.87,7.87,0,0,1-6.09,7.9l-7.44-.05"/><path class="cls-27" d="M889.19,372A93.87,93.87,0,0,0,896,380c1.95,1.81,4.59,3.67,5.58,3.72"/><path class="cls-27" d="M920.54,383.14a9.8,9.8,0,0,1-5.89,1.65c-3.61-.1-9.61-2-9.29-11.88.2-6.61,4.33-8.16,7.85-8.26,3-.09,6.72,2.07,7.34,8.16l-15.18.1"/><path class="cls-27" d="M963.1,383.14a9.8,9.8,0,0,1-5.89,1.65c-3.61-.1-9.6-2-9.3-11.88.21-6.61,4.34-8.16,7.85-8.26,3-.09,6.71,2.07,7.33,8.16l-15.19.1"/><path class="cls-27" d="M1018.67,383.14a9.78,9.78,0,0,1-5.89,1.65c-3.62-.1-9.6-2-9.3-11.88.21-6.61,4.34-8.16,7.85-8.26,3-.09,6.72,2.07,7.33,8.16l-15.18.1"/><path class="cls-27" d="M927.25,354.21v29.65s3.7.86,5,.93,9.55.37,9.81-11c.21-8.78-6.06-9.18-7.75-9.19,0,0-4.7-.11-7,3.65"/><line class="cls-27" x1="969.81" y1="354.01" x2="969.81" y2="384.48"/><line class="cls-27" x1="1058.85" y1="354.01" x2="1058.85" y2="384.48"/><path class="cls-27" d="M985.41,384.48v-28c4.34.1,12.71-1.14,13.43,8.06.7,9-11.26,7.85-11.26,7.85"/><path class="cls-27" d="M1025.69,361.14s0,17.66,0,19.32c0,1.13.84,4.31,4,4.27a12.51,12.51,0,0,0,4.59-.76"/><line class="cls-27" x1="1021.87" y1="365.58" x2="1033.33" y2="365.58"/><path class="cls-27" d="M1038.6,366.4a9.82,9.82,0,0,1,5.89-1.86c3.41.1,5,2.21,5.17,3.61.09,1,0,13.84,0,13.84a3.82,3.82,0,0,0,4.13,2.69"/><path class="cls-27" d="M1049.43,374.46s-11.23-.62-11.55,5.66,10.15,5.06,11.78,1.89"/></g><text class="cls-28" transform="translate(897.22 403.03) scale(1.04 1)">Floral Design Studios</text></g><g id="flower"><g id="outside_petals" data-name="outside petals"><path class="cls-29" d="M157.3,467.42a80.44,80.44,0,0,0-2.49,24.78"/><path class="cls-29" d="M204.19,491.72c5.23-35.62-24-55.86-24-55.86s-7.9,4.18-14.92,14.46"/><path class="cls-29" d="M139.27,461.43a61.55,61.55,0,0,0,6.6,42.47"/><path class="cls-29" d="M190.58,485s-4.09-20.37-25.36-34.67"/><path class="cls-29" d="M139.49,461.52a73.94,73.94,0,0,0-20.69-.26s-8.22,28.9,22.17,57.54"/><path class="cls-29" d="M175.6,484.17s-5.33-9.78-18.31-16.73"/><path class="cls-29" d="M161.56,489s-23.33-18.74-61.69.45c0,0,7.77,37.05,43.14,44.28"/><path class="cls-29" d="M150.19,497.62s-32.38-5.23-56.55,24.66c0,0,20.17,30.16,56.79,24.43"/><path class="cls-29" d="M143.2,511.32s-30.62,5.74-43.08,43.35c0,0,26.3,21.37,61.92,1.94"/><path class="cls-29" d="M141.87,525.69s-26.55,17-23.06,57.38c0,0,38.14,7.93,57.32-22.46"/><path class="cls-29" d="M145.7,540.22s-17.44,25.16,1,61.78c0,0,34.88-5.48,44.84-42.6"/><path class="cls-29" d="M155.28,551.95s-8,30.36,24.71,56.77c0,0,29.66-15.82,24.68-56.67"/><path class="cls-29" d="M168.12,558.49s5.73,33.55,44.34,44c0,0,23.28-21.61.86-62"/><path class="cls-29" d="M183.83,560.8s18.92,28.25,57.28,22.77c0,0,11.06-30.42-22.08-58.07"/><path class="cls-29" d="M198,556.66s32.13,19.18,62-1c0,0-.5-31.89-42.6-45.34"/><path class="cls-29" d="M209.73,546.7s34.13,8,56.3-24.16c0,0-10.46-28.4-56-25.91"/><path class="cls-29" d="M218.44,517.8s27.15-10.46,23.17-56.3c0,0-30.17-10.1-58.07,22"/><path class="cls-29" d="M213.71,503.35s20.43-26.65-.5-61c0,0-31.73,1.54-45.18,42.64"/><path class="cls-29" d="M217.2,533.08s31.55-2.49,42.18-43.68c0,0-19.6-21.92-61.11-2.32"/><path class="cls-29" d="M139.26,461.47a65.78,65.78,0,0,1,7.44-20.14,75.88,75.88,0,0,1,18.56,9h0a59.23,59.23,0,0,0-8,17.13h0a58.32,58.32,0,0,0-18-6Z"/></g></g><g id="rebel_petal-3" data-name="rebel petal"><path class="cls-30" d="M285.54,549.32s1.29,1.65,1.29,7c0,7.4.09,13.8.09,13.8"/><path class="cls-30" d="M298,549.67s-8.34-2.84-11.18,8.17"/><path class="cls-30" d="M319.93,568.32a39.16,39.16,0,0,1-8.77,1.8c-3.53.09-10.4-1.38-10.58-10.49s7.14-10.74,9.89-10.83,11,.95,11,10.58l-20.55.17"/><path class="cls-30" d="M328.27,539.18v28.89a22.58,22.58,0,0,0,9.89,2c6.19,0,10.14-3.35,10.14-10.14s-3.78-10.83-9.72-10.83-9.2,3.09-10.32,7.22"/><path class="cls-30" d="M390.26,549.06a15.55,15.55,0,0,1,1.38,6.79c0,4.21-.17,24.24-.17,24.24"/><path class="cls-30" d="M391.82,567a14.45,14.45,0,0,0,9.27,3.13c5.85,0,10.4-2.92,10.4-10.23s-4.73-11-9.63-11-9.29,3.27-10.23,6.37"/><path class="cls-30" d="M445.8,543.9v18.22s-.26,5.07,1.38,6.45a5.53,5.53,0,0,0,4,1.37,10.81,10.81,0,0,0,3.87-.86"/><line class="cls-30" x1="442.7" y1="549.49" x2="455.25" y2="549.49"/><path class="cls-30" d="M461,551a21.17,21.17,0,0,1,8.51-1.72c5,0,9.63.95,9.63,10.32s1.2,10.4,1.2,10.4"/><path class="cls-30" d="M478.64,559.55H467.29s-7.61-.13-7.61,5.2,7.61,5.29,7.61,5.29,10.89.9,11.95-6.75"/><path class="cls-30" d="M373.92,568.41a39.18,39.18,0,0,1-8.77,1.81c-3.53.09-10.4-1.38-10.58-10.49s7.14-10.75,9.89-10.83,11,.94,11,10.57l-20.55.17"/><path class="cls-30" d="M437.11,568.49a39.16,39.16,0,0,1-8.77,1.81c-3.52.08-10.4-1.38-10.57-10.49s7.14-10.75,9.89-10.83,11,.94,11,10.57l-20.55.17"/><line class="cls-30" x1="382.43" y1="539.18" x2="382.43" y2="570.13"/><line class="cls-30" x1="486.46" y1="539.52" x2="486.46" y2="570.47"/></g><text class="cls-31" transform="translate(299.09 596.56)"><tspan class="cls-32">f</tspan><tspan x="7.41" y="0">loral design studios</tspan></text><ellipse class="cls-33" cx="180.94" cy="520.97" rx="60.27" ry="59.06"/><path class="cls-7" d="M413.08,265.3s-57.63-38.42-14.81-81.36c0,0,49,25.77,27.79,79.88Z"/><path class="cls-7" d="M428.24,265.72s57.87-39.15,15-82.09c0,0-49.22,27.56-28,81.67Z"/><path class="cls-6" d="M426.38,268.25S501,252.31,489.9,201c0,0-54.55,6.39-70,61.39Z"/><path class="cls-6" d="M411.23,269.52s-72.39-15.62-61.23-67c0,0,56.91,6.29,72.37,61.29Z"/><text class="cls-34" transform="translate(347.81 298.76)"><tspan class="cls-35">R</tspan><tspan x="16.71" y="0">eble </tspan><tspan class="cls-36" x="78.96" y="0">P</tspan><tspan class="cls-37" x="94.57" y="0">a</tspan><tspan class="cls-38" x="109.3" y="0">tal</tspan></text><path class="cls-39" d="M426.22,266.78s69.52-29.67,41.22-77.87c0,0-55.13,11.19-51.42,75.66Z"/><path class="cls-39" d="M411.39,267.72S348.66,236.47,377,188.27c0,0,53.9,16.88,49.26,78.51Z"/><path class="cls-40" d="M433.49,270.17s70.06-4,72.07-55.87c0,0-57.14-5.1-86.29,47.26Z"/><path class="cls-40" d="M409,269.22s-70.06-4-72.07-55.87c0,0,56.83-4.31,86,48.05Z"/><path class="cls-41" d="M426.22,266.78s48.23-47.56-4.64-84.94c0,0-48.23,27.42-7,85.25Z"/><path class="cls-42" d="M395.46,267.41s21.16.24,25.3-9.63l.83.15c4.14,9.87,26.28,10.22,26.28,10.22-21.64,5.79-26.63,12.14-26.63,12.14S416,272.78,395.46,267.41Z"/><circle class="cls-39" cx="688.8" cy="90.37" r="54.85"/><path class="cls-39" d="M689.51,120.51a30.57,30.57,0,0,1-16.66,10s-6-9.18-4.78-19C668.07,111.49,674.8,120,689.51,120.51Z"/><path class="cls-43" d="M690,119.36a26.55,26.55,0,0,1-4.4,4.22,31.5,31.5,0,0,1-5.24,3.34c-1.27.64-5.6,3-7,2.45-1.19-.5-2.47-4.81-2.86-5.82a29,29,0,0,1-1.92-13.2l-1,2.31c5,6.19,13.86,8.58,21.44,9,.29,0,.7-2.32,1-2.31-7.59-.44-16.4-2.83-21.44-9,.17.21-.92,2-1,2.31a29,29,0,0,0,1.92,13.2c.46,1.2,1.58,5.17,2.86,5.82s5.37-1.65,6.46-2.17a31.34,31.34,0,0,0,5.8-3.62,26.6,26.6,0,0,0,4.4-4.22C689.54,121,689.5,120,690,119.36Z"/><path class="cls-39" d="M689.39,60.28c6.08-7.84,16.83-10.07,16.83-10.07a30.57,30.57,0,0,1,4.71,18.85s-8.93-9.78-21.54-8.78"/><path class="cls-43" d="M688.91,61.44a29,29,0,0,1,10.69-8c1.17-.52,4.77-2.53,6.14-2.09s2.63,5,3,6.1a31.34,31.34,0,0,1,1.54,6.66,26.6,26.6,0,0,1,.13,6.09l1-2.31a28.22,28.22,0,0,0-21.54-8.78c-.37,0-.62,2.3-1,2.31a28.22,28.22,0,0,1,21.54,8.78c-.15-.16.92-2,1-2.31a26.55,26.55,0,0,0-.13-6.09,31.5,31.5,0,0,0-1.35-6.07c-.45-1.35-1.81-6.12-3.23-6.69-1.2-.48-5.14,1.65-6.14,2.09a29,29,0,0,0-10.69,8c-.51.62-.45,1.7-1,2.31Z"/><path class="cls-39" d="M678,118.23a30.57,30.57,0,0,1-19.22,2.86s-2.06-10.79,2.86-19.4C661.61,101.69,664.56,112.13,678,118.23Z"/><path class="cls-43" d="M678.85,117.35a26.55,26.55,0,0,1-5.68,2.21,31.5,31.5,0,0,1-6.12,1.08c-1.42.11-6.34.67-7.42-.42-.9-.92-.44-5.38-.41-6.47a29,29,0,0,1,3.28-12.93l-1.77,1.77c2.29,7.65,9.52,13.23,16.35,16.54.26.13,1.54-1.88,1.77-1.77-6.84-3.31-14.07-8.89-16.35-16.54.08.26-1.6,1.45-1.77,1.77a29,29,0,0,0-3.28,12.93c0,1.29-.52,5.38.41,6.47s5.59.53,6.8.47a31.34,31.34,0,0,0,6.75-1.12,26.6,26.6,0,0,0,5.68-2.21C677.78,118.72,678.15,117.73,678.85,117.35Z"/><path class="cls-39" d="M700.9,62.54c8.62-4.92,19.4-2.87,19.4-2.87a30.57,30.57,0,0,1-2.86,19.22s-4.51-12.45-16.54-16.35"/><path class="cls-43" d="M700,63.42a29,29,0,0,1,12.93-3.28c1.29,0,5.38-.52,6.47.41s.53,5.59.47,6.8a31.34,31.34,0,0,1-1.12,6.75,26.6,26.6,0,0,1-2.21,5.68L718.32,78a28.22,28.22,0,0,0-16.54-16.35c-.35-.13-1.45,1.88-1.77,1.77a28.22,28.22,0,0,1,16.54,16.35c-.08-.2,1.61-1.49,1.77-1.77a26.55,26.55,0,0,0,2.21-5.68,31.5,31.5,0,0,0,1.08-6.12c.11-1.42.67-6.34-.42-7.42-.92-.9-5.38-.44-6.47-.41a29,29,0,0,0-12.93,3.28c-.71.38-1.07,1.4-1.77,1.77Z"/><path class="cls-39" d="M668.17,111.7A30.57,30.57,0,0,1,649.31,107s2.23-10.75,10.07-16.83C659.38,90.16,658.12,100.94,668.17,111.7Z"/><path class="cls-43" d="M669.32,111.22a26.55,26.55,0,0,1-6.09-.13,31.5,31.5,0,0,1-6.07-1.35c-1.35-.45-6.12-1.81-6.69-3.23-.48-1.2,1.65-5.14,2.09-6.14a29,29,0,0,1,8-10.69l-2.31,1c-.81,7.94,3.73,15.87,8.78,21.54.19.22,2.14-1.15,2.31-1-5.06-5.68-9.6-13.6-8.78-21.54,0,.27-2,.73-2.31,1a29,29,0,0,0-8,10.69c-.52,1.17-2.53,4.77-2.09,6.14s5,2.63,6.1,3a31.34,31.34,0,0,0,6.66,1.54,26.6,26.6,0,0,0,6.09.13C667.81,112.09,668.53,111.31,669.32,111.22Z"/><path class="cls-39" d="M710.67,69c9.84-1.25,19,4.78,19,4.78a30.57,30.57,0,0,1-10,16.66s.6-13.23-9-21.44"/><path class="cls-43" d="M709.51,69.5a29,29,0,0,1,13.2,1.92c1.2.46,5.17,1.58,5.82,2.86s-1.65,5.37-2.17,6.46a31.34,31.34,0,0,1-3.62,5.8,26.6,26.6,0,0,1-4.22,4.4l2.31-1a28.22,28.22,0,0,0-9-21.44c-.27-.25-2.06,1.18-2.31,1a28.22,28.22,0,0,1,9,21.44c0-.22,2.06-.76,2.31-1a26.55,26.55,0,0,0,4.22-4.4,31.5,31.5,0,0,0,3.34-5.24c.64-1.27,3-5.6,2.45-7-.5-1.19-4.8-2.47-5.82-2.86a29,29,0,0,0-13.2-1.92c-.8.08-1.52.88-2.31,1Z"/><path class="cls-39" d="M661.61,101.92A30.57,30.57,0,0,1,646,90.36s6.17-9.08,15.75-11.7C661.74,78.66,656.45,88.13,661.61,101.92Z"/><path class="cls-43" d="M662.86,101.92a26.55,26.55,0,0,1-5.58-2.45,31.5,31.5,0,0,1-5.09-3.57c-1.08-.93-5-4-4.95-5.55,0-1.29,3.49-4.12,4.28-4.87A29,29,0,0,1,663,78.66h-2.5c-3.79,7-2.63,16.09-.13,23.26.1.27,2.42-.24,2.5,0-2.5-7.18-3.66-16.23.13-23.26-.13.23-2.16-.1-2.5,0A29,29,0,0,0,649,85.49c-.93.88-4.17,3.44-4.28,4.87-.1,1.27,3.58,4.33,4.47,5.14a31.34,31.34,0,0,0,5.56,4,26.6,26.6,0,0,0,5.58,2.45C661.14,102.14,662.1,101.7,662.86,101.92Z"/><path class="cls-39" d="M717.21,78.76C726.78,81.37,733,90.45,733,90.45A30.57,30.57,0,0,1,717.34,102s5.62-12-.13-23.26"/><path class="cls-43" d="M716,78.76a29,29,0,0,1,11.46,6.83c.93.88,4.17,3.44,4.28,4.87.1,1.27-3.58,4.33-4.47,5.14a31.34,31.34,0,0,1-5.56,4,26.6,26.6,0,0,1-5.58,2.45h2.5a28.22,28.22,0,0,0-.13-23.26c-.15-.33-2.36.3-2.5,0a28.22,28.22,0,0,1,.13,23.26c.09-.2,2.19.09,2.5,0a26.55,26.55,0,0,0,5.58-2.45A31.5,31.5,0,0,0,729.26,96c1.08-.93,5-4,4.95-5.55,0-1.29-3.49-4.12-4.28-4.87a29,29,0,0,0-11.46-6.83c-.77-.24-1.74.23-2.5,0Z"/><path class="cls-39" d="M659.3,90.37a30.57,30.57,0,0,1-10-16.66s9.18-6,19-4.78C668.32,68.94,659.81,75.66,659.3,90.37Z"/><path class="cls-43" d="M660.45,90.85a26.55,26.55,0,0,1-4.22-4.4,31.5,31.5,0,0,1-3.34-5.24c-.64-1.27-3-5.6-2.45-7,.5-1.19,4.81-2.47,5.82-2.86a29,29,0,0,1,13.2-1.92l-2.31-1c-6.19,5-8.58,13.86-9,21.44,0,.29,2.32.7,2.31,1,.44-7.59,2.83-16.4,9-21.44-.21.17-2-.92-2.31-1A29,29,0,0,0,654,70.38c-1.2.46-5.17,1.58-5.82,2.86s1.65,5.37,2.17,6.46a31.34,31.34,0,0,0,3.62,5.8,26.6,26.6,0,0,0,4.22,4.4C658.77,90.4,659.83,90.36,660.45,90.85Z"/><path class="cls-39" d="M719.53,90.25c7.84,6.08,10.07,16.83,10.07,16.83a30.57,30.57,0,0,1-18.85,4.71s9.78-8.93,8.78-21.54"/><path class="cls-43" d="M718.38,89.78a29,29,0,0,1,8,10.69c.52,1.17,2.53,4.77,2.09,6.14s-5,2.63-6.1,3a31.34,31.34,0,0,1-6.66,1.54,26.6,26.6,0,0,1-6.09.13l2.31,1a28.22,28.22,0,0,0,8.78-21.54c0-.37-2.3-.62-2.31-1a28.22,28.22,0,0,1-8.78,21.54c.16-.15,2,.92,2.31,1a26.55,26.55,0,0,0,6.09-.13,31.5,31.5,0,0,0,6.07-1.35c1.35-.45,6.12-1.81,6.69-3.23.48-1.2-1.65-5.14-2.09-6.14a29,29,0,0,0-8-10.69c-.62-.51-1.7-.45-2.31-1Z"/><path class="cls-39" d="M661.58,78.82a30.57,30.57,0,0,1-2.86-19.22s10.79-2.06,19.4,2.86C678.12,62.47,667.68,65.42,661.58,78.82Z"/><path class="cls-43" d="M662.47,79.71A26.55,26.55,0,0,1,660.25,74a31.5,31.5,0,0,1-1.08-6.12c-.11-1.42-.67-6.34.42-7.42.92-.9,5.38-.44,6.47-.41A29,29,0,0,1,679,63.35l-1.77-1.77C669.59,63.87,664,71.1,660.7,77.94c-.13.26,1.88,1.54,1.77,1.77,3.31-6.84,8.89-14.07,16.54-16.35-.26.08-1.45-1.6-1.77-1.77a29,29,0,0,0-12.93-3.28c-1.29,0-5.38-.52-6.47.41s-.53,5.59-.47,6.8a31.34,31.34,0,0,0,1.12,6.75,26.6,26.6,0,0,0,2.21,5.68C661.09,78.65,662.08,79,662.47,79.71Z"/><path class="cls-39" d="M717.27,101.76c4.92,8.62,2.87,19.4,2.87,19.4a30.57,30.57,0,0,1-19.22-2.86s12.45-4.51,16.35-16.54"/><path class="cls-43" d="M716.39,100.88a29,29,0,0,1,3.28,12.93c0,1.29.52,5.38-.41,6.47s-5.59.53-6.8.47a31.34,31.34,0,0,1-6.75-1.12,26.6,26.6,0,0,1-5.68-2.21l1.77,1.77a28.22,28.22,0,0,0,16.35-16.54c.13-.35-1.88-1.45-1.77-1.77A28.22,28.22,0,0,1,700,117.42c.2-.08,1.49,1.61,1.77,1.77a26.55,26.55,0,0,0,5.68,2.21,31.5,31.5,0,0,0,6.12,1.08c1.42.11,6.34.67,7.42-.42.9-.92.44-5.38.41-6.47a29,29,0,0,0-3.28-12.93c-.38-.71-1.4-1.07-1.77-1.77Z"/><path class="cls-39" d="M668.11,69a30.57,30.57,0,0,1,4.71-18.85s10.75,2.23,16.83,10.07C689.65,60.25,678.88,59,668.11,69Z"/><path class="cls-43" d="M668.59,70.18a26.55,26.55,0,0,1,.13-6.09A31.5,31.5,0,0,1,670.07,58c.45-1.35,1.81-6.12,3.23-6.69,1.2-.48,5.14,1.65,6.14,2.09a29,29,0,0,1,10.69,8l-1-2.31c-7.94-.81-15.87,3.73-21.54,8.78-.22.19,1.15,2.14,1,2.31,5.68-5.06,13.6-9.6,21.54-8.78-.27,0-.73-2-1-2.31a29,29,0,0,0-10.69-8c-1.17-.52-4.77-2.53-6.14-2.09s-2.63,5-3,6.1a31.34,31.34,0,0,0-1.54,6.66,26.6,26.6,0,0,0-.13,6.09C667.72,68.67,668.5,69.39,668.59,70.18Z"/><path class="cls-39" d="M710.79,111.53c1.25,9.84-4.78,19-4.78,19a30.57,30.57,0,0,1-16.66-10s13.23.6,21.44-9"/><path class="cls-43" d="M710.31,110.38a29,29,0,0,1-1.92,13.2c-.46,1.2-1.58,5.17-2.86,5.82s-5.37-1.65-6.46-2.17a31.34,31.34,0,0,1-5.8-3.62,26.6,26.6,0,0,1-4.4-4.22l1,2.31a28.22,28.22,0,0,0,21.44-9c.25-.27-1.18-2.06-1-2.31a28.22,28.22,0,0,1-21.44,9c.22,0,.76,2.06,1,2.31a26.55,26.55,0,0,0,4.4,4.22,31.5,31.5,0,0,0,5.24,3.34c1.27.64,5.6,3,7,2.45,1.19-.5,2.47-4.8,2.86-5.82a29,29,0,0,0,1.92-13.2c-.08-.8-.88-1.52-1-2.31Z"/><path class="cls-39" d="M677.89,62.47a30.57,30.57,0,0,1,11.56-15.62s9.08,6.17,11.7,15.75C701.15,62.6,691.68,57.31,677.89,62.47Z"/><path class="cls-43" d="M677.89,63.72a26.55,26.55,0,0,1,2.45-5.58,31.5,31.5,0,0,1,3.57-5.09c.93-1.08,4-5,5.55-4.95,1.29,0,4.12,3.49,4.87,4.28a29,29,0,0,1,6.83,11.46v-2.5c-7-3.79-16.09-2.63-23.26-.13-.27.1.24,2.42,0,2.5,7.18-2.5,16.23-3.66,23.26.13-.23-.13.1-2.16,0-2.5a29,29,0,0,0-6.83-11.46c-.88-.93-3.44-4.17-4.87-4.28-1.27-.1-4.33,3.58-5.14,4.47a31.34,31.34,0,0,0-4,5.56,26.6,26.6,0,0,0-2.45,5.58C677.67,62,678.11,63,677.89,63.72Z"/><path class="cls-39" d="M701.05,118.07c-2.61,9.57-11.69,15.75-11.69,15.75a30.57,30.57,0,0,1-11.56-15.61s12,5.62,23.26-.13"/><path class="cls-43" d="M701.05,116.82a29,29,0,0,1-6.83,11.46c-.88.93-3.44,4.17-4.87,4.28-1.27.1-4.33-3.58-5.14-4.47a31.34,31.34,0,0,1-4-5.56,26.6,26.6,0,0,1-2.45-5.58v2.5a28.22,28.22,0,0,0,23.26-.13c.33-.15-.3-2.36,0-2.5a28.22,28.22,0,0,1-23.26.13c.2.09-.09,2.19,0,2.5a26.55,26.55,0,0,0,2.45,5.58,31.5,31.5,0,0,0,3.57,5.09c.93,1.08,4,5,5.55,4.95,1.29,0,4.12-3.49,4.87-4.28a29,29,0,0,0,6.83-11.46c.24-.77-.23-1.74,0-2.5Z"/><text class="cls-44" transform="translate(613.22 172.62)"><tspan class="cls-45">R</tspan><tspan x="17.77" y="0">eble </tspan><tspan class="cls-46" x="83.98" y="0">P</tspan><tspan x="100.6" y="0">etal</tspan></text><path class="cls-43" d="M952.65,144.79s-10.88,13.93-29.34,17.61c0,0-10.62-16.17-8.42-33.5C914.9,128.9,926.74,143.9,952.65,144.79Z"/><path class="cls-47" d="M953.13,143.64a45.9,45.9,0,0,1-7.75,7.43,55.59,55.59,0,0,1-8.91,5.72,50.51,50.51,0,0,1-5.95,2.58c-1.23.44-5.57,2.42-6.73,1.88-2.09-1-4.08-7.83-4.83-9.72a50.29,50.29,0,0,1-3.59-23.78l-1,2.31c8.74,10.87,24.51,15.24,37.76,15.89.3,0,.69-2.32,1-2.31-13.25-.64-29-5-37.76-15.89.17.21-.92,2-1,2.31a50,50,0,0,0,3.38,23.25,64,64,0,0,0,3.32,7.3c.32.6,1,2.64,1.71,3,1.07.5,4.91-1.25,6-1.63a49.58,49.58,0,0,0,6-2.53,55.13,55.13,0,0,0,9.1-5.7,46.51,46.51,0,0,0,8.18-7.76C952.68,145.31,952.64,144.26,953.13,143.64Z"/><path class="cls-43" d="M952.44,38.72C963.14,24.9,982.08,21,982.08,21c10.45,15.66,8.29,33.2,8.29,33.2S974.65,37,952.44,38.72"/><path class="cls-47" d="M952,39.87a50,50,0,0,1,18.83-14A64,64,0,0,1,978.31,23c.65-.2,2.6-1.14,3.29-.88,1.11.41,2.59,4.35,3.11,5.41a49.59,49.59,0,0,1,2.48,6,55.13,55.13,0,0,1,2.41,10.46,46.51,46.51,0,0,1,.3,11.28l1-2.31a49.21,49.21,0,0,0-37.93-15.46c-.38,0-.61,2.29-1,2.31a49.21,49.21,0,0,1,37.93,15.46c-.15-.16.92-2,1-2.31a45.9,45.9,0,0,0-.23-10.73,55.6,55.6,0,0,0-2.25-10.34,50.51,50.51,0,0,0-2.38-6c-.56-1.18-2.23-5.65-3.43-6.09-2.17-.79-8.43,2.65-10.29,3.46a50.3,50.3,0,0,0-19.35,14.28c-.51.63-.46,1.69-1,2.31Z"/><path class="cls-43" d="M932.31,140.77s-15.38,8.71-33.85,5c0,0-3.62-19,5-34.17C903.51,111.64,908.71,130,932.31,140.77Z"/><path class="cls-47" d="M933.19,139.89a45.9,45.9,0,0,1-10,3.89,55.59,55.59,0,0,1-10.42,1.88,50.51,50.51,0,0,1-6.48.11c-1.31-.06-6.08.11-6.94-.84-1.56-1.7-.78-8.8-.74-10.83a50.29,50.29,0,0,1,5.79-23.34l-1.77,1.77c3.92,13.39,16.81,23.46,28.8,29.13.27.13,1.53-1.88,1.77-1.77-12-5.67-24.89-15.74-28.8-29.13.07.26-1.6,1.45-1.77,1.77a50,50,0,0,0-5.77,22.77,64,64,0,0,0,.28,8c.07.68-.06,2.83.45,3.38.8.87,5,.73,6.19.8a49.58,49.58,0,0,0,6.54,0,55.13,55.13,0,0,0,10.59-1.78,46.51,46.51,0,0,0,10.53-4C932.13,141.26,932.5,140.27,933.19,139.89Z"/><path class="cls-43" d="M972.71,42.69c15.17-8.67,34.17-5,34.17-5,3.66,18.47-5,33.85-5,33.85s-7.94-21.93-29.13-28.8"/><path class="cls-47" d="M971.82,43.57a50,50,0,0,1,22.77-5.77,64,64,0,0,1,8,.28c.68.07,2.83-.06,3.38.45.87.8.73,5,.8,6.19a49.59,49.59,0,0,1,0,6.54A55.13,55.13,0,0,1,1005,61.84a46.51,46.51,0,0,1-4,10.53l1.77-1.77a49.21,49.21,0,0,0-29.13-28.8c-.36-.12-1.44,1.88-1.77,1.77a49.21,49.21,0,0,1,29.13,28.8c-.08-.21,1.61-1.49,1.77-1.77a45.9,45.9,0,0,0,3.89-10,55.6,55.6,0,0,0,1.88-10.42,50.51,50.51,0,0,0,.11-6.48c-.06-1.31.11-6.08-.84-6.94-1.7-1.56-8.8-.78-10.83-.74a50.3,50.3,0,0,0-23.34,5.78c-.71.38-1.07,1.39-1.77,1.77Z"/><path class="cls-43" d="M915.06,129.27s-17.54,2.16-33.2-8.29c0,0,3.92-18.94,17.74-29.64C899.59,91.34,897.36,110.31,915.06,129.27Z"/><path class="cls-47" d="M916.21,128.79a45.9,45.9,0,0,1-10.73-.23,55.59,55.59,0,0,1-10.34-2.25,50.51,50.51,0,0,1-6-2.38c-1.18-.56-5.65-2.23-6.09-3.43-.79-2.17,2.65-8.43,3.46-10.29a50.29,50.29,0,0,1,14.28-19.35l-2.31,1c-1.51,13.87,6.55,28.11,15.46,37.93.2.22,2.13-1.15,2.31-1-8.92-9.83-17-24.06-15.46-37.93,0,.26-2,.73-2.31,1a50,50,0,0,0-14,18.83,64,64,0,0,0-2.81,7.52c-.2.65-1.14,2.6-.88,3.29.41,1.11,4.35,2.59,5.41,3.11a49.58,49.58,0,0,0,6,2.48,55.13,55.13,0,0,0,10.46,2.41,46.51,46.51,0,0,0,11.28.3C914.7,129.66,915.42,128.88,916.21,128.79Z"/><path class="cls-43" d="M989.91,54.11c17.33-2.2,33.5,8.42,33.5,8.42-3.69,18.47-17.61,29.34-17.61,29.34s1.06-23.3-15.89-37.76"/><path class="cls-47" d="M988.76,54.59A50,50,0,0,1,1012,58a64,64,0,0,1,7.3,3.32c.6.32,2.64,1,3,1.71.5,1.07-1.25,4.91-1.63,6a49.59,49.59,0,0,1-2.53,6,55.13,55.13,0,0,1-5.7,9.1,46.51,46.51,0,0,1-7.76,8.18l2.31-1a49.21,49.21,0,0,0-15.89-37.76c-.28-.25-2.05,1.19-2.31,1a49.21,49.21,0,0,1,15.89,37.76c0-.22,2.06-.76,2.31-1a45.9,45.9,0,0,0,7.43-7.75,55.6,55.6,0,0,0,5.72-8.91,50.51,50.51,0,0,0,2.58-5.95c.44-1.23,2.42-5.57,1.88-6.73-1-2.09-7.83-4.08-9.72-4.83a50.3,50.3,0,0,0-23.78-3.59c-.8.09-1.52.87-2.31,1Z"/><path class="cls-43" d="M903.52,112s-17-4.72-27.5-20.37c0,0,10.87-16,27.73-20.6C903.74,71.08,894.42,87.76,903.52,112Z"/><path class="cls-47" d="M904.77,112a45.9,45.9,0,0,1-9.83-4.32,55.59,55.59,0,0,1-8.7-6,50.51,50.51,0,0,1-4.66-4.51c-.88-1-4.37-4.22-4.32-5.5.1-2.3,5.67-6.77,7.13-8.18A50.29,50.29,0,0,1,905,71.08h-2.5c-6.7,12.23-4.71,28.47-.23,41,.1.28,2.41-.25,2.5,0-4.48-12.49-6.47-28.73.23-41-.13.23-2.16-.1-2.5,0a50,50,0,0,0-20.18,12A64,64,0,0,0,876.84,89c-.43.53-2,2-2.07,2.71,0,1.18,3,4.06,3.81,4.95a49.58,49.58,0,0,0,4.64,4.6,55.13,55.13,0,0,0,8.74,6.23,46.51,46.51,0,0,0,10.3,4.59C903,112.26,904,111.83,904.77,112Z"/><path class="cls-43" d="M1001.43,71.25c16.86,4.6,27.73,20.6,27.73,20.6-10.47,15.65-27.5,20.37-27.5,20.37s9.9-21.12-.23-41"/><path class="cls-47" d="M1000.18,71.25a50,50,0,0,1,20.18,12,64,64,0,0,1,5.48,5.87c.43.53,2,2,2.07,2.71,0,1.18-3,4.06-3.81,4.95a49.59,49.59,0,0,1-4.64,4.6,55.13,55.13,0,0,1-8.74,6.23,46.51,46.51,0,0,1-10.3,4.59h2.5a49.21,49.21,0,0,0-.23-41c-.16-.34-2.35.31-2.5,0a49.21,49.21,0,0,1,.23,41c.09-.2,2.19.09,2.5,0a45.9,45.9,0,0,0,9.83-4.32,55.6,55.6,0,0,0,8.7-6,50.51,50.51,0,0,0,4.66-4.51c.88-1,4.37-4.22,4.32-5.5-.1-2.3-5.67-6.77-7.14-8.18a50.3,50.3,0,0,0-20.6-12.41c-.77-.23-1.74.22-2.5,0Z"/><path class="cls-43" d="M899.45,91.71s-13.93-10.88-17.61-29.34c0,0,16.17-10.62,33.5-8.42C915.33,54,900.34,65.8,899.45,91.71Z"/><path class="cls-47" d="M900.6,92.19a45.9,45.9,0,0,1-7.43-7.75,55.59,55.59,0,0,1-5.72-8.91,50.51,50.51,0,0,1-2.58-5.95c-.44-1.23-2.42-5.57-1.88-6.73,1-2.09,7.83-4.08,9.72-4.83a50.29,50.29,0,0,1,23.78-3.59l-2.31-1C903.31,62.22,898.93,78,898.29,91.23c0,.3,2.32.69,2.31,1,.64-13.25,5-29,15.89-37.76-.21.17-2-.92-2.31-1a50,50,0,0,0-23.25,3.38,64,64,0,0,0-7.3,3.32c-.6.32-2.64,1-3,1.71-.5,1.07,1.25,4.91,1.63,6a49.58,49.58,0,0,0,2.53,6,55.13,55.13,0,0,0,5.7,9.1,46.51,46.51,0,0,0,7.76,8.18C898.92,91.73,900,91.7,900.6,92.19Z"/><path class="cls-43" d="M1005.52,91.5c13.81,10.7,17.74,29.64,17.74,29.64-15.66,10.45-33.2,8.29-33.2,8.29s17.22-15.73,15.46-37.93"/><path class="cls-47" d="M1004.36,91a50,50,0,0,1,14,18.83,64,64,0,0,1,2.81,7.52c.2.65,1.14,2.6.88,3.29-.41,1.11-4.35,2.59-5.41,3.11a49.59,49.59,0,0,1-6,2.48,55.13,55.13,0,0,1-10.46,2.41,46.51,46.51,0,0,1-11.28.3l2.31,1A49.21,49.21,0,0,0,1006.67,92c0-.38-2.29-.61-2.31-1A49.21,49.21,0,0,1,988.9,129c.16-.15,2,.92,2.31,1a45.9,45.9,0,0,0,10.73-.23,55.6,55.6,0,0,0,10.34-2.25,50.51,50.51,0,0,0,6-2.38c1.18-.56,5.65-2.23,6.09-3.43.79-2.17-2.65-8.43-3.46-10.29A50.3,50.3,0,0,0,1006.67,92c-.63-.51-1.69-.46-2.31-1Z"/><path class="cls-43" d="M903.47,71.37s-8.71-15.38-5-33.85c0,0,19-3.62,34.17,5C932.59,42.57,914.21,47.77,903.47,71.37Z"/><path class="cls-47" d="M904.35,72.25a45.9,45.9,0,0,1-3.89-10,55.59,55.59,0,0,1-1.88-10.42,50.51,50.51,0,0,1-.11-6.48c.06-1.31-.11-6.08.84-6.94,1.7-1.56,8.8-.78,10.83-.74a50.29,50.29,0,0,1,23.34,5.79l-1.77-1.77c-13.39,3.92-23.46,16.81-29.13,28.8-.13.27,1.88,1.53,1.77,1.77,5.67-12,15.74-24.89,29.13-28.8-.26.07-1.45-1.6-1.77-1.77a50,50,0,0,0-22.77-5.77,64,64,0,0,0-8,.28c-.68.07-2.83-.06-3.38.45-.87.8-.73,5-.8,6.19a49.58,49.58,0,0,0,0,6.54A55.13,55.13,0,0,0,898.54,60a46.51,46.51,0,0,0,4,10.53C903,71.19,904,71.56,904.35,72.25Z"/><path class="cls-43" d="M1001.55,111.76c8.67,15.17,5,34.17,5,34.17-18.47,3.66-33.85-5-33.85-5s21.93-7.94,28.8-29.13"/><path class="cls-47" d="M1000.66,110.88a50,50,0,0,1,5.77,22.77,64,64,0,0,1-.28,8c-.07.68.06,2.83-.45,3.38-.8.87-5,.73-6.19.8a49.59,49.59,0,0,1-6.54,0A55.13,55.13,0,0,1,982.39,144a46.51,46.51,0,0,1-10.53-4l1.77,1.77a49.21,49.21,0,0,0,28.8-29.13c.12-.36-1.88-1.44-1.77-1.77A49.21,49.21,0,0,1,971.86,140c.21-.08,1.49,1.61,1.77,1.77a45.9,45.9,0,0,0,10,3.89,55.6,55.6,0,0,0,10.42,1.88,50.51,50.51,0,0,0,6.48.11c1.31-.06,6.08.11,6.94-.84,1.56-1.7.78-8.8.74-10.83a50.3,50.3,0,0,0-5.78-23.34c-.38-.71-1.39-1.07-1.77-1.77Z"/><path class="cls-43" d="M915,54.11s-2.16-17.54,8.29-33.2c0,0,18.94,3.92,29.64,17.74C952.9,38.65,933.92,36.42,915,54.11Z"/><path class="cls-47" d="M915.44,55.27a45.9,45.9,0,0,1,.23-10.73,55.59,55.59,0,0,1,2.25-10.34,50.51,50.51,0,0,1,2.38-6c.56-1.18,2.23-5.65,3.43-6.09,2.17-.79,8.43,2.65,10.29,3.46a50.29,50.29,0,0,1,19.35,14.28l-1-2.31C938.55,36,924.31,44,914.49,53c-.22.2,1.15,2.13,1,2.31,9.83-8.91,24.06-17,37.93-15.46-.26,0-.73-2-1-2.31a50,50,0,0,0-18.83-14,64,64,0,0,0-7.52-2.81c-.65-.2-2.6-1.14-3.29-.88-1.11.41-2.59,4.35-3.11,5.41a49.58,49.58,0,0,0-2.48,6,55.13,55.13,0,0,0-2.41,10.46,46.51,46.51,0,0,0-.3,11.28C914.58,53.76,915.35,54.48,915.44,55.27Z"/><path class="cls-43" d="M990.12,129c2.2,17.33-8.42,33.5-8.42,33.5-18.47-3.69-29.34-17.61-29.34-17.61s23.3,1.06,37.76-15.89"/><path class="cls-47" d="M989.64,127.81a50,50,0,0,1-3.38,23.25,64,64,0,0,1-3.32,7.3c-.32.6-1,2.64-1.71,3-1.07.5-4.91-1.25-6-1.63a49.59,49.59,0,0,1-6-2.53,55.13,55.13,0,0,1-9.1-5.7,46.51,46.51,0,0,1-8.18-7.76l1,2.31a49.21,49.21,0,0,0,37.76-15.89c.25-.28-1.19-2.05-1-2.31a49.21,49.21,0,0,1-37.76,15.89c.22,0,.76,2.06,1,2.31a45.9,45.9,0,0,0,7.75,7.43,55.6,55.6,0,0,0,8.91,5.72,50.51,50.51,0,0,0,5.95,2.58c1.23.44,5.57,2.42,6.73,1.88,2.09-1,4.08-7.83,4.83-9.72a50.3,50.3,0,0,0,3.59-23.78c-.09-.8-.87-1.52-1-2.31Z"/><path class="cls-43" d="M932.19,42.57s4.72-17,20.37-27.5c0,0,16,10.87,20.6,27.73C973.16,42.8,956.48,33.48,932.19,42.57Z"/><path class="cls-47" d="M932.19,43.82A45.9,45.9,0,0,1,936.51,34a55.59,55.59,0,0,1,6-8.7,50.51,50.51,0,0,1,4.51-4.66c1-.88,4.22-4.37,5.5-4.32,2.3.1,6.77,5.67,8.18,7.14a50.29,50.29,0,0,1,12.41,20.6v-2.5c-12.23-6.7-28.47-4.71-41-.23-.28.1.25,2.41,0,2.5,12.49-4.48,28.73-6.47,41,.23-.23-.13.1-2.16,0-2.5a50,50,0,0,0-12-20.18,64,64,0,0,0-5.87-5.47c-.53-.43-2-2-2.71-2.07-1.18,0-4.06,3-4.95,3.81a49.58,49.58,0,0,0-4.6,4.64A55.13,55.13,0,0,0,936.78,31a46.51,46.51,0,0,0-4.59,10.3C932,42.1,932.41,43.06,932.19,43.82Z"/><path class="cls-43" d="M973,140.49c-4.6,16.86-20.6,27.73-20.6,27.73-15.65-10.47-20.37-27.5-20.37-27.5s21.12,9.9,41-.23"/><path class="cls-47" d="M973,139.24a50,50,0,0,1-12,20.18,64,64,0,0,1-5.87,5.48c-.53.43-2,2-2.71,2.07-1.18,0-4.06-3-4.95-3.81a49.59,49.59,0,0,1-4.6-4.64,55.13,55.13,0,0,1-6.23-8.74,46.51,46.51,0,0,1-4.59-10.3V142a49.21,49.21,0,0,0,41-.23c.34-.16-.31-2.35,0-2.5a49.21,49.21,0,0,1-41,.23c.2.09-.09,2.19,0,2.5a45.9,45.9,0,0,0,4.32,9.83,55.6,55.6,0,0,0,6,8.7,50.51,50.51,0,0,0,4.51,4.66c1,.88,4.22,4.37,5.5,4.32,2.3-.1,6.77-5.67,8.18-7.14A50.3,50.3,0,0,0,973,141.74c.23-.77-.22-1.74,0-2.5Z"/><text class="cls-48" transform="translate(821.89 217.06)"><tspan class="cls-49">R</tspan><tspan x="31.3" y="0">eble </tspan><tspan class="cls-50" x="147.89" y="0">P</tspan><tspan x="177.17" y="0">etal</tspan></text><g id="_5" data-name="#5"><g class="cls-51"><path class="cls-39" d="M224.32,302.31s-2.46,4.1-9,6.25c-.54-.82-1.1-1.77-1.73-2.94l0,0c6.92-2.06,7.34-4,7.34-4-.76-3-4.65-5.71-5.27-6.13a11.34,11.34,0,0,0,1.24-3.8C217.73,292.22,224.17,296.29,224.32,302.31Z"/><path class="cls-39" d="M222.35,274.45s-2,5.93-6.84,9.32l0,0a9.26,9.26,0,0,0-1.64-1.79c3.59-2.07,4.49-6.73,4.49-6.73-1.4-1.81-5.11-3-5.11-3l0,0c.52-.86,1-1.66,1.55-2.41l.07,0S220.86,272,222.35,274.45Z"/><path class="cls-25" d="M220.95,301.65s-.41,1.9-7.34,4l0,0c-.8-1.48-1.71-3.31-2.83-5.63a10.62,10.62,0,0,0,4.92-4.47C216.29,295.94,220.19,298.62,220.95,301.65Z"/><path class="cls-25" d="M218.31,275.28s-.9,4.66-4.49,6.73a11.22,11.22,0,0,0-4.16-2.2l-.17-.07c.34-.8.73-1.67,1.16-2.65a44,44,0,0,1,2.51-4.81l0,0S216.91,273.46,218.31,275.28Z"/><path class="cls-39" d="M216.91,291.73a11.34,11.34,0,0,1-1.24,3.8,10.62,10.62,0,0,1-4.92,4.47l-1.1-2.3a25.87,25.87,0,0,0-5.49-7.94l.05-.06c2.32-2.61,2.73-4.08,5.27-10l.17.07a11.22,11.22,0,0,1,4.16,2.2,9.26,9.26,0,0,1,1.64,1.79,9.16,9.16,0,0,1,1.61,5.16A16.21,16.21,0,0,1,216.91,291.73Z"/><path class="cls-39" d="M211.84,263.75a26.69,26.69,0,0,0,8-.09,42.8,42.8,0,0,0-5.09,6.22c-.51.74-1,1.55-1.55,2.41a44,44,0,0,0-2.51,4.81c-.43,1-.82,1.85-1.16,2.65-2.54,5.89-2.95,7.35-5.27,10l-.05.06a14.59,14.59,0,0,0-2.35-1.81c3-2.19,5.4-9.51,6.78-12.75a54,54,0,0,1,5.27-8.41c-2.55-.25-6.92-.74-15.16-3.54a25.08,25.08,0,0,0-6.59-1.35,18.8,18.8,0,0,0-3.07.06,11.14,11.14,0,0,0-3.37.8l-.07.09a14.87,14.87,0,0,0-2.11-1.34l0-.06s1.82-2,6.11-2.25a16.78,16.78,0,0,1,2.58,0,25.74,25.74,0,0,1,6.24,1.39q2.76,1,5.23,1.6c1.81.48,3.5.84,5.06,1.11C209.84,263.5,210.87,263.65,211.84,263.75Z"/><path class="cls-39" d="M214.11,314.84h0a22.63,22.63,0,0,1,1.48,11.78s-6.08,4.35-13.32,2.64a9.76,9.76,0,0,0,1.8-3.05c6.66.73,8.47-2.06,8.47-2.06,0-3.19-2.31-8.07-2.46-8.39a30.39,30.39,0,0,1,4-1Z"/><path class="cls-39" d="M213.12,251.87s2.21,6.21-1.28,11.88c-1-.1-2-.25-3.11-.44v-.07c3.46-3.13,2.31-9.4,2.31-9.4-3.38-2.55-8.41-1.4-8.41-1.4h0a8,8,0,0,0-3-2.8A16.92,16.92,0,0,1,213.12,251.87Z"/><path class="cls-25" d="M210.08,315.77c.15.32,2.46,5.2,2.46,8.39,0,0-1.81,2.8-8.47,2.06a10.92,10.92,0,0,0-.18-7.5h0l.67-.4A26.59,26.59,0,0,1,210.08,315.77Z"/><path class="cls-25" d="M207.6,299.43c2.22,7.75,5,11.21,5.27,11.54a54.17,54.17,0,0,0-10,4.45c-3.71,2.39-9.07,3.54-11,3.3a15.09,15.09,0,0,0-3.13-7.5l-.1,0a11.36,11.36,0,0,0,.1-5.12,19.76,19.76,0,0,0,18.38,3.34c-4.45-7.84-14.68-9.66-15.07-9.73a11.46,11.46,0,0,0-.34-1.18A10.08,10.08,0,0,0,197,294a21.73,21.73,0,0,0,5-2.39l.05-.07A15,15,0,0,1,207.6,299.43Z"/><path class="cls-25" d="M211.06,253.85s1.15,6.26-2.31,9.4v.07c-1.56-.27-3.25-.63-5.06-1.11,1-1.34,1.22-6.22-1-9.76h0S207.68,251.29,211.06,253.85Z"/><path class="cls-39" d="M204.07,326.22a9.76,9.76,0,0,1-1.8,3.05l-.45.49c-.23.24-.47.47-.71.68a12.79,12.79,0,0,1-3,2,12.49,12.49,0,0,1-8.71.84c.37-1.21.8-2.5,1.29-3.88a23.67,23.67,0,0,0,1.44-7.5h.13s4.2,1.09,11.61-3.23h0A10.92,10.92,0,0,1,204.07,326.22Z"/><path class="cls-39" d="M196.41,248.47a11.45,11.45,0,0,1,3.27,1.17,8,8,0,0,1,3,2.8c2.25,3.53,2,8.42,1,9.76q-2.47-.65-5.23-1.6a25.74,25.74,0,0,0-6.24-1.39V259c.2-1-.53-5.62-2.62-9.75A11.31,11.31,0,0,1,196.41,248.47Z"/><path class="cls-39" d="M206.44,270.41s-2.78,8.83-15.67,9.64a24.32,24.32,0,0,0,.9-3.46,17.33,17.33,0,0,0-3.34-2.17s.08-.13.17-.31h0A27.51,27.51,0,0,1,206.44,270.41Z"/><path class="cls-39" d="M207.18,309.4a19.76,19.76,0,0,1-18.38-3.34c-.09-.42-.16-.66-.16-.66l0-.09a17.38,17.38,0,0,0,3.87-1.95,13.84,13.84,0,0,0-.36-3.69C192.5,299.74,202.74,301.56,207.18,309.4Z"/><path class="cls-39" d="M201.16,330.5a21.71,21.71,0,0,1-2.06,13,23.72,23.72,0,0,1-11.77-1.31c.12-.85.28-1.77.49-2.77,6.2,2.91,8.89,1,8.89,1a11,11,0,0,0,1.4-8,12.79,12.79,0,0,0,3-2Z"/><path class="cls-39" d="M196.3,237.94s4.28,5.19,3.38,11.7a11.45,11.45,0,0,0-3.27-1.17c1.16-4.17-1.84-8.14-1.84-8.14-4.09-.39-8.79,1.7-9.2,1.88h0c-.27-.66-.51-1.33-.72-2C185.11,239.95,189.24,237.63,196.3,237.94Z"/><path class="cls-39" d="M197.87,289.21a16.15,16.15,0,0,1,4.18,2.32l-.05.07a21.73,21.73,0,0,1-5,2.39,8.19,8.19,0,0,0,.88-3.5c0-.25,0-.52,0-.79s0-.33,0-.49Z"/><path class="cls-25" d="M198.11,332.48a11,11,0,0,1-1.4,8s-2.7,1.88-8.89-1c.37-1.78.88-3.81,1.59-6.13A12.49,12.49,0,0,0,198.11,332.48Z"/><path class="cls-25" d="M197,294a10.08,10.08,0,0,1-5.2,4.51,13.37,13.37,0,0,0-4-5.77c3.77-.31,7.78-4,7.78-4-2-2.35-7.54-3.59-7.54-3.59l-.06-.05a15.21,15.21,0,0,0,2.8-5.07,12.9,12.9,0,0,1,6.4,6.44,9.74,9.74,0,0,1,.65,2.71c0,.16,0,.32,0,.49s0,.53,0,.79A8.19,8.19,0,0,1,197,294Z"/><path class="cls-25" d="M197.17,286.5a12.9,12.9,0,0,0-6.4-6.44h0c12.9-.81,15.67-9.64,15.67-9.64a27.51,27.51,0,0,0-17.93,3.71h0a9.26,9.26,0,0,0,.81-6.19c1.37-1.51,2.79-5.91,2.79-5.91v-.11a25.08,25.08,0,0,1,6.59,1.35c8.24,2.8,12.61,3.3,15.16,3.54a54,54,0,0,0-5.27,8.41c-1.38,3.25-3.8,10.56-6.78,12.75a8.35,8.35,0,0,0-4.6-1.46Z"/><path class="cls-25" d="M194.57,240.33s3,4,1.84,8.14a11.31,11.31,0,0,0-6.81.82,17.72,17.72,0,0,0-2-3.17,15.9,15.9,0,0,1-2.22-3.91C185.78,242,190.48,239.93,194.57,240.33Z"/><path class="cls-39" d="M195.56,288.77s-4,3.64-7.78,4a20.44,20.44,0,0,0-7.49-4,9.83,9.83,0,0,0,7.67-3.61l.06.05S193.52,286.42,195.56,288.77Z"/><path class="cls-39" d="M192.26,321.93h-.13a19,19,0,0,0-.21-3.21c1.9.25,7.26-.91,11-3.3a54.17,54.17,0,0,1,10-4.45c-.25-.33-3.05-3.79-5.27-11.54a15,15,0,0,0-5.55-7.9,16.15,16.15,0,0,0-4.18-2.32h-.05a9.74,9.74,0,0,0-.65-2.71l0,0a8.35,8.35,0,0,1,4.6,1.46,14.59,14.59,0,0,1,2.35,1.81,25.87,25.87,0,0,1,5.49,7.94l1.1,2.3c1.12,2.32,2,4.15,2.83,5.63.63,1.16,1.19,2.12,1.73,2.94a21.46,21.46,0,0,0,5.72,5.7,28.75,28.75,0,0,0-6.94.48,30.39,30.39,0,0,0-4,1,26.59,26.59,0,0,0-5.53,2.54l-.67.4C196.46,323,192.26,321.93,192.26,321.93Z"/><path class="cls-39" d="M170.73,339.89c-7.44-3.1-10.7-6.42-10.7-6.42l-.12-.13a16.42,16.42,0,0,0,1.92-2.16c2.18,3.16,7.12,5.16,12.5,7,4.26,1.48,9.6,5.32,9.6,5.32,0-2.47.91-7.17,4.12-16a20.22,20.22,0,0,0,1.26-6,16,16,0,0,0-.2-3.41,12.44,12.44,0,0,0-1.57-4.44,8.18,8.18,0,0,0,1.14-2.49l.1,0a15.09,15.09,0,0,1,3.13,7.5,19,19,0,0,1,.21,3.21,23.67,23.67,0,0,1-1.44,7.5c-.49,1.38-.91,2.67-1.29,3.88-.71,2.32-1.22,4.35-1.59,6.13-.2,1-.36,1.92-.49,2.77a46.24,46.24,0,0,0-.43,7.74,31.56,31.56,0,0,0-6.61-5.58,34.74,34.74,0,0,0-3.23-1.86,33.38,33.38,0,0,0-3.76-1.63Q171.94,340.4,170.73,339.89Z"/><path class="cls-39" d="M192.1,261.89V262s-1.42,4.41-2.79,5.91a7.81,7.81,0,0,0-1.33-2.78,9.36,9.36,0,0,0,1.07-3.05v-.14A18.8,18.8,0,0,1,192.1,261.89Z"/><path class="cls-39" d="M185.37,242.21h0a15.9,15.9,0,0,0,2.22,3.91,17.72,17.72,0,0,1,2,3.17c2.09,4.13,2.82,8.78,2.62,9.75v.17a16.78,16.78,0,0,0-2.58,0v-.08c.12-3-3.46-10.14-5-12.18s-3.15-8.1-3.15-8.1c-1.36,1.48-2.72,2.47-10.94,5.87a18.34,18.34,0,0,0-7.65,5.42,8.6,8.6,0,0,0-1.68,3.12,10.44,10.44,0,0,0-3.29.39l0-.15a7.77,7.77,0,0,1,1.47-3.8,13.48,13.48,0,0,1,1.57-1.94,24.2,24.2,0,0,1,8.46-5.32l1.35-.57a45.32,45.32,0,0,0,5.86-3c.93-.57,1.73-1.13,2.43-1.66,3.24-2.46,4.09-4.27,4.09-4.27a39.77,39.77,0,0,0,1.57,7.33h0C184.86,240.88,185.1,241.55,185.37,242.21Z"/><path class="cls-25" d="M189.63,259.1v.08c-4.29.29-6.11,2.25-6.11,2.25l0,.06a8.35,8.35,0,0,0-7-.7v-.08s5.81-8.53,2.72-15.89c0,0-6.92,2.78-8.47,14.34l0,.06-.69.22v0a9.32,9.32,0,0,0-5-5.37l0-.07c-.06-1.85-2-3.77-2-3.77l-.11-.09a18.34,18.34,0,0,1,7.65-5.42c8.22-3.4,9.58-4.39,10.94-5.87,0,0,1.61,6.06,3.15,8.1S189.75,256.07,189.63,259.1Z"/><path class="cls-25" d="M189.31,267.92a9.26,9.26,0,0,1-.81,6.19c-.09.18-.15.28-.17.31a15,15,0,0,0-6.49-1.71c2.78-2.89,3.52-8.48,3.52-8.48-4.2-.43-8.1,3-8.1,3h-.09a14.35,14.35,0,0,0-1.68-6l0,0a4.53,4.53,0,0,1,.93-.47,8.35,8.35,0,0,1,7,.7,14.87,14.87,0,0,1,2.11,1.34l.74.59a10.05,10.05,0,0,1,1.63,1.71A7.81,7.81,0,0,1,189.31,267.92Z"/><path class="cls-39" d="M189.12,318.11a16,16,0,0,1,.2,3.41h-.1s-7.06-2.13-8.15-4a11,11,0,0,0,3.43-1.13l0,0a8.34,8.34,0,0,0,4.45,1.73Z"/><path class="cls-25" d="M189.21,321.52h.1a20.22,20.22,0,0,1-1.26,6c-3.21,8.82-4.12,13.52-4.12,16,0,0-5.34-3.84-9.6-5.32-5.39-1.87-10.32-3.87-12.5-7,2.44-3.3,2.24-5.95,2.24-5.95v0a8.57,8.57,0,0,0,5-4.71l.08,0c1,10.14,10.47,14.76,10.47,14.76,2-7.83-3.13-17.48-3.13-17.48l0-.27a15.47,15.47,0,0,0,4.51,0C182.15,319.38,189.21,321.52,189.21,321.52Z"/><path class="cls-25" d="M189,261.95v.14a9.36,9.36,0,0,1-1.07,3.05,10.05,10.05,0,0,0-1.63-1.71l-.74-.59.07-.09A11.14,11.14,0,0,1,189,261.95Z"/><path class="cls-39" d="M182.95,306.58s2.66,4.33,2.47,7.23c0,0-3.38,1.23-8.6-3.23a15.15,15.15,0,0,0-3-8,13.33,13.33,0,0,0,9.09,3.78Z"/><path class="cls-25" d="M187.55,313.67a8,8,0,0,1-1.27,1.44,9.13,9.13,0,0,1-1.8,1.25,11,11,0,0,1-3.43,1.13,15.47,15.47,0,0,1-4.51,0c-.52-.07-.83-.14-.83-.14h0a15.39,15.39,0,0,0,1.12-6.81c5.23,4.46,8.6,3.23,8.6,3.23.19-2.91-2.47-7.23-2.47-7.23v-.26a16,16,0,0,0,5.65-1l0,.09s.08.24.16.66a11.36,11.36,0,0,1-.1,5.12A8.18,8.18,0,0,1,187.55,313.67Z"/><path class="cls-25" d="M188.33,274.43a17.33,17.33,0,0,1,3.34,2.17,24.32,24.32,0,0,1-.9,3.46h0a15.21,15.21,0,0,1-2.8,5.07,9.83,9.83,0,0,1-7.67,3.61l-.19,0h0c-2.25-.54-6-4.24-6-4.24s-.16-.15-.44-.39c7.38-.06,9.58-5.07,9.58-5.07-7.23-1.17-10.2,2.91-10.2,2.91h0a27.5,27.5,0,0,1,1.7-7h0a12,12,0,0,1,7.11-2.21A15,15,0,0,1,188.33,274.43Z"/><path class="cls-39" d="M183.19,279s-2.2,5-9.58,5.07c-.22-.19-.51-.42-.86-.68l.13-.18c0-.45.05-.88.1-1.31h0S176,277.83,183.19,279Z"/><path class="cls-39" d="M182.88,299.47a9.68,9.68,0,0,1-10-3.4h-.05c0-.43-.08-.85-.13-1.27a5,5,0,0,0,1.13-1S180.91,294.4,182.88,299.47Z"/><path class="cls-39" d="M180.3,344.37l-.31.39s-1.65,5.69-6.18,8.08c0,0-7.17-2.23-9.4-6.84l-.06-.16a11.29,11.29,0,0,0,2.86-1.41h0c3,4,5.93,4.45,5.93,4.45,2.14-1.48,3.79-6.1,3.79-6.1l.14-.27A34.74,34.74,0,0,1,180.3,344.37Z"/><path class="cls-39" d="M176.52,317.81s5.11,9.64,3.13,17.48c0,0-9.48-4.62-10.47-14.76l-.08,0a4.53,4.53,0,0,0,.25-.81l0-.12a18,18,0,0,0,4.66,1,19.47,19.47,0,0,0,1.66-3.22h0s.31.07.83.14Z"/><path class="cls-39" d="M179.18,244.82c3.09,7.36-2.72,15.89-2.72,15.89v.08a4.53,4.53,0,0,0-.93.47l0,0a21.5,21.5,0,0,0-1.69-2.74,17.75,17.75,0,0,0-3.07.68l0-.06C172.25,247.6,179.18,244.82,179.18,244.82Z"/><path class="cls-39" d="M178.93,237.09l.05.07c-.69.53-1.5,1.09-2.43,1.66l0-.06a13.1,13.1,0,0,0-3-4.82,10.76,10.76,0,0,0-6.31,4.45l0,.06a13.62,13.62,0,0,0-2.53-1.28l0-.08a16.48,16.48,0,0,1,9.58-6.86S178.93,234.19,178.93,237.09Z"/><path class="cls-39" d="M173.62,284.08c.28.24.44.39.44.39s3.77,3.69,6,4.24c-.27.17-4,2.47-4.77,3.49-.42.53-.95,1.14-1.43,1.64a5,5,0,0,1-1.13,1,21.55,21.55,0,0,0-.35-2.19,4,4,0,0,0,1.07-1.34,11.23,11.23,0,0,1,2.83-2.46c-1.57-.46-2.07-1.71-3.64-3.39-.18-.19-.36-.38-.57-.58a7.64,7.64,0,0,0-.76-.64,7.24,7.24,0,0,0-3.61-1.44l-.15,0a6,6,0,0,0,.05-1.38h.19a8.09,8.09,0,0,1,3.25,1,13.6,13.6,0,0,1,1.68,1.05C173.11,283.65,173.4,283.89,173.62,284.08Z"/><path class="cls-25" d="M177.17,267.27a10.75,10.75,0,0,1-2.38,7.41h0c-1.23,1.32-5.7,2-7.33,2.15v-.17a9.71,9.71,0,0,0,3.7-10.44s-5.73,1.11-5.93,10.1c-4.58-5-4.89-6.8-4.89-6.8A12.46,12.46,0,0,1,164,263a16.83,16.83,0,0,1,6-3.53l.69-.22a17.75,17.75,0,0,1,3.07-.68,21.5,21.5,0,0,1,1.69,2.74A14.35,14.35,0,0,1,177.17,267.27Z"/><path class="cls-25" d="M177.07,342.51l-.14.27s-1.65,4.62-3.79,6.1c0,0-3-.41-5.93-4.45h0a9,9,0,0,0,3.53-4.54q1.21.51,2.57,1A33.38,33.38,0,0,1,177.07,342.51Z"/><path class="cls-25" d="M176.52,238.76l0,.06a45.32,45.32,0,0,1-5.86,3l0-.11a12.43,12.43,0,0,0-3.5-3.28l0-.06a10.76,10.76,0,0,1,6.31-4.45A13.1,13.1,0,0,1,176.52,238.76Z"/><path class="cls-25" d="M176.3,288.81a11.23,11.23,0,0,0-2.83,2.46,4,4,0,0,1-1.07,1.34,11,11,0,0,0-.56-1.85,6.13,6.13,0,0,0-1.18-1.9,8.73,8.73,0,0,0,1.88-3.32l.13-.12C174.23,287.11,174.73,288.35,176.3,288.81Z"/><path class="cls-39" d="M174.79,274.67a10.75,10.75,0,0,0,2.38-7.41h.09s3.89-3.46,8.1-3c0,0-.74,5.6-3.52,8.48a12,12,0,0,0-7.11,2.21h0l.1-.24Z"/><path class="cls-39" d="M164.84,278.36a5.88,5.88,0,0,0-3.61,1.86l-.18.11a6.42,6.42,0,0,0-1-1.24,7.78,7.78,0,0,1,3.93-1.95,13.83,13.83,0,0,1,1.56-.25,9.05,9.05,0,0,1,1.43-.06,4,4,0,0,0,.49,0c1.62-.11,6.1-.83,7.33-2.15l-.1.24a27.5,27.5,0,0,0-1.7,7c0,.43-.08.86-.1,1.31l-.13.18a13.6,13.6,0,0,0-1.68-1.05l0-.09a15.81,15.81,0,0,1,.32-4.31,14.67,14.67,0,0,1-4.82.36l-.49,0A7.23,7.23,0,0,0,164.84,278.36Z"/><path class="cls-25" d="M173.86,302.53a29.79,29.79,0,0,1-1-6.46h.05a9.68,9.68,0,0,0,10,3.4c-2-5.07-9-5.63-9-5.63.48-.5,1-1.11,1.43-1.64.8-1,4.5-3.32,4.77-3.49l.19,0h0a20.44,20.44,0,0,1,7.49,4,13.37,13.37,0,0,1,4,5.77,11.46,11.46,0,0,1,.34,1.18,13.84,13.84,0,0,1,.36,3.69,17.38,17.38,0,0,1-3.87,1.95,16,16,0,0,1-5.65,1,13.33,13.33,0,0,1-9.09-3.78Z"/><path class="cls-39" d="M172.88,296.07a29.79,29.79,0,0,0,1,6.46s-3.62-.86-4.87-1c-.67-.06-1.58-.12-2.35-.16l-1.43-.08h0a19.87,19.87,0,0,0,1.19-1.63,4.16,4.16,0,0,0,1.47,0c1,0,3.55.3,3.55.3-.62-1.31-.35-2.05-.34-4.39,0-.27,0-.56,0-.88a7.4,7.4,0,0,0-.14-1.27,6.7,6.7,0,0,0-1.77-3.45,6.34,6.34,0,0,0,1.5-1.18,6.13,6.13,0,0,1,1.18,1.9,11,11,0,0,1,.56,1.85,21.55,21.55,0,0,1,.35,2.19C172.8,295.22,172.84,295.65,172.88,296.07Z"/><path class="cls-39" d="M169.75,288s1.65-2.64,1.53-3.71l.05-.07a7.64,7.64,0,0,1,.76.64c.21.2.39.39.57.58l-.13.12a8.73,8.73,0,0,1-1.88,3.32,4.87,4.87,0,0,0-1-.8Z"/><path class="cls-25" d="M171.34,284.2l-.05.07c.12,1.08-1.53,3.71-1.53,3.71l-.05.08a6.29,6.29,0,0,0-4.51-.64l0-.18a8.47,8.47,0,0,0,2.43-4.51l.15,0A7.24,7.24,0,0,1,171.34,284.2Z"/><path class="cls-25" d="M171.13,282.26l0,.09a8.09,8.09,0,0,0-3.25-1h-.19a6.65,6.65,0,0,0-1-3v0a14.67,14.67,0,0,0,4.82-.36A15.81,15.81,0,0,0,171.13,282.26Z"/><path class="cls-25" d="M171.07,295.64h0c0,2.33-.28,3.08.34,4.39,0,0-2.51-.31-3.55-.3a4.16,4.16,0,0,1-1.47,0l.35-.55a6.4,6.4,0,0,0,1-2.82A7,7,0,0,0,171.07,295.64Z"/><path class="cls-39" d="M171.07,295.64a7,7,0,0,1-3.31.68,4.62,4.62,0,0,0-.28-2.06l.1,0s.93.71,3.34-.72a7.4,7.4,0,0,1,.14,1.27c0,.31,0,.61,0,.88Z"/><path class="cls-39" d="M170.65,241.73l0,.11-1.35.57a24.2,24.2,0,0,0-8.46,5.32l-.07-.07c-.94-1.05-5.37-4-9.89-6l.06-.14a13.53,13.53,0,0,1,3.85-3.69,10.38,10.38,0,0,1,2.71-1.17,9.87,9.87,0,0,1,3.58-.27,14,14,0,0,1,3.49.82,13.62,13.62,0,0,1,2.53,1.28A12.43,12.43,0,0,1,170.65,241.73Z"/><path class="cls-25" d="M169.16,290a6.7,6.7,0,0,1,1.77,3.45c-2.41,1.43-3.34.72-3.34.72l-.1,0a7.49,7.49,0,0,0-2.94-3.4l.25-.06A6.73,6.73,0,0,0,169.16,290Z"/><path class="cls-39" d="M169.7,288.06a4.87,4.87,0,0,1,1,.8,6.34,6.34,0,0,1-1.5,1.18,6.73,6.73,0,0,1-4.35.75l-.25.06a9.65,9.65,0,0,0-1.16-.67,2.75,2.75,0,0,0,.36-2.36l.14,0a7.68,7.68,0,0,1,1.29-.35A6.29,6.29,0,0,1,169.7,288.06Z"/><path class="cls-39" d="M166.63,301.63s5.25,4,3,9.83c0,0-5.19-1-5.07-9.27l-.07-.07c.22-.24.46-.51.69-.8h0l1.43.08Z"/><path class="cls-39" d="M157,346.36a11.36,11.36,0,0,1-2.18-.68,11.78,11.78,0,0,1-6-5.92c.87-.42,1.8-.84,2.79-1.26a27.45,27.45,0,0,0,8.28-5.16l.12.13s3.25,3.32,10.7,6.42a9,9,0,0,1-3.53,4.54,11.29,11.29,0,0,1-2.86,1.41,15.41,15.41,0,0,1-3.9.73A13.17,13.17,0,0,1,157,346.36Z"/><path class="cls-39" d="M165.92,296a9.89,9.89,0,0,1-3.69-2,9.22,9.22,0,0,0-.51-2.46,3.49,3.49,0,0,0,1.69-1.33,9.65,9.65,0,0,1,1.16.67,7.49,7.49,0,0,1,2.94,3.4,4.62,4.62,0,0,1,.28,2.06A7.59,7.59,0,0,1,165.92,296Z"/><path class="cls-39" d="M167.63,281.35a8.68,8.68,0,0,0-1.71.1h0a9.54,9.54,0,0,0-1.08-3.09,7.23,7.23,0,0,1,1.29-.06l.49,0v0A6.65,6.65,0,0,1,167.63,281.35Z"/><path class="cls-39" d="M167.44,276.65v.17a4,4,0,0,1-.49,0,9.05,9.05,0,0,0-1.43.06l0-.26-.3-.32c.2-9,5.93-10.1,5.93-10.1A9.71,9.71,0,0,1,167.44,276.65Z"/><path class="cls-39" d="M167.77,296.32a6.4,6.4,0,0,1-1,2.82l-.35.55a19.87,19.87,0,0,1-1.19,1.63c-.24.29-.47.56-.69.8-2.09,2.26-3.58,2.71-4.37,6.2A16.4,16.4,0,0,0,158,305c-.68-.78-1.64-1.82-2.42-2.62a8.77,8.77,0,0,0-1.32-1.23,21.06,21.06,0,0,0,2.19-.48,42.7,42.7,0,0,1,3.42,4.07c.87-1.77,1.66-1.55,3.49-3.72l.43-.52c.29-.37.53-.72.75-1.05a7.91,7.91,0,0,0,1.39-3.45A7.59,7.59,0,0,0,167.77,296.32Z"/><path class="cls-25" d="M160.14,308.32c.79-3.49,2.28-3.93,4.37-6.2l.07.07c-.12,8.28,5.07,9.27,5.07,9.27,2.23-5.81-3-9.83-3-9.83v-.23c.77,0,1.69.09,2.35.16,1.25.12,4.87,1,4.87,1h0a15.15,15.15,0,0,1,3,8,15.39,15.39,0,0,1-1.12,6.81,19.47,19.47,0,0,1-1.66,3.22,18,18,0,0,1-4.66-1,15,15,0,0,1-5.93-3.82A13.14,13.14,0,0,1,160.14,308.32Z"/><path class="cls-25" d="M165.92,296a7.91,7.91,0,0,1-1.39,3.45l-.21-.13c-1.16,0-2.89-1.5-3-1.6a5.77,5.77,0,0,0,.9-3.77A9.89,9.89,0,0,0,165.92,296Z"/><path class="cls-39" d="M161.32,297.73c.11.09,1.84,1.62,3,1.6l.21.13c-.22.33-.46.68-.75,1.05l-.43.52-.08-.07a5.49,5.49,0,0,1-3.06-2.1c.18-.14.34-.29.51-.45A4.39,4.39,0,0,0,161.32,297.73Z"/><path class="cls-39" d="M165.19,287.42a7.68,7.68,0,0,0-1.29.35l-.14,0c0-.08-.05-.17-.09-.25a2.75,2.75,0,0,0-2.23-1.88l0-.29A5.09,5.09,0,0,1,162,284a5.23,5.23,0,0,1,3.89-2.57,8.68,8.68,0,0,1,1.71-.1,6,6,0,0,1-.05,1.38,8.47,8.47,0,0,1-2.43,4.51Z"/><path class="cls-39" d="M140.51,345c-3.19,2.73-4,4.8-4.72,5.28a58.77,58.77,0,0,0-1.22-8.55c-.18-.83-.39-1.69-.62-2.56a38.67,38.67,0,0,0-1.86-5.37c-.17-.39-.34-.78-.49-1.16-3.19-7.7-3.3-12.53-3.3-12.53v-.32a17.14,17.14,0,0,0,3-.27l.06.34a36.14,36.14,0,0,0,2.84,11.83c2.14,5.12,4,10.93,4.3,11.74.21-.64,1.42-3,10.91-6.91a26.51,26.51,0,0,0,8.7-5.39,13.68,13.68,0,0,0,2-2.51,6.94,6.94,0,0,0,1.05-2.49l0-.14a13.77,13.77,0,0,0,2.9-.79v0s.2,2.65-2.24,5.95a16.42,16.42,0,0,1-1.92,2.16,27.45,27.45,0,0,1-8.28,5.16c-1,.42-1.92.84-2.79,1.26a45.12,45.12,0,0,0-5.28,3A30.84,30.84,0,0,0,140.51,345Z"/><path class="cls-39" d="M164,262.93l0,0a12.46,12.46,0,0,0-3.69,6.54,10.76,10.76,0,0,0-3.7-7.76c.68-3.21,3.83-6.48,3.83-6.48C163.35,257.86,164,262.93,164,262.93Z"/><path class="cls-25" d="M163.27,301l.08.07c-1.83,2.18-2.62,2-3.49,3.72a42.7,42.7,0,0,0-3.42-4.07,10.44,10.44,0,0,0,3.78-1.82A5.49,5.49,0,0,0,163.27,301Z"/><path class="cls-39" d="M161.19,253.23a8.6,8.6,0,0,1,1.68-3.12l.11.09s2,1.92,2,3.77l0,.07A10.42,10.42,0,0,0,161.19,253.23Z"/><path class="cls-39" d="M163.46,315.74s-1.4,6.16-3.63,8.39c0,0-3.34-5.32-2.91-8.53l0,0a17,17,0,0,0,3.25-7.27A13.14,13.14,0,0,0,163.46,315.74Z"/><path class="cls-25" d="M162,284a6.27,6.27,0,0,0-1-3.68l.18-.11a5.88,5.88,0,0,1,3.61-1.86,9.54,9.54,0,0,1,1.08,3.09h0A5.23,5.23,0,0,0,162,284Z"/><path class="cls-39" d="M161.49,285.4l0,.29a2.15,2.15,0,0,0-.47,0,5.23,5.23,0,0,0-1.84.39l0-.1a5.32,5.32,0,0,1,0-5.59,7.29,7.29,0,0,1,1-1.25l0,0a6.42,6.42,0,0,1,1,1.24,6.27,6.27,0,0,1,1,3.68h0A5.09,5.09,0,0,0,161.49,285.4Z"/><path class="cls-39" d="M161.71,291.51a9.22,9.22,0,0,1,.51,2.46,5.77,5.77,0,0,1-.9,3.77,4.39,4.39,0,0,1-.59.69c-.17.16-.33.3-.51.45a8.57,8.57,0,0,1-.79-1.24,13.88,13.88,0,0,1-1.36-4.15h0a6,6,0,0,0,.76-2.12,3.6,3.6,0,0,0,2.58.24Z"/><path class="cls-25" d="M163.4,290.18a3.49,3.49,0,0,1-1.69,1.33l-.31.09a3.6,3.6,0,0,1-2.58-.24,4.64,4.64,0,0,1-.93-.66,2.66,2.66,0,0,1-.67-.92,2.38,2.38,0,0,1,0-1.88,3.13,3.13,0,0,1,.7-1,3.68,3.68,0,0,1,1.22-.8,5.23,5.23,0,0,1,1.84-.39,2.15,2.15,0,0,1,.47,0,2.75,2.75,0,0,1,2.23,1.88c0,.08.06.17.09.25A2.75,2.75,0,0,1,163.4,290.18Z"/><path class="cls-25" d="M160.17,272.38a30.57,30.57,0,0,0,3.8,4.76,7.78,7.78,0,0,0-3.93,1.95,9,9,0,0,0-4.18-2.14C157.33,275.26,160,273.09,160.17,272.38Z"/><path class="cls-25" d="M161.16,326l0,.14a6.94,6.94,0,0,1-1.05,2.49h0A6,6,0,0,1,159,326.3v-.08c.26,0,.53,0,.8,0C160.26,326.13,160.72,326.07,161.16,326Z"/><path class="cls-25" d="M157.9,253.62A11,11,0,0,1,165,254a9.32,9.32,0,0,1,5,5.37v0a16.83,16.83,0,0,0-6,3.53l0,0s-.62-5.07-3.52-7.67c0,0-3.15,3.27-3.83,6.48a12.51,12.51,0,0,0-5.12-2.54A10.74,10.74,0,0,1,157.9,253.62Z"/><path class="cls-39" d="M131.85,257.89a14.36,14.36,0,0,0-.26,2.55,7,7,0,0,0,1,4.29h0a9.08,9.08,0,0,0-1.34,3h0s-2.08-2.29-1.9-7.15a18,18,0,0,1,.28-2.54,25.8,25.8,0,0,1,1.75-5.65c.75-1.74,1.42-3.4,2-5,.76-2,1.41-3.84,1.95-5.51q.43-1.32.77-2.49c1.05-3.61,1.48-6,1.38-6.81a48.68,48.68,0,0,0,4.92,4.36c.69.53,1.42,1.06,2.18,1.56a20.45,20.45,0,0,0,3.9,2.06c.79.3,1.6.64,2.41,1,4.53,2.07,8.95,5,9.89,6l.07.07a13.48,13.48,0,0,0-1.57,1.94l0,0c-.74-1.36-7.48-5.25-11.32-6.18s-8.78-5.81-8.78-5.81c0,.68,0,3.71-4.88,13.41A25.89,25.89,0,0,0,131.85,257.89Z"/><path class="cls-39" d="M160,279.09l0,0a7.29,7.29,0,0,0-1,1.25,9,9,0,0,0-4.14-2,4.71,4.71,0,0,1,.36-.65,8.45,8.45,0,0,1,.58-.74A9,9,0,0,1,160,279.09Z"/><path class="cls-25" d="M159.43,297.63l-.05,0a9.42,9.42,0,0,1-4,1.72l0-.11s-1.63-1.44-1.39-2.72l0-.09a6.19,6.19,0,0,0,4.14-3A13.88,13.88,0,0,0,159.43,297.63Z"/><path class="cls-39" d="M159.1,286l0,.1a3.68,3.68,0,0,0-1.22.8,3.13,3.13,0,0,0-.7,1l-.14-.06a4.94,4.94,0,0,1-2.29-.89,5.36,5.36,0,0,1-2.14-3.54,9,9,0,0,1-.15-1.35,8.78,8.78,0,0,1,1.64.19,11.5,11.5,0,0,1,4.15,1.82l.09,0A5.24,5.24,0,0,0,159.1,286Z"/><path class="cls-39" d="M159,326.3a6,6,0,0,0,1.15,2.31h0a13.68,13.68,0,0,1-2,2.51l0,0c-1.52-1.44-2.18-5.12-2.22-5.35a9.2,9.2,0,0,0,3.13.48Z"/><path class="cls-25" d="M158.37,284.06l-.09,0a11.5,11.5,0,0,0-4.15-1.82l0-.08a10.2,10.2,0,0,1,.77-3.84,9,9,0,0,1,4.14,2A5.23,5.23,0,0,0,158.37,284.06Z"/><path class="cls-39" d="M158.82,291.36a6,6,0,0,1-.76,2.12h0a6.19,6.19,0,0,1-4.14,3,9.51,9.51,0,0,1-1.7.23,6.17,6.17,0,0,1,0-2.09,6.74,6.74,0,0,1,2.88-4.2,8.88,8.88,0,0,0,2.05-.61h0a2.66,2.66,0,0,0,.67.92A4.64,4.64,0,0,0,158.82,291.36Z"/><path class="cls-39" d="M157.54,236.6v0a10.38,10.38,0,0,0-2.71,1.17v0A10.53,10.53,0,0,0,148,233c-2.29,1.85-3.34,5.44-3.34,5.44l-.07.11c-.76-.5-1.49-1-2.18-1.56l0,0s2-4.76,4.64-6.55C147.09,230.42,152.29,230.85,157.54,236.6Z"/><path class="cls-39" d="M151.19,289.94a5.05,5.05,0,0,1-1.27-.9,7.89,7.89,0,0,1,1.43-1,11.34,11.34,0,0,1,3.43-1.13,4.94,4.94,0,0,0,2.29.89l.14.06a2.38,2.38,0,0,0,0,1.88h0a8.88,8.88,0,0,1-2.05.61A6.41,6.41,0,0,1,151.19,289.94Z"/><path class="cls-25" d="M155.83,325.73a10.33,10.33,0,0,1-5.31-4.41,7.49,7.49,0,0,1-.46-.84v0a14.36,14.36,0,0,0,6.84-4.87l0,0c-.43,3.21,2.91,8.53,2.91,8.53,2.23-2.23,3.63-8.39,3.63-8.39a15,15,0,0,0,5.93,3.82l0,.12a4.53,4.53,0,0,1-.25.81,8.57,8.57,0,0,1-5,4.71,13.77,13.77,0,0,1-2.9.79c-.44.08-.91.14-1.4.18-.27,0-.54,0-.8,0A9.2,9.2,0,0,1,155.83,325.73Z"/><path class="cls-25" d="M150.37,312c5.38-2.41,5.07-9.33,5.07-9.33l.13-.22c.78.8,1.74,1.84,2.42,2.62a16.4,16.4,0,0,1,2.15,3.29,17,17,0,0,1-3.25,7.27,14.36,14.36,0,0,1-6.84,4.87,17.12,17.12,0,0,1-3.45.78,22.13,22.13,0,0,1-1.89-3.33l-.12-.26a18.29,18.29,0,0,1-1.67-6.31,10.3,10.3,0,0,1,3.09-8.26l.42-.39h0c1.58-.76,3.81-.95,6.15-1.26C148.09,306.78,150.37,312,150.37,312Z"/><path class="cls-25" d="M155.5,275s.18-6.24-5.69-8.28c0,0-1.55,3.89,2.72,9.64v.11c-.54,0-1.21-.11-2-.22a24,24,0,0,1-4.36-1.16l-.35-.61a16.7,16.7,0,0,1-2.08-6.09,11.8,11.8,0,0,1,1.33-7.14c.15-.27.29-.51.44-.74a9.52,9.52,0,0,1,1.55-1.88,20.83,20.83,0,0,1,4.21.54l.25.06a12.51,12.51,0,0,1,5.12,2.54,10.76,10.76,0,0,1,3.7,7.76c-.94,2.29-3,3.82-4.72,5.57Z"/><path class="cls-39" d="M155.5,275l.09.09a15.27,15.27,0,0,0-1.46,1.64l-.1-.07a7.24,7.24,0,0,0-1.52-.19v-.11c-4.26-5.75-2.72-9.64-2.72-9.64C155.68,268.74,155.5,275,155.5,275Z"/><path class="cls-39" d="M155.57,302.4l-.13.22s.31,6.92-5.07,9.33c0,0-2.28-5.17,2.2-10.54.56-.07,1.12-.15,1.68-.25A8.77,8.77,0,0,1,155.57,302.4Z"/><path class="cls-39" d="M154.79,345.68a11.36,11.36,0,0,0,2.18.68,17.09,17.09,0,0,1-10.28,7.22s-5.64-3.71-6.17-8.58a30.84,30.84,0,0,1,3-2.27c.07,3.76,3.87,7.55,3.87,7.55,3.55-.58,7.34-4.53,7.34-4.53Z"/><path class="cls-25" d="M154.82,237.77v0a13.53,13.53,0,0,0-3.85,3.69l-.06.14c-.81-.37-1.61-.71-2.41-1a20.45,20.45,0,0,1-3.9-2.06l.07-.11s1.05-3.59,3.34-5.44A10.53,10.53,0,0,1,154.82,237.77Z"/><path class="cls-25" d="M154.79,345.68l0,.07s-3.79,4-7.34,4.53c0,0-3.8-3.8-3.87-7.55a45.12,45.12,0,0,1,5.28-3A11.78,11.78,0,0,0,154.79,345.68Z"/><path class="cls-39" d="M154.92,278.33a10.2,10.2,0,0,0-.77,3.84l0,.08a8.78,8.78,0,0,0-1.64-.19q0-.26,0-.53a7.72,7.72,0,0,1,.68-3.17,8.92,8.92,0,0,1,1-1.64,15.27,15.27,0,0,1,1.46-1.64c1.76-1.76,3.78-3.28,4.72-5.57,0,0,.31,1.84,4.89,6.8l.3.32,0,.26a13.83,13.83,0,0,0-1.56.25,30.57,30.57,0,0,1-3.8-4.76c-.2.7-2.85,2.88-4.31,4.57a8.45,8.45,0,0,0-.58.74A4.71,4.71,0,0,0,154.92,278.33Z"/><path class="cls-39" d="M154,276.65l.1.07a8.92,8.92,0,0,0-1,1.64l-.05,0a13.2,13.2,0,0,1-4.18-.67c.48,1.2.13,2.22.29,5,0,.18,0,.37,0,.56a8.53,8.53,0,0,0,.2,1.29,6.81,6.81,0,0,0,1.84,3.47l.06.1a7.89,7.89,0,0,0-1.43,1,6.23,6.23,0,0,1-1.1-1.47,9.56,9.56,0,0,1-.94-2.56,15.93,15.93,0,0,1-.27-1.68c0-.41-.08-.82-.12-1.23-.18-2.36-.23-4.78-1.35-7a24,24,0,0,0,4.36,1.16c.8.11,1.47.18,2,.22A7.24,7.24,0,0,1,154,276.65Z"/><path class="cls-25" d="M151.19,289.94a6.41,6.41,0,0,0,3.94.45,6.74,6.74,0,0,0-2.88,4.2,3.94,3.94,0,0,1-2.75-.17l0-.11A6.08,6.08,0,0,1,151.19,289.94Z"/><path class="cls-39" d="M152.22,296.68a9.51,9.51,0,0,0,1.7-.23l0,.09c-.24,1.28,1.39,2.72,1.39,2.72l0,.11c-.28.06-.58.1-.89.14l-1.27.13,0-.18A8.84,8.84,0,0,1,152.22,296.68Z"/><path class="cls-39" d="M152.64,283.41h-.06a8.3,8.3,0,0,0-3.13,1.09,8.53,8.53,0,0,1-.2-1.29c0-.19,0-.38,0-.56h.19a7.4,7.4,0,0,1,3.07-.58A9,9,0,0,0,152.64,283.41Z"/><path class="cls-25" d="M152.49,282.06a7.4,7.4,0,0,0-3.07.58h-.19c-.16-2.77.19-3.79-.29-5a13.2,13.2,0,0,0,4.18.67l.05,0a7.72,7.72,0,0,0-.68,3.17Q152.48,281.81,152.49,282.06Z"/><path class="cls-39" d="M152.25,294.59a6.17,6.17,0,0,0,0,2.09,13.18,13.18,0,0,1-2-.07,6,6,0,0,1-.72-.12,6.09,6.09,0,0,1-1.6-.59l-.32-.19a10.11,10.11,0,0,1-2.38-2.15c-1.58-1.85-2.91-4.08-5.1-5.35a39.52,39.52,0,0,0,4.54-2.55c.7-.6,1.63-1.4,2.4-2,.2-.14.39-.27.57-.38a15.93,15.93,0,0,0,.27,1.68s-.29,0-1.46,1.15a14.62,14.62,0,0,1-3.55,2.26c.88.2,2.93,3.13,5,4.92l.33.28a5.27,5.27,0,0,0,1.35.81A3.94,3.94,0,0,0,152.25,294.59Z"/><path class="cls-25" d="M151.24,259.14c.05-.46.89-8.92-9.15-14.57,0,0-4.08,6.37,3.28,15.76l.12.15c-.15.23-.29.47-.44.74l-.05,0a11.81,11.81,0,0,0-6-.65l0-.2c-1.61-2.09-6.82-2.46-7.08-2.47a25.89,25.89,0,0,1,2.44-6.82c4.88-9.71,4.88-12.73,4.88-13.41,0,0,4.95,4.88,8.78,5.81s10.57,4.82,11.32,6.18l0,0a7.77,7.77,0,0,0-1.47,3.8l0,.15a10.74,10.74,0,0,0-6.41,5.59Z"/><path class="cls-25" d="M151.29,288a6.81,6.81,0,0,1-1.84-3.47,8.3,8.3,0,0,1,3.13-1.09h.06a5.36,5.36,0,0,0,2.14,3.54,11.34,11.34,0,0,0-3.43,1.13Z"/><path class="cls-39" d="M142.09,244.57c10,5.65,9.21,14.11,9.15,14.57a20.83,20.83,0,0,0-4.21-.54,9.52,9.52,0,0,0-1.55,1.88l-.12-.15C138,250.94,142.09,244.57,142.09,244.57Z"/><path class="cls-39" d="M150.52,321.33l0,0s-1.07,8.24-10,15.17c0,0-3.63-11.13,4-18.55l.17-.08a22.13,22.13,0,0,0,1.89,3.33,17.12,17.12,0,0,0,3.45-.78v0A7.49,7.49,0,0,0,150.52,321.33Z"/><path class="cls-25" d="M149.07,300.51a29.79,29.79,0,0,0,.41-4v-.05a6,6,0,0,0,.72.12,13.18,13.18,0,0,0,2,.07,8.84,8.84,0,0,0,1,2.78l0,.18C150.95,299.86,149.94,299.82,149.07,300.51Z"/><path class="cls-39" d="M149.92,289a5.05,5.05,0,0,0,1.27.9,6.08,6.08,0,0,0-1.64,4.37l0,.11a5.27,5.27,0,0,1-1.35-.81l-.33-.28.12-.14A5.31,5.31,0,0,1,149.92,289Z"/><path class="cls-39" d="M149.48,296.54a29.79,29.79,0,0,1-.41,4c.87-.69,1.88-.66,4.12-.87l1.27-.13c.31,0,.61-.08.89-.14a9.42,9.42,0,0,0,4-1.72l.05,0a8.57,8.57,0,0,0,.79,1.24,10.44,10.44,0,0,1-3.78,1.82,21.06,21.06,0,0,1-2.19.48c-.56.1-1.12.18-1.68.25-2.33.31-4.57.5-6.15,1.26,0-.12,1.57-4.13,1.46-6.75v0a6.09,6.09,0,0,0,1.6.59Z"/><path class="cls-25" d="M148.81,287.57a6.23,6.23,0,0,0,1.1,1.47,5.31,5.31,0,0,0-2,4.16l-.12.14c-2-1.79-4.09-4.72-5-4.92a14.62,14.62,0,0,0,3.55-2.26c1.17-1.19,1.46-1.15,1.46-1.15A9.56,9.56,0,0,0,148.81,287.57Z"/><path class="cls-39" d="M147.57,295.71l-.1.17a11.57,11.57,0,0,1-11.31,3s1.3-4.27,8.78-5.25l.25-.09A10.11,10.11,0,0,0,147.57,295.71Z"/><path class="cls-39" d="M147.49,282.09c0,.41.07.83.12,1.23-.18.1-.37.23-.57.38l-.13-.18c-7.79.19-9.21-4.88-9.21-4.88a9.3,9.3,0,0,1,9.71,3.46Z"/><path class="cls-39" d="M146,303l0,0a10.3,10.3,0,0,0-3.09,8.26h-.21s-4.14,2.6-7.48,2.66a13.2,13.2,0,0,1,5-8.78A10.08,10.08,0,0,0,146,303Z"/><path class="cls-39" d="M145.79,274.46l-.06,0a14.41,14.41,0,0,0-6.86-2v-.05s-3.4-5.25-3.65-8c0,0,6.37,1.42,8.47,3.89h0A16.7,16.7,0,0,0,145.79,274.46Z"/><path class="cls-25" d="M140.23,305.22a18.24,18.24,0,0,1-8.2-1.29c-.32-.12-.64-.24-1-.39a32.31,32.31,0,0,1-3.5-1.73,15.42,15.42,0,0,1,.91-3.9l.12-.31a14.79,14.79,0,0,1,4.79-6.53,15.18,15.18,0,0,1,6-2.72l.69-.14c2.19,1.27,3.52,3.5,5.1,5.35l-.25.09c-7.48,1-8.78,5.25-8.78,5.25a11.57,11.57,0,0,0,11.31-3l.1-.17.32.19v0c.11,2.61-1.41,6.62-1.46,6.75h0l-.42.39,0,0A10.08,10.08,0,0,1,140.23,305.22Z"/><path class="cls-25" d="M145,261.2l.05,0a11.8,11.8,0,0,0-1.33,7.14h0c-2.1-2.47-8.47-3.89-8.47-3.89.25,2.72,3.65,8,3.65,8v.05a18.53,18.53,0,0,0-7,1.2l0-.14a5.77,5.77,0,0,1-.49-1.37,9.51,9.51,0,0,1,0-4.43,9.08,9.08,0,0,1,1.34-3,10.65,10.65,0,0,1,1.35-1.61,9.42,9.42,0,0,1,2.1-1.58,9.19,9.19,0,0,1,2.88-1A11.81,11.81,0,0,1,145,261.2Z"/><path class="cls-25" d="M136.63,317.15a11.1,11.1,0,0,0,7.81.56l.15-.07.12.26-.17.08c-7.67,7.42-4,18.55-4,18.55,8.9-6.92,10-15.17,10-15.17l0,0a10.33,10.33,0,0,0,5.31,4.41c0,.23.71,3.91,2.22,5.35l0,0a26.51,26.51,0,0,1-8.7,5.39c-9.49,3.89-10.7,6.27-10.91,6.91-.26-.8-2.16-6.62-4.3-11.74a36.14,36.14,0,0,1-2.84-11.83l-.06-.34a11.52,11.52,0,0,0,5.34-2.21Z"/><path class="cls-25" d="M144.59,317.64l-.15.07a11.1,11.1,0,0,1-7.81-.56,12.17,12.17,0,0,1-2.51-1.62q-.4-.33-.81-.72a7.17,7.17,0,0,1-1.92-3.13c-1.14-3.7.62-7.69.62-7.69l0,0a18.24,18.24,0,0,0,8.2,1.29,13.2,13.2,0,0,0-5,8.78c3.34-.06,7.48-2.66,7.48-2.66h.21A18.29,18.29,0,0,0,144.59,317.64Z"/><path class="cls-25" d="M139.37,288.21a13.45,13.45,0,0,1-5.74-3.47,15.11,15.11,0,0,1-3.62-5.84c-.11-.33-.22-.67-.32-1a20,20,0,0,1-.59-2.91,17.14,17.14,0,0,1,2.77-1.28,18.53,18.53,0,0,1,7-1.2,14.41,14.41,0,0,1,6.86,2l.06,0,.35.61c1.11,2.24,1.16,4.65,1.35,7h-.08a9.3,9.3,0,0,0-9.71-3.46s1.42,5.07,9.21,4.88l.13.18c-.78.56-1.7,1.37-2.4,2a39.52,39.52,0,0,1-4.54,2.55l-.69.14Z"/><path class="cls-39" d="M139.37,288.21l0,.14a15.18,15.18,0,0,0-6,2.72l-.06-.08a20.92,20.92,0,0,1-9.09-2.66c2.91-2,9.27-3.46,9.27-3.46l.13-.13A13.45,13.45,0,0,0,139.37,288.21Z"/><path class="cls-39" d="M138.93,260.36l0,.2a9.19,9.19,0,0,0-2.88,1l0-.2c-1.24-.91-4.37-.91-4.37-.91h-.09a14.36,14.36,0,0,1,.26-2.55C132.12,257.9,137.33,258.27,138.93,260.36Z"/><path class="cls-39" d="M107.67,314a18.26,18.26,0,0,0-8.06-.44,47,47,0,0,0,5.73-6.73c.53-.76,1.05-1.57,1.54-2.4A25.41,25.41,0,0,0,108.6,301c.45-1.13.92-2.24,1.41-3.3,2.4-5.19,5.18-9.26,7.16-9.81l.17-.15a17.47,17.47,0,0,0,1.74,1.71l-.18.25c-2.06.91-5.44,5.19-6.59,9.23s-6.43,12.28-6.43,12.28c3.63-.16,4,1.32,14.67,4.54a28,28,0,0,0,8.08,1.39,11.59,11.59,0,0,0,3.41-.46,4.52,4.52,0,0,0,2-1.09l0-.06a12.17,12.17,0,0,0,2.51,1.62v.17a11.52,11.52,0,0,1-5.34,2.21,17.14,17.14,0,0,1-3,.27,26.16,26.16,0,0,1-10.05-2.15l-1.08-.43c-2.47-1-4.56-1.73-6.34-2.28C109.65,314.55,108.61,314.27,107.67,314Z"/><path class="cls-39" d="M136,239.42l.08,0q-.34,1.17-.77,2.49l-.14,0c-3.46-2.31-8.74-1.48-8.74-1.48a16.94,16.94,0,0,0-1.65,6.84v0a8,8,0,0,0-2.55,1.38v0a15.47,15.47,0,0,1,2.31-10.39S131.19,237.61,136,239.42Z"/><path class="cls-25" d="M135.22,241.89l.14,0c-.54,1.67-1.19,3.52-1.95,5.51l-.08,0s-4.53-1.43-8.47-.12v0a16.94,16.94,0,0,1,1.65-6.84S131.76,239.59,135.22,241.89Z"/><path class="cls-25" d="M134.12,315.52l0,.06a4.52,4.52,0,0,1-2,1.09l0-.1a5,5,0,0,1,1.3-1.77Q133.72,315.19,134.12,315.52Z"/><path class="cls-39" d="M134,339.17c.24.87.44,1.73.62,2.56-.81.23-8,2.18-11.8,1.71,0,0-3.79-8.24-1.4-12.12l.05-.07a11,11,0,0,0,2.76,1.51l0,.13c-1.32,2.23,1,7.91,1,7.91C128.23,340.95,132.78,339.55,134,339.17Z"/><path class="cls-25" d="M122.6,287.64a9,9,0,0,1,1-3.16,13.8,13.8,0,0,1,6.29-5.53l.1,0a15.11,15.11,0,0,0,3.62,5.84l-.13.13s-6.36,1.48-9.27,3.46a20.92,20.92,0,0,0,9.09,2.66l.06.08a14.79,14.79,0,0,0-4.79,6.53l-.16-.06a10.67,10.67,0,0,1-5.5-6.11,8.63,8.63,0,0,1-.4-2.65c0-.23,0-.46,0-.7S122.58,287.79,122.6,287.64Z"/><path class="cls-39" d="M120.53,250.63q.42-.57.93-1.15a7.33,7.33,0,0,1,.84-.8,8,8,0,0,1,2.55-1.38c3.95-1.31,8.47.12,8.47.12l.08,0c-.6,1.57-1.27,3.23-2,5a25.8,25.8,0,0,0-1.75,5.65l-.11,0a50.59,50.59,0,0,0-11.23,3.2l-.06-.15a11.74,11.74,0,0,1,.68-7.68A13.93,13.93,0,0,1,120.53,250.63Z"/><path class="cls-39" d="M133.31,314.8a5,5,0,0,0-1.3,1.77l0,.1a11.59,11.59,0,0,1-3.41.46v-.07a19.06,19.06,0,0,1,2.64-5.36l.12,0A7.17,7.17,0,0,0,133.31,314.8Z"/><path class="cls-25" d="M132.09,333.8a38.67,38.67,0,0,1,1.86,5.37c-1.17.38-5.72,1.78-8.78,1.64,0,0-2.31-5.69-1-7.91l0-.13a10.29,10.29,0,0,0,7.07-.12h.33C131.75,333,131.92,333.41,132.09,333.8Z"/><path class="cls-39" d="M131.82,273.57l0,.14A17.14,17.14,0,0,0,129.1,275a20,20,0,0,0,.59,2.91l-.07,0a19.82,19.82,0,0,1-14.67-8.57,17.61,17.61,0,0,1,16.24,2.89l.15,0A5.77,5.77,0,0,0,131.82,273.57Z"/><path class="cls-25" d="M132.63,264.73a7,7,0,0,1-1-4.29h.09s3.13,0,4.37.91l0,.2a9.42,9.42,0,0,0-2.1,1.58,10.65,10.65,0,0,0-1.35,1.61Z"/><path class="cls-25" d="M131.33,272.19l-.15,0a17.61,17.61,0,0,0-16.24-2.89,19.82,19.82,0,0,0,14.67,8.57l.07,0c.1.35.21.69.32,1l-.1,0a13.8,13.8,0,0,0-6.29,5.53l-.1-.05s-2.79.49-3.95,1.56a30.92,30.92,0,0,1-4.13-6.59c-3.38-7.09-7.67-12-7.91-12,0,0,9.72-2.31,12.61-4.2s9.15-2.55,9.15-2.55h.08c-.18,4.86,1.9,7.15,1.9,7.15h0A9.51,9.51,0,0,0,131.33,272.19Z"/><path class="cls-39" d="M131.06,303.55l0,.09s-6.35,8-18.13,4.45c0,0,5.77-10.55,15.41-10.22l.16.06a15.42,15.42,0,0,0-.91,3.9A32.31,32.31,0,0,0,131.06,303.55Z"/><path class="cls-39" d="M119.57,286a14.52,14.52,0,0,0,3,2.81,8.63,8.63,0,0,0,.4,2.65l-.23.08a8.62,8.62,0,0,1-3.61-2.07,17.47,17.47,0,0,1-1.74-1.71,30.77,30.77,0,0,1-4.79-7.6c-.45-1-.92-1.9-1.39-2.77a48,48,0,0,0-3.12-5c-.67-.94-1.32-1.78-1.93-2.52a27.4,27.4,0,0,0-4.52-4.5,78.92,78.92,0,0,0,7.82-1.1c.89-.17,1.78-.37,2.66-.59h0a22.86,22.86,0,0,0,4.6-1.61c.52-.26,1.07-.52,1.63-.76a50.59,50.59,0,0,1,11.23-3.2l.11,0a18,18,0,0,0-.28,2.54h-.08s-6.26.66-9.15,2.55-12.61,4.2-12.61,4.2c.25,0,4.53,4.95,7.91,12A30.92,30.92,0,0,0,119.57,286Z"/><path class="cls-39" d="M128.3,320.12s.11,4.83,3.3,12.53h-.33a10.29,10.29,0,0,1-7.07.12,11,11,0,0,1-2.76-1.51c-.24-.18-.48-.37-.73-.58s-.43-.38-.64-.58a9.36,9.36,0,0,1-1.54-2c-2.73-4.59-1.42-10.73-1.42-10.73l.07-.19,1.08.43a26.16,26.16,0,0,0,10.05,2.15Z"/><path class="cls-25" d="M118.9,289.7l.18-.25a8.62,8.62,0,0,0,3.61,2.07l.23-.08a10.67,10.67,0,0,0,5.5,6.11l.16.06-.12.31-.16-.06c-9.64-.33-15.41,10.22-15.41,10.22,11.79,3.54,18.13-4.45,18.13-4.45l0-.09c.33.14.65.27,1,.39l0,0s-1.76,4-.62,7.69l-.12,0a19.06,19.06,0,0,0-2.64,5.36v.07a28,28,0,0,1-8.08-1.39c-10.63-3.21-11-4.7-14.67-4.54,0,0,5.28-8.24,6.43-12.28S116.84,290.61,118.9,289.7Z"/><path class="cls-39" d="M122.6,287.64c0,.15,0,.3,0,.46s0,.47,0,.7a14.52,14.52,0,0,1-3-2.81c1.15-1.07,3.95-1.56,3.95-1.56l.1.05A9,9,0,0,0,122.6,287.64Z"/><path class="cls-39" d="M120.53,250.63a13.93,13.93,0,0,0-1.61,2.79,9.69,9.69,0,0,0-8.59,1.5c-.58,4.12,1.73,8.65,1.73,8.65v0h0c-.88.22-1.77.42-2.66.59-.22-.44-3.05-6.36-1.31-11.59C108.1,252.61,114.52,248.75,120.53,250.63Z"/><path class="cls-39" d="M120.63,330.75a29.23,29.23,0,0,1-14.42-2.06s-1.89-10.59,1.46-14.65c.93.22,2,.51,3.15.88-3.46,4.29-2.14,11.46-2.14,11.46a26,26,0,0,0,9.73,1.81l.11-.06a9.36,9.36,0,0,0,1.54,2c.22.21.43.4.64.58Z"/><path class="cls-25" d="M118.52,328.13l-.11.06a26,26,0,0,1-9.73-1.81s-1.32-7.17,2.14-11.46c1.78.56,3.87,1.3,6.34,2.28l-.07.19S115.79,323.55,118.52,328.13Z"/><path class="cls-25" d="M118.24,261.1l.06.15c-.56.24-1.11.49-1.63.76a22.86,22.86,0,0,1-4.6,1.61v0s-2.31-4.53-1.73-8.65a9.69,9.69,0,0,1,8.59-1.5A11.74,11.74,0,0,0,118.24,261.1Z"/><path class="cls-39" d="M117.34,287.73l-.17.15c-2,.55-4.77,4.62-7.16,9.81l-.17-.08a7.87,7.87,0,0,1-5.44-5,11.3,11.3,0,0,1-.7-3.28c0-.36,0-.74,0-1.14a12.11,12.11,0,0,1,.41-3.19,11.8,11.8,0,0,1,7-7.61l.1-.05c.47.87.93,1.79,1.39,2.77A30.77,30.77,0,0,0,117.34,287.73Z"/><path class="cls-25" d="M111.17,277.37l-.1.05a11.8,11.8,0,0,0-7,7.61l-.08,0s-4.2-3.3-5.11-6.27a15,15,0,0,1,9.07-6.35l.1-.07A48,48,0,0,1,111.17,277.37Z"/><path class="cls-25" d="M109.84,297.62l.17.08c-.49,1.06-1,2.16-1.41,3.3a25.41,25.41,0,0,1-1.71,3.48l-.18-.1s-5.19-1.57-8.08-5.52c0,0,2.14-4.37,5.69-6.18l.09,0A7.87,7.87,0,0,0,109.84,297.62Z"/><path class="cls-39" d="M108,272.32l-.1.07a15,15,0,0,0-9.07,6.35c.91,3,5.11,6.27,5.11,6.27l.08,0a12.11,12.11,0,0,0-.41,3.19s-6.26-4.45-8.49-9.4c0,0,6.59-8,10.8-8.9l.15-.12C106.73,270.54,107.38,271.38,108,272.32Z"/><path class="cls-39" d="M106.71,304.37l.18.1c-.48.83-1,1.64-1.54,2.4l0,0s-8.16-3.13-10.47-7.34c0,0,3.21-7.58,8.74-10.14h.12a11.3,11.3,0,0,0,.7,3.28l-.09,0c-3.54,1.81-5.69,6.18-5.69,6.18C101.51,302.81,106.71,304.37,106.71,304.37Z"/></g><text class="cls-52" transform="translate(71.26 385.6)"><tspan class="cls-53">R</tspan><tspan x="19.25" y="0">eble </tspan><tspan class="cls-54" x="90.94" y="0">P</tspan><tspan x="108.95" y="0">etal</tspan></text></g><text class="cls-55" transform="translate(349.43 496.68)">R<tspan class="cls-56" x="15.13" y="0">eble </tspan><tspan class="cls-57" x="71.5" y="0">P</tspan><tspan class="cls-56" x="85.66" y="0">etal</tspan></text><path class="cls-25" d="M428.49,372.36S440.58,352.6,457,354.14a38.38,38.38,0,0,1-13,30.94,37.94,37.94,0,0,0-5.93-6.79A32.42,32.42,0,0,0,428.49,372.36Z"/><path class="cls-47" d="M430.09,370.45a32.5,32.5,0,0,1,2.53-3.56c-1.33,1.61,2.24-2.2,1.61-1.59q.94-.92,1.93-1.78a38.24,38.24,0,0,1,4.39-3.33,25.26,25.26,0,0,1,10.65-4.08c.79-.09,3.73-.53,4.22.1.24.3,0,1.34.07,1.69.84,6-1.94,13.6-4.75,18.71-.81,1.48-3.21,6.56-5.15,6.55-.28,0-2.06-2.72-2.22-2.91a35.46,35.46,0,0,0-13.28-9.81c-.46-.2-2.82,4-3.21,3.83a34.57,34.57,0,0,1,10.83,7.14c.81.81,3.71,5.38,4.6,5.47,1.74.17,6-6.15,7.23-7.67a40,40,0,0,0,7.67-14.36c.87-3,2.36-8,1.5-11.25-.45-1.72.68-.83-1.3-1.46-2.26-.71-5.89.58-8.06,1.38a35.43,35.43,0,0,0-12.68,8.72,71.45,71.45,0,0,0-9.79,12C427.75,372.88,429.22,371.85,430.09,370.45Z"/><path class="cls-25" d="M403,434.8S390.87,454.56,374.43,453a38.38,38.38,0,0,1,13-30.94,37.93,37.93,0,0,0,5.93,6.79A32.42,32.42,0,0,0,403,434.8Z"/><path class="cls-47" d="M401.35,436.71a32.5,32.5,0,0,1-2.53,3.56c1.33-1.61-2.24,2.2-1.61,1.59q-.94.92-1.93,1.78a38.24,38.24,0,0,1-4.39,3.33A25.27,25.27,0,0,1,380.24,451c-.79.09-3.73.53-4.22-.1-.24-.3,0-1.34-.07-1.69-.84-6,1.94-13.6,4.75-18.71.81-1.48,3.21-6.56,5.15-6.55.28,0,2.06,2.72,2.22,2.91a35.48,35.48,0,0,0,13.28,9.81c.46.2,2.82-4,3.21-3.83a34.59,34.59,0,0,1-10.83-7.14c-.81-.81-3.71-5.38-4.6-5.47-1.74-.17-6,6.15-7.23,7.67a40,40,0,0,0-7.67,14.36c-.87,3-2.36,8-1.5,11.25.45,1.72-.68.83,1.3,1.46,2.26.71,5.89-.58,8.06-1.38a35.44,35.44,0,0,0,12.68-8.72,71.45,71.45,0,0,0,9.79-12C403.7,434.28,402.22,435.3,401.35,436.71Z"/><path class="cls-25" d="M445.57,387.87s22-7.37,33.57,4.38a38.38,38.38,0,0,1-29.88,15.33,37.94,37.94,0,0,0-.18-9A32.42,32.42,0,0,0,445.57,387.87Z"/><path class="cls-47" d="M448,387.44a32.5,32.5,0,0,1,4.23-1.1c-2,.38,3.13-.25,2.26-.18q1.31-.1,2.62-.12a38.24,38.24,0,0,1,5.5.27A25.26,25.26,0,0,1,473.41,390c.67.44,3.19,2,3.17,2.79,0,.38-.84,1-1,1.34-3.21,5.14-10.23,9.17-15.67,11.28-1.58.61-6.67,3-8.16,1.71-.21-.18.17-3.41.17-3.65A35.46,35.46,0,0,0,448,387.44c-.23-.45-4.73,1.26-4.92.87a34.57,34.57,0,0,1,3.7,12.43c.1,1.14-.62,6.5,0,7.15,1.22,1.25,8.54-.86,10.47-1.23a40,40,0,0,0,15.11-6.07c2.62-1.77,7-4.63,8.38-7.66.75-1.61,1.06-.2-.06-2-1.27-2-4.89-3.34-7.06-4.12a35.43,35.43,0,0,0-15.31-1.47,71.45,71.45,0,0,0-15.24,2.92C444.66,387.79,446.46,388,448,387.44Z"/><path class="cls-25" d="M385.88,419.29s-22,7.37-33.57-4.38a38.38,38.38,0,0,1,29.88-15.33,37.93,37.93,0,0,0,.18,9A32.42,32.42,0,0,0,385.88,419.29Z"/><path class="cls-47" d="M383.42,419.72a32.5,32.5,0,0,1-4.22,1.1c2-.38-3.13.25-2.26.18q-1.31.1-2.62.12a38.24,38.24,0,0,1-5.5-.27A25.27,25.27,0,0,1,358,417.13c-.67-.44-3.19-2-3.17-2.79,0-.38.84-1,1-1.34,3.21-5.14,10.23-9.17,15.67-11.28,1.58-.61,6.67-3,8.16-1.71.21.18-.17,3.41-.17,3.65a35.48,35.48,0,0,0,3.87,16.05c.23.45,4.73-1.26,4.92-.87a34.59,34.59,0,0,1-3.7-12.43c-.1-1.14.62-6.5,0-7.15-1.22-1.25-8.54.86-10.47,1.23a40,40,0,0,0-15.11,6.07c-2.62,1.77-7,4.63-8.38,7.66-.75,1.61-1.06.2.06,2,1.27,2,4.89,3.34,7.06,4.12a35.44,35.44,0,0,0,15.32,1.47,71.45,71.45,0,0,0,15.23-2.92C386.78,419.37,385,419.21,383.42,419.72Z"/><path class="cls-25" d="M448.68,410.73s21.57,8.48,22.9,24.94a38.38,38.38,0,0,1-32.74-7.46,37.94,37.94,0,0,0,5.66-7A32.42,32.42,0,0,0,448.68,410.73Z"/><path class="cls-47" d="M450.85,412a32.5,32.5,0,0,1,3.94,1.87c-1.81-1,2.56,1.82,1.85,1.31q1.06.76,2.08,1.59a38.24,38.24,0,0,1,4,3.75,25.26,25.26,0,0,1,5.87,9.78c.23.77,1.17,3.58.64,4.18-.25.28-1.31.25-1.66.36-5.77,1.87-13.73.45-19.25-1.43-1.6-.54-7-2-7.34-3.94,0-.28,2.32-2.5,2.48-2.69A35.46,35.46,0,0,0,450.85,412c.12-.49-4.43-2.08-4.33-2.5a34.57,34.57,0,0,1-5.15,11.9c-.66.94-4.66,4.58-4.59,5.48.13,1.74,7.1,4.83,8.81,5.79a40,40,0,0,0,15.48,5.06c3.14.32,8.31.93,11.34-.48,1.61-.74.94.53,1.21-1.53.31-2.35-1.6-5.7-2.76-7.69a35.43,35.43,0,0,0-10.79-11,71.45,71.45,0,0,0-13.55-7.56C448,410.09,449.31,411.36,450.85,412Z"/><path class="cls-25" d="M382.77,396.43S361.2,388,359.86,371.5A38.38,38.38,0,0,1,392.6,379a37.93,37.93,0,0,0-5.65,7A32.42,32.42,0,0,0,382.77,396.43Z"/><path class="cls-47" d="M380.6,395.18a32.5,32.5,0,0,1-3.94-1.87c1.81,1-2.56-1.82-1.85-1.31q-1.06-.76-2.08-1.59a38.24,38.24,0,0,1-4-3.75,25.27,25.27,0,0,1-5.87-9.78c-.23-.76-1.17-3.58-.64-4.18.25-.28,1.31-.25,1.66-.36,5.77-1.87,13.73-.45,19.25,1.43,1.6.54,7,2,7.35,3.94,0,.28-2.32,2.5-2.48,2.69a35.48,35.48,0,0,0-7.35,14.79c-.12.49,4.43,2.08,4.33,2.5a34.59,34.59,0,0,1,5.15-11.9c.66-.94,4.65-4.59,4.59-5.48-.13-1.74-7.1-4.83-8.81-5.79a40,40,0,0,0-15.48-5.06c-3.14-.32-8.31-.93-11.34.48-1.61.74-.94-.53-1.21,1.53-.31,2.35,1.6,5.7,2.76,7.69a35.44,35.44,0,0,0,10.79,11,71.45,71.45,0,0,0,13.55,7.56C383.4,397.07,382.14,395.8,380.6,395.18Z"/><path class="cls-25" d="M436.38,430.24s11.07,20.36,1.52,33.82a38.38,38.38,0,0,1-20.28-26.76,37.94,37.94,0,0,0,8.84-1.74A32.42,32.42,0,0,0,436.38,430.24Z"/><path class="cls-47" d="M437.23,432.59a32.5,32.5,0,0,1,1.82,4c-.73-2,.79,3,.57,2.19q.32,1.27.57,2.56a38.24,38.24,0,0,1,.69,5.47A25.26,25.26,0,0,1,439.09,458c-.32.73-1.41,3.49-2.19,3.61-.38.06-1.17-.65-1.5-.79-5.62-2.27-10.81-8.49-13.83-13.47-.88-1.45-4.07-6.06-3.1-7.74.14-.24,3.38-.42,3.63-.46a35.46,35.46,0,0,0,15.14-6.6c.41-.3-2.06-4.44-1.71-4.7a34.57,34.57,0,0,1-11.6,5.81c-1.11.3-6.51.52-7,1.25-1,1.42,2.33,8.26,3,10.09a40,40,0,0,0,8.6,13.82c2.2,2.27,5.77,6,9,6.92,1.71.46.38,1,1.91-.4,1.74-1.6,2.44-5.4,2.83-7.67A35.43,35.43,0,0,0,441,442.39a71.45,71.45,0,0,0-5.52-14.5C436.3,429.34,436.45,431.13,437.23,432.59Z"/><path class="cls-25" d="M395.07,376.92S384,356.57,393.55,343.1a38.38,38.38,0,0,1,20.28,26.76A37.93,37.93,0,0,0,405,371.6,32.42,32.42,0,0,0,395.07,376.92Z"/><path class="cls-47" d="M394.21,374.57a32.5,32.5,0,0,1-1.82-4c.73,2-.79-3-.57-2.19q-.32-1.27-.57-2.56a38.24,38.24,0,0,1-.69-5.47,25.27,25.27,0,0,1,1.79-11.26c.32-.73,1.4-3.49,2.19-3.61.38-.06,1.17.65,1.5.79,5.62,2.27,10.81,8.49,13.83,13.47.88,1.45,4.07,6.06,3.1,7.74-.14.24-3.38.42-3.63.47a35.48,35.48,0,0,0-15.14,6.6c-.41.3,2.06,4.44,1.71,4.7a34.59,34.59,0,0,1,11.6-5.81c1.11-.3,6.51-.52,7-1.25,1-1.42-2.33-8.26-3-10.09a40,40,0,0,0-8.6-13.82c-2.2-2.27-5.77-6-9-6.92-1.71-.46-.38-1-1.91.4-1.74,1.6-2.44,5.4-2.83,7.67a35.44,35.44,0,0,0,1.22,15.34,71.45,71.45,0,0,0,5.52,14.5C395.15,377.82,395,376,394.21,374.57Z"/><path class="cls-25" d="M414.41,437.28s-4.6,22.71-20.58,26.89a38.38,38.38,0,0,1,1.66-33.54,37.94,37.94,0,0,0,7.89,4.35A32.42,32.42,0,0,0,414.41,437.28Z"/><path class="cls-47" d="M413.56,439.63a32.5,32.5,0,0,1-1.16,4.21c.7-2-1.35,2.84-1,2q-.57,1.18-1.2,2.33a38.24,38.24,0,0,1-3,4.63,25.26,25.26,0,0,1-8.61,7.48c-.71.36-3.32,1.77-4,1.36-.32-.2-.48-1.25-.64-1.57-2.85-5.36-2.83-13.45-1.94-19.21.26-1.67.77-7.26,2.6-7.92.26-.09,2.86,1.85,3.08,2a35.46,35.46,0,0,0,15.84,4.67c.51,0,1.28-4.73,1.71-4.7a34.57,34.57,0,0,1-12.61-3c-1-.48-5.32-3.79-6.2-3.56-1.69.43-3.52,7.83-4.17,9.68A40,40,0,0,0,390,454.16c.23,3.15.53,8.34,2.44,11.09,1,1.46-.36,1,1.72.92,2.37-.1,5.34-2.56,7.1-4.05a35.43,35.43,0,0,0,8.93-12.53,71.45,71.45,0,0,0,5.09-14.65C414.93,436.54,413.89,438,413.56,439.63Z"/><path class="cls-25" d="M417,369.88s4.6-22.71,20.58-26.89A38.38,38.38,0,0,1,436,376.53a37.93,37.93,0,0,0-7.89-4.35A32.42,32.42,0,0,0,417,369.88Z"/><path class="cls-47" d="M417.89,367.53a32.5,32.5,0,0,1,1.16-4.21c-.7,2,1.35-2.84,1-2q.57-1.18,1.2-2.33a38.24,38.24,0,0,1,3-4.63,25.27,25.27,0,0,1,8.61-7.48c.71-.36,3.32-1.77,4-1.36.32.2.48,1.25.64,1.57,2.85,5.36,2.83,13.45,1.94,19.21-.26,1.67-.77,7.26-2.6,7.92-.26.09-2.86-1.85-3.08-2a35.48,35.48,0,0,0-15.84-4.67c-.51,0-1.28,4.73-1.71,4.7a34.59,34.59,0,0,1,12.61,3c1,.48,5.32,3.79,6.2,3.56,1.69-.43,3.52-7.83,4.17-9.68A40,40,0,0,0,441.45,353c-.23-3.15-.53-8.34-2.44-11.09-1-1.46.36-1-1.72-.92-2.37.11-5.34,2.56-7.1,4.05a35.44,35.44,0,0,0-8.93,12.53,71.45,71.45,0,0,0-5.09,14.65C416.52,370.62,417.55,369.15,417.89,367.53Z"/><path class="cls-25" d="M393.06,428.55s-18.12,14.44-33,7.37a38.38,38.38,0,0,1,22.83-24.62,37.94,37.94,0,0,0,3.25,8.41A32.42,32.42,0,0,0,393.06,428.55Z"/><path class="cls-47" d="M390.89,429.8a32.5,32.5,0,0,1-3.59,2.48c1.8-1.06-2.86,1.31-2.06.94q-1.19.54-2.42,1a38.24,38.24,0,0,1-5.27,1.63,25.26,25.26,0,0,1-11.4.19c-.78-.18-3.68-.78-3.94-1.53-.12-.36.44-1.26.51-1.61,1.26-5.93,6.48-12.12,10.86-16,1.27-1.11,5.26-5.06,7.08-4.39.26.1,1,3.26,1.09,3.49a35.46,35.46,0,0,0,9.13,13.76c.37.35,4-2.8,4.33-2.5a34.57,34.57,0,0,1-7.73-10.41c-.49-1-1.64-6.32-2.45-6.71-1.58-.76-7.73,3.73-9.41,4.74a40,40,0,0,0-12.12,10.87c-1.85,2.56-5,6.73-5.26,10.06-.16,1.77-.93.55.73,1.81,1.88,1.44,5.74,1.47,8,1.46a35.43,35.43,0,0,0,14.89-3.86,71.45,71.45,0,0,0,13.32-8C393.93,428.32,392.19,428.78,390.89,429.8Z"/><path class="cls-25" d="M438.39,378.61s18.12-14.44,33-7.37a38.38,38.38,0,0,1-22.83,24.62,37.93,37.93,0,0,0-3.25-8.41A32.42,32.42,0,0,0,438.39,378.61Z"/><path class="cls-47" d="M440.55,377.36a32.5,32.5,0,0,1,3.59-2.48c-1.8,1.06,2.86-1.3,2.06-.94q1.19-.54,2.42-1a38.24,38.24,0,0,1,5.27-1.63,25.27,25.27,0,0,1,11.4-.19c.78.18,3.68.78,3.94,1.53.12.36-.44,1.26-.51,1.61-1.26,5.93-6.48,12.12-10.86,16-1.27,1.11-5.26,5.06-7.08,4.39-.26-.1-1-3.26-1.09-3.49a35.48,35.48,0,0,0-9.13-13.76c-.37-.35-4,2.8-4.33,2.5A34.59,34.59,0,0,1,444,390.27c.49,1,1.64,6.32,2.46,6.71,1.58.76,7.73-3.73,9.42-4.74a40,40,0,0,0,12.12-10.87c1.85-2.56,5-6.73,5.26-10.06.16-1.77.93-.55-.73-1.81-1.88-1.44-5.74-1.47-8-1.46a35.44,35.44,0,0,0-14.89,3.86,71.45,71.45,0,0,0-13.32,8C437.52,378.84,439.26,378.38,440.55,377.36Z"/><path class="cls-25" d="M382.31,408.14s-23.16-.59-30.05-15.59a38.38,38.38,0,0,1,33.31-4.19,37.94,37.94,0,0,0-2.91,8.53A32.42,32.42,0,0,0,382.31,408.14Z"/><path class="cls-47" d="M379.85,407.71a32.5,32.5,0,0,1-4.35-.41c2.05.34-3-.84-2.18-.6q-1.26-.35-2.5-.78a38.24,38.24,0,0,1-5.08-2.14,25.26,25.26,0,0,1-8.86-7.18c-.48-.64-2.32-3-2-3.7.14-.35,1.15-.69,1.43-.91,4.78-3.73,12.75-5.12,18.58-5.24,1.69,0,7.28-.5,8.25,1.19.14.24-1.33,3.14-1.41,3.37a35.46,35.46,0,0,0-1.85,16.41c.06.5,4.88.44,4.92.87a34.57,34.57,0,0,1,.77-12.95c.29-1.11,2.81-5.9,2.43-6.72-.72-1.59-8.32-2.11-10.26-2.42a40,40,0,0,0-16.27.54c-3.07.77-8.12,2-10.49,4.33-1.26,1.25-1.06-.18-.61,1.86.51,2.31,3.45,4.81,5.22,6.29a35.43,35.43,0,0,0,13.89,6.61,71.45,71.45,0,0,0,15.32,2.46C383.13,408.52,381.5,407.76,379.85,407.71Z"/><path class="cls-25" d="M449.14,399s23.16.59,30.05,15.59a38.38,38.38,0,0,1-33.32,4.19,37.93,37.93,0,0,0,2.91-8.53A32.42,32.42,0,0,0,449.14,399Z"/><path class="cls-47" d="M451.6,399.45a32.5,32.5,0,0,1,4.35.41c-2.06-.34,3,.84,2.18.6q1.26.35,2.5.78a38.24,38.24,0,0,1,5.08,2.14,25.27,25.27,0,0,1,8.86,7.18c.48.64,2.32,3,2,3.7-.14.35-1.15.69-1.43.91-4.78,3.73-12.75,5.12-18.58,5.24-1.69,0-7.28.5-8.25-1.19-.14-.24,1.33-3.14,1.41-3.37a35.48,35.48,0,0,0,1.85-16.41c-.06-.5-4.88-.44-4.92-.87a34.59,34.59,0,0,1-.77,12.94c-.29,1.11-2.81,5.9-2.43,6.72.72,1.59,8.32,2.11,10.26,2.42a40,40,0,0,0,16.27-.54c3.07-.77,8.12-2,10.49-4.33,1.26-1.25,1.06.18.61-1.86-.51-2.31-3.45-4.81-5.22-6.29A35.44,35.44,0,0,0,462,401a71.45,71.45,0,0,0-15.32-2.46C448.32,398.63,449.95,399.4,451.6,399.45Z"/><path class="cls-25" d="M387.19,385.6s-17.37-15.34-13-31.26a38.38,38.38,0,0,1,28.21,18.2,37.94,37.94,0,0,0-7.71,4.66A32.42,32.42,0,0,0,387.19,385.6Z"/><path class="cls-47" d="M385.59,383.68a32.5,32.5,0,0,1-3.06-3.11c1.35,1.58-1.78-2.59-1.29-1.86q-.74-1.08-1.41-2.21a38.24,38.24,0,0,1-2.52-4.9,25.26,25.26,0,0,1-2.17-11.2c0-.8.13-3.76.83-4.14.33-.18,1.32.21,1.68.23,6.06.21,13.06,4.27,17.6,7.92,1.32,1.06,5.9,4.3,5.56,6.21,0,.28-3,1.55-3.25,1.68a35.46,35.46,0,0,0-12,11.38c-.28.42,3.45,3.47,3.21,3.83a34.57,34.57,0,0,1,8.91-9.42c.94-.66,5.94-2.72,6.18-3.58.47-1.68-5-7-6.3-8.45a40,40,0,0,0-12.81-10c-2.84-1.38-7.49-3.71-10.82-3.43-1.77.15-.7-.82-1.66,1-1.09,2.1-.45,5.91,0,8.17a35.43,35.43,0,0,0,6.39,14,71.45,71.45,0,0,0,10.15,11.73C387.58,386.42,386.82,384.78,385.59,383.68Z"/><path class="cls-25" d="M444.25,421.56s17.37,15.34,13,31.26A38.38,38.38,0,0,1,429,434.62a37.93,37.93,0,0,0,7.71-4.66A32.42,32.42,0,0,0,444.25,421.56Z"/><path class="cls-47" d="M445.86,423.48a32.5,32.5,0,0,1,3.06,3.11c-1.35-1.58,1.78,2.59,1.29,1.86q.74,1.08,1.41,2.21a38.24,38.24,0,0,1,2.52,4.9,25.27,25.27,0,0,1,2.17,11.2c0,.8-.13,3.76-.83,4.14-.33.18-1.32-.21-1.68-.23-6.06-.21-13.06-4.27-17.6-7.92-1.32-1.06-5.9-4.3-5.56-6.21,0-.28,3-1.55,3.25-1.68a35.48,35.48,0,0,0,12-11.38c.28-.42-3.45-3.47-3.21-3.83a34.59,34.59,0,0,1-8.91,9.42c-.94.66-5.94,2.72-6.18,3.58-.47,1.68,5,7,6.3,8.45a40,40,0,0,0,12.81,10c2.84,1.38,7.49,3.71,10.82,3.43,1.77-.15.7.82,1.66-1,1.09-2.1.45-5.91,0-8.17a35.44,35.44,0,0,0-6.39-14,71.45,71.45,0,0,0-10.15-11.73C443.87,420.74,444.63,422.38,445.86,423.48Z"/><path class="cls-25" d="M405.43,371.46s-3.45-22.91,10.14-32.3a38.38,38.38,0,0,1,9.91,32.08,37.94,37.94,0,0,0-8.91-1.39A32.42,32.42,0,0,0,405.43,371.46Z"/><path class="cls-47" d="M405.43,369a32.5,32.5,0,0,1-.35-4.35c0,2.08.3-3.13.21-2.25q.13-1.3.33-2.6a38.24,38.24,0,0,1,1.22-5.37,25.26,25.26,0,0,1,5.54-10c.55-.58,2.51-2.8,3.3-2.64.37.07.87,1,1.14,1.25,4.51,4.06,7.26,11.67,8.39,17.39.33,1.66,1.76,7.09.26,8.33-.22.18-3.33-.76-3.57-.8a35.46,35.46,0,0,0-16.48,1c-.49.14.42,4.88,0,5a34.57,34.57,0,0,1,12.88-1.49c1.14.1,6.3,1.74,7,1.23,1.44-1,.63-8.56.61-10.52a40,40,0,0,0-3.36-15.93c-1.29-2.89-3.35-7.66-6.09-9.58-1.45-1,0-1.08-1.93-.28-2.19.91-4.14,4.24-5.28,6.24a35.43,35.43,0,0,0-4.1,14.83,71.45,71.45,0,0,0,.23,15.51C405.19,372.34,405.66,370.6,405.43,369Z"/><path class="cls-25" d="M426,435.69s3.45,22.91-10.14,32.31A38.38,38.38,0,0,1,406,435.92a37.93,37.93,0,0,0,8.91,1.39A32.42,32.42,0,0,0,426,435.69Z"/><path class="cls-47" d="M426,438.19a32.5,32.5,0,0,1,.35,4.35c0-2.08-.3,3.13-.21,2.25q-.13,1.3-.33,2.6a38.24,38.24,0,0,1-1.22,5.37,25.27,25.27,0,0,1-5.53,10c-.55.58-2.51,2.8-3.3,2.64-.37-.07-.87-1-1.14-1.25-4.51-4.06-7.26-11.67-8.39-17.39-.33-1.66-1.76-7.09-.26-8.33.22-.18,3.32.76,3.57.8a35.48,35.48,0,0,0,16.48-1c.49-.14-.42-4.88,0-5a34.59,34.59,0,0,1-12.88,1.49c-1.14-.1-6.3-1.74-7-1.23-1.44,1-.63,8.56-.61,10.52a40,40,0,0,0,3.36,15.93c1.29,2.89,3.35,7.66,6.09,9.58,1.45,1,0,1.08,1.93.28,2.19-.91,4.14-4.24,5.28-6.24a35.44,35.44,0,0,0,4.1-14.83,71.45,71.45,0,0,0-.23-15.51C426.26,434.82,425.78,436.56,426,438.19Z"/><text class="cls-58" transform="translate(598.73 445.01)"><tspan class="cls-59">R</tspan><tspan x="23.99" y="0">eble </tspan><tspan class="cls-60" x="113.33" y="0">P</tspan><tspan x="135.77" y="0">etal</tspan></text><circle class="cls-61" cx="700.91" cy="303.58" r="54.16"/><path class="cls-62" d="M740.11,224.17l-.11,0c-47.18,11.88-39,25-39,25"/><path class="cls-62" d="M740.11,224.17c-7.39-15.9,10.41-20.83,10.41-20.83S756.64,219.93,740.11,224.17Z"/><path class="cls-62" d="M744.45,271.5s16.22-3.22-4.33-47.31h0"/><path class="cls-62" d="M661.54,383.35l.12,0c47.17-11.88,39-25,39-25"/><path class="cls-62" d="M661.54,383.35c7.4,15.89-10.4,20.83-10.4,20.83S645,387.61,661.54,383.35Z"/><path class="cls-62" d="M657.2,336s-16.22,3.22,4.33,47.31h0"/><path class="cls-62" d="M775.21,255.34l-.11,0c-46.64-13.84-46.29,1.6-46.29,1.6"/><path class="cls-62" d="M775.21,255.34c1.75-17.45,19.58-12.61,19.58-12.61S791.59,260.11,775.21,255.34Z"/><path class="cls-62" d="M754.81,298.26s15.59,5.5,20.4-42.91a0,0,0,0,0,0,0"/><path class="cls-62" d="M626.44,352.19l.12,0c46.64,13.84,46.29-1.6,46.29-1.6"/><path class="cls-62" d="M626.44,352.19c-1.74,17.45-19.57,12.61-19.57,12.61S610.06,347.42,626.44,352.19Z"/><path class="cls-62" d="M646.85,309.27s-15.59-5.5-20.4,42.91h0"/><path class="cls-62" d="M789.51,300l-.08-.09c-33.06-35.69-40.64-22.23-40.64-22.23"/><path class="cls-62" d="M789.51,300c10.4-14.11,23.27-.86,23.27-.86S801.16,312.51,789.51,300Z"/><path class="cls-62" d="M750.06,326.56s10.6,12.68,39.43-26.5h0"/><path class="cls-62" d="M612.14,307.48l.08.09c33.06,35.69,40.63,22.23,40.63,22.23"/><path class="cls-62" d="M612.14,307.48c-10.39,14.12-23.27.87-23.27.87S600.48,295,612.14,307.48Z"/><path class="cls-62" d="M651.59,281s-10.6-12.68-39.43,26.5h0"/><path class="cls-62" d="M779,345.8l0-.12c-10.23-47.56-23.62-39.85-23.62-39.85"/><path class="cls-62" d="M779,345.8c16.15-6.83,20.46,11.13,20.46,11.13S782.67,362.46,779,345.8Z"/><path class="cls-62" d="M731.55,348.48S734.2,364.8,779,345.8h0"/><path class="cls-62" d="M622.65,261.73l0,.12c10.24,47.56,23.61,39.84,23.61,39.84"/><path class="cls-62" d="M622.65,261.73c-16.14,6.85-20.46-11.12-20.46-11.12S619,245.07,622.65,261.73Z"/><path class="cls-62" d="M670.1,259s-2.65-16.32-47.43,2.68h0"/><path class="cls-62" d="M746.63,379.79l0-.11c15.45-46.13,0-46.32,0-46.32"/><path class="cls-62" d="M746.63,379.79c17.37,2.36,11.92,20,11.92,20S741.29,396,746.63,379.79Z"/><path class="cls-62" d="M704.45,357.9s-6,15.39,42.17,21.88h0"/><path class="cls-62" d="M655,227.74l0,.12c-15.45,46.13,0,46.31,0,46.31"/><path class="cls-62" d="M655,227.74c-17.38-2.34-11.92-20-11.92-20S660.35,211.53,655,227.74Z"/><path class="cls-62" d="M697.2,249.63s6-15.39-42.17-21.88h0"/><path class="cls-62" d="M701.45,392.52l.09-.08c36.82-31.8,23.63-39.84,23.63-39.84"/><path class="cls-62" d="M701.45,392.52c13.74,10.89.05,23.29.05,23.29S688.59,403.74,701.45,392.52Z"/><path class="cls-62" d="M676.33,352.18s-13,10.16,25.11,40.33h0"/><path class="cls-62" d="M700.2,215l-.09.08c-36.82,31.8-23.63,39.83-23.63,39.83"/><path class="cls-62" d="M700.2,215c-13.75-10.88-.06-23.29-.06-23.29S713.05,203.79,700.2,215Z"/><path class="cls-62" d="M725.32,255.35s13-10.16-25.11-40.33h0"/></g></svg>