<svg id="Layer_3" data-name="Layer 3" xmlns="http://www.w3.org/2000/svg" viewBox="0 0 279 176.71"><defs><style>.cls-1{fill:#ed2a91;}</style></defs><title>wordmark</title><path class="cls-1" d="M24.07,91.75c1.35-8.94,2.46-17.8,3.39-26.27,9.87-14,22.29-30.9,34.2-46.76l-5.6-4.21c-.14.19-13.79,18.37-27.22,37C31.41,23,31.78,1.48,31.79,1.06l-7-.11c0,.47-.49,28-4.1,62C.44,91.58.89,93.63,1.34,95.63c.76,3.41,4.56,4.1,9.2,4.1,1,0,2.12,0,3.21-.08l2-.1A355.37,355.37,0,0,1,7,139.22l6.72,2a367.54,367.54,0,0,0,9.27-42.24q4.3-.45,9.54-1.16C45.71,96,59,93.62,59.1,93.59L57.86,86.7C46.45,88.77,33.91,90.65,24.07,91.75Zm-14.79,1c1.66-3.07,5.09-8.37,9.69-15.1-.62,4.88-1.31,9.84-2.09,14.81A65.87,65.87,0,0,1,9.28,92.74Z"/><path class="cls-1" d="M87.48,88.16l-7-.58c0-.48.11-1.24.2-2.24L85,36.29l5.13.45c2.87-8,6.5-14.66,11.08-17.57a10.9,10.9,0,0,1,10-1.06l-2.44,6.56a3.92,3.92,0,0,0-3.8.41C95.87,30.86,89.73,64,87.72,85.41Z"/><path class="cls-1" d="M198.33,21.25c.85-5.94,1.27-10,1.31-10.31l-7-.8-.07.49c-.46,3.08-1,7.29-1.51,12.32-4.21,28.89-11.55,47.51-16.67,47.51-.68,0-6.74-.82-11.83-29.44a318,318,0,0,1-3.81-32l-7,.12-1.73,67.24c-7.15,1.2-14.52,2.85-22,4.88q.41-3,.83-6.23a53.81,53.81,0,0,0,19.75-21.58l-6.3-3a45.16,45.16,0,0,1-12.29,15.23c2.36-20.17,4.09-42.57,1-48.06A5.84,5.84,0,0,0,126,14.38h0c-7.69,0-19.14,17.91-25.3,28.6l6.07,3.49c6.81-11.82,15-22.73,18.55-24.78,1,3.58.69,15.38-1.07,33a12.54,12.54,0,0,0-3.9-5.36c-1.88-1.4-5.07-2.65-9.56-.67C101.21,52.89,95.34,60,95,67.76a13.85,13.85,0,0,0,7,12.94c3.52,1.93,9,1.87,15.32-.16.91-.29,1.85-.63,2.82-1,0,1.34-.08,2.69-.15,4.06A285.88,285.88,0,0,0,65.18,107q.79-2.71,1.61-5.58C76.27,68,82.85,35,82.92,34.68l-6.73-1.85c0,.1-3.77,10.59-8.56,21.13-8,17.56-12,20.29-12.9,20.71-.85-.82-2.19-5,.06-16.83a157.69,157.69,0,0,1,4.52-17.48l-6.65-2.2a164.74,164.74,0,0,0-4.74,18.31c-2.74,14.39-1.42,22.25,4.14,24.72a6.49,6.49,0,0,0,5.36-.07c2.23-1,5.57-3.39,10.72-12.53C65.82,78.13,63.08,88.8,60,99.51q-1.9,6.75-3.73,12.64C33.75,126,18.74,140.64,14.64,152.94c-2.44,7.32-1.11,13.88,3.83,19,3.06,3.16,6.09,4.1,8.63,4.1a10.87,10.87,0,0,0,3-.44c3.87-1.15,15-4.44,32.07-58.83,1.95-1.16,3.95-2.33,6-3.48a279,279,0,0,1,51.22-22.19c-.13,1.36-.28,2.7-.44,4l6.93,1c.29-1.94.67-4.42,1.08-7.29a229.07,229.07,0,0,1,22.87-5.3L149,117.75l7,.18L157.7,52c4.08,17.32,9.47,25.47,16.73,25.47,6.26,0,11.39-6.06,15.75-18.86,1.45,27,8.09,46.91,19.77,59.32l5.1-4.79C194,90.71,196,43.28,198.33,21.25ZM115.18,73.87c-5.17,1.65-8.53,1.41-9.83.69a6.89,6.89,0,0,1-3.34-6.5c.21-5,4.52-9.86,11.53-13a4.19,4.19,0,0,1,1.64-.43,1.37,1.37,0,0,1,.92.31c2.41,1.79,3.66,8.5,4,16.93A39.52,39.52,0,0,1,115.18,73.87Zm-87,95c-1.05.31-2.53.39-4.66-1.81-3.1-3.2-3.82-7.09-2.22-11.9,3.13-9.4,14.61-21.06,31.69-32.53C40.14,161.1,31.57,167.87,28.16,168.87Z"/><path class="cls-1" d="M257.2,33.35c-3.82,3.85-5.9,11.11-6.92,19.59l-5.1.69,2.47,18.14a47.66,47.66,0,0,1-8.16,8.5c2.36-20.18,4.1-42.61,1-48.11A5.84,5.84,0,0,0,235.4,29h0c-7.69,0-19.15,17.92-25.3,28.61l6.07,3.49c6.81-11.83,15-22.74,18.55-24.78,1,3.57.69,15.37-1.07,33a12.7,12.7,0,0,0-3.9-5.36c-1.88-1.4-5.07-2.65-9.57-.67-9.5,4.19-15.37,11.31-15.7,19.05a13.87,13.87,0,0,0,7,12.95c4.1,2.25,10.86,1.7,18.14-1.17-.12,5.13-.51,10.51-1.14,15.58l6.94,1c.7-4.61,1.83-12.25,3-21a56.79,56.79,0,0,0,10.58-8.62l2.91,21.37c.13,1,.23,1.75.3,2.22l6.93-1-.38-2.79c-2.76-21.31-4.09-54.95,3.5-62.6A4,4,0,0,1,265.79,37l.93-6.93A10.9,10.9,0,0,0,257.2,33.35ZM214.79,89.18a6.9,6.9,0,0,1-3.34-6.51c.21-5,4.52-9.86,11.53-13a4.2,4.2,0,0,1,1.63-.43,1.38,1.38,0,0,1,.93.31c2.41,1.79,3.66,8.5,4,16.94C222.8,89.66,216.94,90.35,214.79,89.18Z"/><path class="cls-1" d="M268.72,105.7c-8.68-26-2-53-1.68-54.11l6.78,1.73-3.39-.87,3.39.87c-.07.26-6.47,26.12,1.54,50.17Z"/><circle class="cls-1" cx="273.15" cy="42.58" r="5.45"/></svg>