<svg id="Layer_3" data-name="Layer 3" xmlns="http://www.w3.org/2000/svg" viewBox="0 0 289.26 190.41"><defs><style>.cls-1{fill:#231f20;stroke:#231f20;stroke-miterlimit:10;stroke-width:4px;}</style></defs><title>wordmark-thick</title><path class="cls-1" d="M42.64,32.37q.28,13.41.11,26.85c0,4.48-.13,9-.21,13.45,0,2.24-.62,10.08-.62,10.08l-.4,3.35c-.33,2.23-.55,4.46-1,6.68s-4.33,19.49-5.7,19.49,1.72-22.18,1.93-26.62c0,0,.86-11.06,1-13.28l.62-6.65.49-6.66c.58-8.89.79-53.49,2.1-53.49S42.37,23.43,42.64,32.37Z"/><path class="cls-1" d="M62.18,32.37c-1.35,3-2.81,5.89-4.25,8.81s-3,5.79-4.54,8.67-3.19,5.7-4.86,8.51c-.83,1.4-1.71,2.79-2.58,4.18s-1.73,2.78-2.67,4.13A88.89,88.89,0,0,1,30.82,82.15s5.35-3.76,8.8-3.27a47.3,47.3,0,0,1,10.05,2.59,69.06,69.06,0,0,1,17.69,10q4,3.09,7.72,6.44c2.44,2.28,4.87,4.56,7.14,7,4.58,4.82,14.07,14.53,12.67,15.34s-10.43-8.18-15.47-12.33c-2.54-2.05-5-4.13-7.63-6.08S66.64,97.94,64,96.12a114.08,114.08,0,0,0-16.34-9.78,41.58,41.58,0,0,0-8.8-3.09,26.65,26.65,0,0,0-9.14-.51h0L26,83.57a.41.41,0,0,1-.42-.64L28,79.6c3.68-5.09,7.06-10.56,10.42-16,1.65-2.76,3.38-5.48,5-8.26L46,51.18,48.45,47l5-8.3c1.72-2.75,3.36-5.54,5.11-8.28C62,24.93,67.82,14,69.24,14S64.92,26.45,62.18,32.37Z"/><path class="cls-1" d="M61.54,63.23c1.19-.08,2.46,16.12,6.08,16.62,1.84.25,2.64-1,3.78-2.57A34.18,34.18,0,0,0,74.49,72c.91-1.87,8.63-22.15,8.63-22.15a.51.51,0,0,1,.93,0l1.93,4c1.81,3.75,3.41,7.37,4.94,11.11s3,7.44,4.37,11.2q4.17,11.26,7.5,22.77c.56,1.92,1.07,3.85,1.61,5.77s1,3.87,1.5,5.8q1.49,5.8,2.64,11.7c.76,3.93,1.36,7.9,1.74,11.9a85.69,85.69,0,0,1,.39,12.09,49.22,49.22,0,0,1-1.95,12.06,35.61,35.61,0,0,1-5.49,11.07A32.81,32.81,0,0,1,94,177.62a45.84,45.84,0,0,1-11.32,4.91,77.71,77.71,0,0,1-12,2.31,100.53,100.53,0,0,1-12.14.56,83.56,83.56,0,0,1-24-3.9,59.49,59.49,0,0,1-21.47-12,33.46,33.46,0,0,1-7.76-10.09l-.68-1.5c-.22-.5-.37-1-.55-1.56A23.85,23.85,0,0,1,3.22,153a18.72,18.72,0,0,1,7.29-18,52.58,52.58,0,0,1,5.11-3.62c1.71-1.11,3.45-2.15,5.21-3.15,3.52-2,7.11-3.86,10.77-5.54S39,119.48,42.73,118s7.55-2.77,11.37-4,7.69-2.31,11.59-3.27a182.33,182.33,0,0,1,23.64-4.39c15.89-1.89,48.24.59,47.69,2.39s-44-5.82-92.63,13.46a149.79,149.79,0,0,0-21.14,10.23c-1.69,1-3.35,2-5,3a48.39,48.39,0,0,0-4.6,3.29,7.73,7.73,0,0,0-1,.89l-.94.93c-.28.33-.54.68-.82,1a6.47,6.47,0,0,0-.75,1l-.68,1.08c-.19.37-.35.76-.53,1.14-.09.19-.18.38-.26.57l-.18.6c-.11.4-.28.79-.35,1.2a15.05,15.05,0,0,0-.15,5,19.1,19.1,0,0,0,.62,2.53c.15.42.25.84.42,1.25l.54,1.22a9.52,9.52,0,0,0,.61,1.2l.66,1.18c.53.74,1,1.54,1.58,2.25s1.13,1.46,1.78,2.13l.95,1c.33.33.68.65,1,1a55.12,55.12,0,0,0,19.65,11.41,79.53,79.53,0,0,0,22.8,4.08,96.63,96.63,0,0,0,11.67-.35,74.23,74.23,0,0,0,11.43-2,44,44,0,0,0,10.58-4.35,29.71,29.71,0,0,0,8.54-7.37,32,32,0,0,0,5.24-10.07,46.61,46.61,0,0,0,2-11.39,93.67,93.67,0,0,0-1.94-23.41,220.06,220.06,0,0,0-5.84-23,223.67,223.67,0,0,0-8.21-22.24c-1.56-3.63-3.22-7.21-5-10.72S82.75,64,80.78,67.93c-1,2-2,3.88-3.16,5.78a37.2,37.2,0,0,1-3.91,5.49A12.6,12.6,0,0,1,71,81.58a5.82,5.82,0,0,1-1.93.77,4,4,0,0,1-2.29-.22A6,6,0,0,1,64,79.35a16.58,16.58,0,0,1-1.26-3.18C61.54,71.88,60.35,63.31,61.54,63.23Z"/><path class="cls-1" d="M140.17,67.17c-.6.35-7.2-9.23-15.76-16.54a17.47,17.47,0,0,0-4.5-2.67,8.17,8.17,0,0,0-4.42-.68,6.77,6.77,0,0,0-1,.23c-.32.12-.62.29-.94.41l-.9.6q-.41.38-.84.72c-.57.64-1.18,1.29-1.74,2s-1.13,1.37-1.58,2.13l-.73,1.1-.65,1.16A24.67,24.67,0,0,0,106,58a24.06,24.06,0,0,0-1.51,5.09,25.51,25.51,0,0,0-.44,4.72c.69,1.61,1.38,3.21,2,4.82,1.53,3.59,6.1,16.79,7,21,.07.28.13.56.19.83.5,2.33,1,4.56,1.31,6.24a.57.57,0,0,1-1,.43A103.32,103.32,0,0,1,105.94,86a133,133,0,0,1-6.26-21.43l-.54-1.81c-1.09-3.62-3.2-11.15-2.68-11.45s2.77,5.75,4.08,8.64a34.94,34.94,0,0,1,1-3.63,27.61,27.61,0,0,1,1.26-2.9c.24-.47.46-1,.73-1.41l.84-1.33a10.66,10.66,0,0,1,.89-1.3l1-1.26c.67-.81,1.39-1.57,2.12-2.36.46-.39.92-.78,1.39-1.15s1-.64,1.56-1,1.14-.5,1.74-.69a11.75,11.75,0,0,1,1.84-.37,12.81,12.81,0,0,1,6.85,1.4,23.1,23.1,0,0,1,5.19,3.65A38.35,38.35,0,0,1,131.08,52C132.35,53.57,140.78,66.83,140.17,67.17Z"/><path class="cls-1" d="M114.13,64.1c-.55-.32,2.12-5.41,3.55-8a46.08,46.08,0,0,1,5.08-7.21,33.88,33.88,0,0,1,14.79-10.37c.73-.27,1.5-.44,2.26-.65s1.54-.31,2.31-.45,1.55-.19,2.35-.22l1.21,0h.61a7.59,7.59,0,0,1,1,.12,5.85,5.85,0,0,1,3.24,2A9.19,9.19,0,0,1,152,41.87a20.8,20.8,0,0,1,1.11,4.72,73.54,73.54,0,0,1,.45,8.83c0,2.89,0,5.76,0,8.63-.92,29.59,1.58,67.79.1,68.28s-3.48-14.95-4.07-25.48-.58-20-.33-25.72.52-11.4.48-17.07a87.91,87.91,0,0,0-1.41-16.64,16.87,16.87,0,0,0-1.1-3.52,4,4,0,0,0-.69-1.09.58.58,0,0,0-.33-.2s0,0,0,0l-.46,0-.92,0c-.62,0-1.26.15-1.9.19a29.27,29.27,0,0,0-3.76.8,35.22,35.22,0,0,0-13.66,7.93C121.4,55.25,114.68,64.42,114.13,64.1Z"/><path class="cls-1" d="M151.43,78.72c-4.48-1.53-9.54-1.94-13.63-.1a12.67,12.67,0,0,0-5.09,4A17.35,17.35,0,0,0,131,85.45c-.25.5-.47,1-.69,1.52a13,13,0,0,0-.49,1.49,3.66,3.66,0,0,0,0,2.39c0,.13.16.2.19.31s.17.16.28.24a3.5,3.5,0,0,0,.89.4,22,22,0,0,0,6.05.53c2.27,0,4.61-.18,7-.32s4.8-.34,7.3-.39l.14.45a32.59,32.59,0,0,1-6.76,3.22,35,35,0,0,1-7.35,1.8,22,22,0,0,1-4,.12,12,12,0,0,1-4.29-1.07,7.6,7.6,0,0,1-2.14-1.54,8.37,8.37,0,0,1-.86-1.17,7.77,7.77,0,0,1-.52-1.35,8,8,0,0,1,.43-4.74,16.75,16.75,0,0,1,.81-1.89c.32-.58.62-1.15,1-1.71a20.65,20.65,0,0,1,2.39-3.15,15.46,15.46,0,0,1,6.67-4.2,17.2,17.2,0,0,1,7.63-.43,22.06,22.06,0,0,1,7,2.35Z"/><path class="cls-1" d="M163.39,117.07c-1,0,1.81-20.09,1.81-20.09q1-10,1.77-20.07c.49-6.7,1.1-13.38,1.49-20.07.24-3.34.4-6.68.59-10s.29-6.67.27-10l0-2.48-.07-2.45-.07-2.45L169,27.14,168.84,26l-.23-1.16-.12-.53c0-.14-.1-.35-.07-.26a1.69,1.69,0,0,0,.3.49c-.38.32,2.14,1.42,3.41.34,1-1,.57-.86.76-1.13s0-.25.06-.24v.44c.05,1.48.24,3.17.43,4.79a177,177,0,0,0,3.39,19.56c.74,3.22,1.59,6.41,2.59,9.53a60.06,60.06,0,0,0,3.61,9c1.44,2.77,3.25,5.47,5.43,6.87a5.18,5.18,0,0,0,3.36.86,9.13,9.13,0,0,0,3.76-1.33A29.4,29.4,0,0,0,202.42,67a75.16,75.16,0,0,0,5.81-7.86,141,141,0,0,0,9.51-17.39c1.38-3,2.68-6.06,3.82-9.14.57-1.54,1.1-3.09,1.51-4.6a13.75,13.75,0,0,0,.43-2.06c0-.11,0-.21,0-.12a2.17,2.17,0,0,0,0,.21l.06.13a2.2,2.2,0,0,0,.18.33,1.62,1.62,0,0,0,.3.33,2.18,2.18,0,0,0,.69.4,1.94,1.94,0,0,0,.79.11,1.68,1.68,0,0,0,.49-.09,1.37,1.37,0,0,0,.48-.25s0,0,0,0-.15.17-.24.3a32.23,32.23,0,0,0-2.29,4c-.72,1.46-1.41,3-2.06,4.47-1.31,3-2.52,6.12-3.65,9.24A142.32,142.32,0,0,0,213,64.23c-1.35,6.48-2.39,13-3.3,19.46a145.83,145.83,0,0,0-1.53,19.47,83.2,83.2,0,0,0,.5,9.76c.37,3.26,2.64,9.35,1.89,9.78s-4-5.71-5.24-9a53.19,53.19,0,0,1-2.51-10.16,80.46,80.46,0,0,1-.13-20.76,113.1,113.1,0,0,1,4.41-20.1c2-6.54,4.32-12.94,6.74-19.3,1.2-3.18,2.48-6.34,3.88-9.46.7-1.56,1.43-3.11,2.22-4.65a35.5,35.5,0,0,1,2.76-4.68,8.1,8.1,0,0,1,.56-.67,4.69,4.69,0,0,1,.43-.41,3.05,3.05,0,0,1,1-.58,2.91,2.91,0,0,1,.64-.12,2.57,2.57,0,0,1,.95.13,2.5,2.5,0,0,1,.82.48,3,3,0,0,1,.4.45,2.52,2.52,0,0,1,.26.46c0,.09.07.19.1.28a2.91,2.91,0,0,1,.12.52,5.23,5.23,0,0,1,0,1.14,17.35,17.35,0,0,1-.58,2.87c-.48,1.73-1,3.36-1.64,5-1.2,3.22-2.54,6.36-4,9.46a145.41,145.41,0,0,1-9.76,18A79.62,79.62,0,0,1,205.88,70a33.7,33.7,0,0,1-8.06,7.18,13.65,13.65,0,0,1-5.68,2,9.89,9.89,0,0,1-3.27-.24,10.26,10.26,0,0,1-3-1.28,16.61,16.61,0,0,1-4.24-4,32.55,32.55,0,0,1-2.89-4.6,66.33,66.33,0,0,1-4-9.66c-1.1-3.27-2-6.57-2.82-9.89a171.38,171.38,0,0,1-3.54-20.15c-.17-1.72-.34-3.38-.38-5.26,0-.25,0-.49,0-.82a3.73,3.73,0,0,1,.14-.86c.21-.32-.18-.2.83-1.27,1.3-1.13,3.89,0,3.54.37a2.88,2.88,0,0,1,.44.76,6.89,6.89,0,0,1,.28.94l.15.7.24,1.31.14,1.35.26,2.7,0,2.59,0,2.59L174,36.92c-.25,6.81-.83,13.54-1.51,20.25s-1.49,13.4-2.4,20.07-1.86,13.33-2.89,20S164.38,117.07,163.39,117.07Z"/><path class="cls-1" d="M218.37,72.75c-.65-.38,4.12-6.58,6.7-9.54a26.44,26.44,0,0,1,4.37-4.08,11.11,11.11,0,0,1,2.81-1.48,5.93,5.93,0,0,1,3.51-.17,4.79,4.79,0,0,1,.87.34,3.2,3.2,0,0,1,.88.59,5.23,5.23,0,0,1,1.12,1.53,12.93,12.93,0,0,1,1,3.07,27.44,27.44,0,0,1,.69,6c-.13,14.06-.33,27.87-.36,34.73s.82,22.3-.17,22.87-3-7.36-3.64-11.24a93,93,0,0,1-1-11.7A108.06,108.06,0,0,1,235.6,92c.36-3.85.72-7.69,1-11.52s.56-7.65.59-11.43a39.16,39.16,0,0,0-.29-5.55,10.53,10.53,0,0,0-.61-2.46,2.86,2.86,0,0,0-.51-.83.55.55,0,0,0-.13-.12.51.51,0,0,0-.17-.11,2.43,2.43,0,0,0-.46-.21c-1.26-.5-2.26-.33-4.55,1C224,64.49,219,73.12,218.37,72.75Z"/><path class="cls-1" d="M238.2,85.91a40.29,40.29,0,0,0-6.69-.95,21.59,21.59,0,0,0-6.52.53,8.54,8.54,0,0,0-5,3,7.48,7.48,0,0,0-1.2,2.49,12.39,12.39,0,0,0-.38,2.94c-.1,2,.53,3.89,1.5,4.54a4.52,4.52,0,0,0,1.89.75,12.91,12.91,0,0,0,2.73.17,42.42,42.42,0,0,0,6.32-.76l6.73-1.3.22.42a25,25,0,0,1-5.86,4.05,22.55,22.55,0,0,1-7,2.33,12.57,12.57,0,0,1-4.1-.05,8,8,0,0,1-4.19-2.2,7.85,7.85,0,0,1-2-4.21,12.9,12.9,0,0,1-.17-2.07c0-.65,0-1.32.13-1.94a15.92,15.92,0,0,1,.87-3.78,10.79,10.79,0,0,1,2.11-3.45,11.32,11.32,0,0,1,6.93-3.25,23.48,23.48,0,0,1,7.13.35,34,34,0,0,1,6.67,2Z"/><path class="cls-1" d="M249.84,61.8c.77,0,1.11,8.38,1.67,12.58l.75,6.29.68,6.3c.22,2.1.53,4.19.81,6.29a46.06,46.06,0,0,1,.38,6.31c0,4.69-1.26,12.78-1.9,12.78s-2.59-7.59-2.86-12.51a46.06,46.06,0,0,1-.33-6.32c0-2.11.11-4.23.09-6.34l0-6.33,0-6.34C249.21,70.28,249.08,61.8,249.84,61.8Z"/><path class="cls-1" d="M247,79.38c-.66-.38,2.21-8.75,3.74-13A54.34,54.34,0,0,1,257,54a27.07,27.07,0,0,1,4.91-5.46l.77-.59c.28-.18.57-.35.85-.52l.88-.49c.32-.13.64-.26,1-.38s.65-.24,1-.33.69-.14,1-.19A8.87,8.87,0,0,1,269.5,46a11.62,11.62,0,0,1,7.16,3.18c1.89,1.64,4.51,5.19,4.1,5.83s-4.12-2.24-6-3.06a10.71,10.71,0,0,0-5.3-1.18,11.27,11.27,0,0,0-4.87,1.7A18.78,18.78,0,0,0,260,56.39a41.88,41.88,0,0,0-3.79,5.22c-1.18,1.84-2.28,3.75-3.29,5.72C250.83,71.24,247.65,79.77,247,79.38Z"/><path class="cls-1" d="M268.48,120.41c-1.16,0,1.09-33.76,1.6-40.48l.74-10.09c.29-3.36.7-6.71,1.2-10s1.07-6.67,1.74-10,1.91-9.89,2.82-9.89.41,6.81.44,10.2-.05,6.77-.16,10.14-.36,6.74-.7,10.09l-1.17,10C274.22,87.09,269.64,120.41,268.48,120.41Z"/><path class="cls-1" d="M282.11,27.71a27,27,0,0,1-3.24,4.11,8.24,8.24,0,0,1-2.24,1.68,4.64,4.64,0,0,1-1.53.46,3.55,3.55,0,0,1-1.84-.34,3.72,3.72,0,0,1-1.38-1.34,5.3,5.3,0,0,1-.59-1.58,9.26,9.26,0,0,1-.08-3,16.8,16.8,0,0,1,1.66-5.33,18,18,0,0,1,3.29-4.69,8.57,8.57,0,0,1,2.73-1.83,6,6,0,0,1,2-.43,4.89,4.89,0,0,1,2.49.65A4.5,4.5,0,0,1,285,18a5.11,5.11,0,0,1,.42,1.93,7.69,7.69,0,0,1-.64,3.08A31.9,31.9,0,0,1,282.11,27.71ZM281,27a8.52,8.52,0,0,0,.86-4.6,5.74,5.74,0,0,0-.47-1.9c-.1-.25-.48-.23-.69-.13a6.78,6.78,0,0,0-1.49.82,11.49,11.49,0,0,0-3,3.05,13.43,13.43,0,0,0-1.9,4,6.54,6.54,0,0,0-.26,2,2.86,2.86,0,0,0,.14.8,1.41,1.41,0,0,0,.31.47,1.19,1.19,0,0,0,.57.21,2.73,2.73,0,0,0,.9-.1,6.59,6.59,0,0,0,2-1A9.8,9.8,0,0,0,281,27Z"/></svg>