<svg id="Layer_3" data-name="Layer 3" xmlns="http://www.w3.org/2000/svg" viewBox="0 0 152.5 180"><defs><style>.cls-1{fill:none;stroke:#231f20;stroke-miterlimit:10;stroke-width:7px;}</style></defs><title>workmark-5</title><path class="cls-1" d="M54,41.55s-11.5,34.73-2.5,38.73,26-44,26-44S45.17,198.83,19,171.78c-23.45-24.22,59.83-78.59,131.52-90"/><path class="cls-1" d="M26.28,3.29s-1.23,81.6-18,139.2"/><path class="cls-1" d="M56.86,18.91S1.69,92.36,2.75,97.16s53.73-4.72,53.73-4.72"/><path class="cls-1" d="M86.49,38.89,82,90.15s6-73.94,26-66.47"/><path class="cls-1" d="M101.67,47S121.25,13,126,21.54s-5.56,76.29-5.56,76.29,6.32-51-10.34-43.64-16.19,21.5-8.46,25.73,32-5.39,41.83-25.73"/></svg>